<svg width="276" height="177" viewBox="0 0 276 177" fill="none" xmlns="http://www.w3.org/2000/svg">
<g clip-path="url(#clip0_106_1306)">
<rect width="276" height="177" rx="8" fill="url(#paint0_linear_106_1306)"/>
<path d="M169.986 33.3705V17.8151H176.214C177.358 17.8151 178.313 17.9848 179.077 18.324C179.842 18.6633 180.417 19.1342 180.802 19.7368C181.186 20.3343 181.379 21.0229 181.379 21.8027C181.379 22.4103 181.257 22.9446 181.014 23.4053C180.771 23.8611 180.437 24.2358 180.012 24.5295C179.591 24.8181 179.11 25.0232 178.569 25.1447V25.2966C179.161 25.3219 179.715 25.489 180.232 25.7979C180.753 26.1068 181.176 26.5397 181.5 27.0967C181.824 27.6486 181.986 28.3069 181.986 29.0715C181.986 29.8969 181.781 30.6336 181.371 31.2818C180.966 31.9248 180.366 32.4337 179.571 32.8084C178.776 33.1831 177.796 33.3705 176.632 33.3705H169.986ZM173.275 30.6817H175.956C176.872 30.6817 177.541 30.507 177.961 30.1576C178.381 29.8032 178.591 29.3323 178.591 28.7449C178.591 28.3145 178.487 27.9347 178.28 27.6056C178.072 27.2765 177.776 27.0182 177.391 26.8309C177.011 26.6435 176.558 26.5498 176.032 26.5498H173.275V30.6817ZM173.275 24.3244H175.713C176.163 24.3244 176.563 24.2459 176.913 24.0889C177.267 23.9269 177.546 23.699 177.748 23.4053C177.956 23.1117 178.06 22.7597 178.06 22.3496C178.06 21.7875 177.86 21.3343 177.46 20.99C177.065 20.6457 176.503 20.4735 175.773 20.4735H173.275V24.3244ZM184.066 33.3705V21.704H187.301V33.3705H184.066ZM185.691 20.2001C185.21 20.2001 184.797 20.0406 184.453 19.7216C184.114 19.3975 183.944 19.0101 183.944 18.5595C183.944 18.1139 184.114 17.7316 184.453 17.4126C184.797 17.0885 185.21 16.9265 185.691 16.9265C186.172 16.9265 186.582 17.0885 186.922 17.4126C187.266 17.7316 187.438 18.1139 187.438 18.5595C187.438 19.0101 187.266 19.3975 186.922 19.7216C186.582 20.0406 186.172 20.2001 185.691 20.2001ZM196.099 21.704V24.1345H189.073V21.704H196.099ZM190.668 18.9089H193.904V29.7855C193.904 30.0842 193.949 30.3171 194.04 30.4842C194.131 30.6463 194.258 30.7602 194.42 30.826C194.587 30.8919 194.78 30.9248 194.997 30.9248C195.149 30.9248 195.301 30.9121 195.453 30.8868C195.605 30.8564 195.721 30.8336 195.802 30.8184L196.311 33.2262C196.149 33.2768 195.921 33.335 195.628 33.4009C195.334 33.4718 194.977 33.5148 194.557 33.53C193.777 33.5604 193.093 33.4566 192.506 33.2186C191.924 32.9806 191.471 32.6109 191.146 32.1096C190.822 31.6084 190.663 30.9754 190.668 30.2108V18.9089ZM207.767 25.0308L204.805 25.213C204.754 24.9599 204.645 24.732 204.478 24.5295C204.311 24.3218 204.091 24.1573 203.817 24.0358C203.549 23.9092 203.228 23.8459 202.853 23.8459C202.352 23.8459 201.929 23.9522 201.584 24.1649C201.24 24.3725 201.068 24.651 201.068 25.0004C201.068 25.2789 201.179 25.5143 201.402 25.7067C201.625 25.8992 202.007 26.0536 202.549 26.1701L204.661 26.5954C205.795 26.8283 206.64 27.203 207.197 27.7195C207.754 28.236 208.033 28.9145 208.033 29.7551C208.033 30.5197 207.808 31.1906 207.357 31.7679C206.911 32.3451 206.299 32.7958 205.519 33.1198C204.744 33.4388 203.85 33.5983 202.838 33.5983C201.293 33.5983 200.063 33.2768 199.146 32.6337C198.235 31.9856 197.701 31.1045 197.544 29.9905L200.726 29.8234C200.822 30.2944 201.055 30.6539 201.425 30.902C201.795 31.145 202.268 31.2666 202.845 31.2666C203.412 31.2666 203.868 31.1577 204.212 30.94C204.562 30.7172 204.739 30.4311 204.744 30.0817C204.739 29.788 204.615 29.5475 204.372 29.3601C204.129 29.1677 203.754 29.0209 203.248 28.9196L201.227 28.517C200.088 28.2892 199.24 27.8942 198.683 27.3322C198.131 26.7701 197.855 26.0536 197.855 25.1827C197.855 24.4332 198.058 23.7876 198.463 23.2458C198.873 22.704 199.448 22.2863 200.187 21.9926C200.931 21.6989 201.802 21.5521 202.8 21.5521C204.273 21.5521 205.433 21.8635 206.278 22.4863C207.129 23.1091 207.625 23.9573 207.767 25.0308ZM210.07 37.7454V21.704H213.26V23.6636H213.405C213.547 23.3496 213.752 23.0306 214.02 22.7066C214.293 22.3774 214.648 22.104 215.083 21.8863C215.524 21.6635 216.071 21.5521 216.724 21.5521C217.575 21.5521 218.359 21.7749 219.078 22.2205C219.798 22.661 220.372 23.3269 220.803 24.218C221.233 25.1042 221.448 26.2156 221.448 27.5524C221.448 28.8538 221.238 29.9526 220.818 30.8488C220.403 31.74 219.835 32.416 219.116 32.8768C218.402 33.3325 217.602 33.5604 216.716 33.5604C216.088 33.5604 215.554 33.4566 215.114 33.249C214.678 33.0414 214.321 32.7806 214.043 32.4666C213.764 32.1476 213.552 31.8261 213.405 31.502H213.306V37.7454H210.07ZM213.238 27.5372C213.238 28.2309 213.334 28.836 213.526 29.3525C213.719 29.869 213.997 30.2716 214.362 30.5602C214.726 30.8438 215.169 30.9855 215.691 30.9855C216.218 30.9855 216.663 30.8412 217.028 30.5526C217.392 30.2589 217.668 29.8538 217.856 29.3373C218.048 28.8158 218.144 28.2157 218.144 27.5372C218.144 26.8638 218.051 26.2713 217.863 25.7599C217.676 25.2485 217.4 24.8485 217.035 24.5598C216.671 24.2712 216.223 24.1269 215.691 24.1269C215.164 24.1269 214.719 24.2661 214.354 24.5446C213.995 24.8231 213.719 25.2181 213.526 25.7295C213.334 26.2409 213.238 26.8435 213.238 27.5372ZM228.922 33.5983C227.722 33.5983 226.689 33.3553 225.823 32.8692C224.962 32.378 224.299 31.6843 223.833 30.7881C223.367 29.8867 223.134 28.8208 223.134 27.5904C223.134 26.3903 223.367 25.3371 223.833 24.4307C224.299 23.5243 224.955 22.818 225.8 22.3116C226.651 21.8052 227.649 21.5521 228.793 21.5521C229.563 21.5521 230.279 21.6761 230.942 21.9242C231.611 22.1673 232.193 22.5344 232.689 23.0256C233.191 23.5167 233.581 24.1345 233.859 24.8788C234.138 25.6181 234.277 26.484 234.277 27.4765V28.3651H224.426V26.3599H231.231C231.231 25.8941 231.13 25.4814 230.927 25.1219C230.725 24.7624 230.444 24.4814 230.084 24.2788C229.73 24.0712 229.317 23.9674 228.846 23.9674C228.355 23.9674 227.92 24.0813 227.54 24.3092C227.165 24.532 226.871 24.8333 226.659 25.213C226.446 25.5877 226.337 26.0055 226.332 26.4663V28.3727C226.332 28.95 226.438 29.4487 226.651 29.869C226.869 30.2893 227.175 30.6134 227.57 30.8412C227.965 31.0691 228.433 31.183 228.975 31.183C229.335 31.183 229.664 31.1324 229.963 31.0311C230.261 30.9298 230.517 30.7779 230.73 30.5754C230.942 30.3728 231.105 30.1247 231.216 29.831L234.208 30.0285C234.057 30.7475 233.745 31.3754 233.274 31.9122C232.808 32.4438 232.206 32.8591 231.467 33.1578C230.732 33.4515 229.884 33.5983 228.922 33.5983ZM239.624 26.6258V33.3705H236.388V21.704H239.472V23.7623H239.609C239.867 23.0838 240.3 22.5471 240.908 22.1521C241.515 21.7521 242.252 21.5521 243.118 21.5521C243.928 21.5521 244.634 21.7293 245.237 22.0837C245.84 22.4382 246.308 22.9446 246.642 23.6028C246.976 24.256 247.143 25.0358 247.143 25.9422V33.3705H243.908V26.5194C243.913 25.8055 243.731 25.2485 243.361 24.8485C242.991 24.4434 242.482 24.2408 241.834 24.2408C241.399 24.2408 241.014 24.3345 240.68 24.5219C240.351 24.7092 240.092 24.9826 239.905 25.3422C239.723 25.6966 239.629 26.1245 239.624 26.6258ZM253.993 33.5604C253.106 33.5604 252.304 33.3325 251.585 32.8768C250.871 32.416 250.304 31.74 249.883 30.8488C249.468 29.9526 249.261 28.8538 249.261 27.5524C249.261 26.2156 249.476 25.1042 249.906 24.218C250.337 23.3269 250.909 22.661 251.623 22.2205C252.342 21.7749 253.129 21.5521 253.985 21.5521C254.638 21.5521 255.183 21.6635 255.618 21.8863C256.059 22.104 256.413 22.3774 256.681 22.7066C256.955 23.0306 257.162 23.3496 257.304 23.6636H257.403V17.8151H260.631V33.3705H257.441V31.502H257.304C257.152 31.8261 256.937 32.1476 256.659 32.4666C256.385 32.7806 256.028 33.0414 255.588 33.249C255.152 33.4566 254.62 33.5604 253.993 33.5604ZM255.018 30.9855C255.54 30.9855 255.98 30.8438 256.34 30.5602C256.704 30.2716 256.983 29.869 257.175 29.3525C257.373 28.836 257.471 28.2309 257.471 27.5372C257.471 26.8435 257.375 26.2409 257.183 25.7295C256.99 25.2181 256.712 24.8231 256.347 24.5446C255.983 24.2661 255.54 24.1269 255.018 24.1269C254.486 24.1269 254.038 24.2712 253.674 24.5598C253.309 24.8485 253.033 25.2485 252.846 25.7599C252.658 26.2713 252.565 26.8638 252.565 27.5372C252.565 28.2157 252.658 28.8158 252.846 29.3373C253.038 29.8538 253.314 30.2589 253.674 30.5526C254.038 30.8412 254.486 30.9855 255.018 30.9855Z" fill="white"/>
<g filter="url(#filter0_b_106_1306)">
<path d="M14 55.3705C14 52.6091 16.3025 50.3705 19.1429 50.3705H44.8571C47.6975 50.3705 50 52.6091 50 55.3705V70.3705C50 73.1319 47.6975 75.3705 44.8571 75.3705H19.1429C16.3025 75.3705 14 73.1319 14 70.3705V55.3705Z" fill="#777777" fill-opacity="0.3"/>
<path d="M14.8912 55.3705C14.8912 53.1248 16.7709 51.2617 19.1429 51.2617H44.8571C47.2291 51.2617 49.1088 53.1248 49.1088 55.3705V70.3705C49.1088 72.6162 47.2291 74.4793 44.8571 74.4793H19.1429C16.7709 74.4793 14.8912 72.6162 14.8912 70.3705V55.3705Z" stroke="#777777" stroke-opacity="0.3" stroke-width="1.78238"/>
</g>
<path d="M22.6786 50.9955H23.3215V74.7455H22.6786V67.2455H14.6429V66.6205H22.6786V59.1205H14.6429V58.4955H22.6786V50.9955Z" fill="#777777" fill-opacity="0.3"/>
<path d="M41 66.6205H49.3572V67.2455H41V74.7455H40.3572V62.2455C40.3572 60.1744 42.0841 58.4955 44.2143 58.4955H49.3572V59.1205H44.2143C42.4391 59.1205 41 60.5196 41 62.2455V66.6205Z" fill="#777777" fill-opacity="0.3"/>
<path d="M41 50.9955H40.3572V55.9955H41V50.9955Z" fill="#777777" fill-opacity="0.3"/>
<path fill-rule="evenodd" clip-rule="evenodd" d="M36.5 62.8705C36.5 65.2867 34.4853 67.2455 32 67.2455C29.5147 67.2455 27.5 65.2867 27.5 62.8705C27.5 60.4542 29.5147 58.4955 32 58.4955C34.4853 58.4955 36.5 60.4542 36.5 62.8705ZM35.8572 62.8705C35.8572 64.9416 34.1303 66.6205 32 66.6205C29.8698 66.6205 28.1429 64.9416 28.1429 62.8705C28.1429 60.7994 29.8698 59.1205 32 59.1205C34.1303 59.1205 35.8572 60.7994 35.8572 62.8705Z" fill="#777777" fill-opacity="0.3"/>
<path d="M17.661 98.963L20.0155 103.27L22.4081 98.963H25.3171L21.8005 104.796L25.3779 110.63H22.484L20.0155 106.429L17.5698 110.63H14.6532L18.2078 104.796L14.7443 98.963H17.661ZM29.6921 98.963L32.0466 103.27L34.4392 98.963H37.3482L33.8315 104.796L37.409 110.63H34.5151L32.0466 106.429L29.6009 110.63H26.6843L30.2389 104.796L26.7754 98.963H29.6921ZM41.7232 98.963L44.0777 103.27L46.4703 98.963H49.3793L45.8626 104.796L49.4401 110.63H46.5462L44.0777 106.429L41.632 110.63H38.7154L42.27 104.796L38.8065 98.963H41.7232ZM53.7542 98.963L56.1088 103.27L58.5014 98.963H61.4104L57.8937 104.796L61.4711 110.63H58.5773L56.1088 106.429L53.6631 110.63H50.7465L54.3011 104.796L50.8376 98.963H53.7542ZM71.0907 98.963L73.4453 103.27L75.8378 98.963H78.7468L75.2302 104.796L78.8076 110.63H75.9138L73.4453 106.429L70.9996 110.63H68.0829L71.6376 104.796L68.1741 98.963H71.0907ZM83.1218 98.963L85.4764 103.27L87.8689 98.963H90.7779L87.2613 104.796L90.8387 110.63H87.9449L85.4764 106.429L83.0306 110.63H80.114L83.6687 104.796L80.2052 98.963H83.1218ZM95.1529 98.963L97.5074 103.27L99.9 98.963H102.809L99.2924 104.796L102.87 110.63H99.9759L97.5074 106.429L95.0617 110.63H92.1451L95.6997 104.796L92.2363 98.963H95.1529ZM107.184 98.963L109.539 103.27L111.931 98.963H114.84L111.323 104.796L114.901 110.63H112.007L109.539 106.429L107.093 110.63H104.176L107.731 104.796L104.267 98.963H107.184ZM124.52 98.963L126.875 103.27L129.268 98.963H132.177L128.66 104.796L132.237 110.63H129.343L126.875 106.429L124.429 110.63H121.513L125.067 104.796L121.604 98.963H124.52ZM136.552 98.963L138.906 103.27L141.299 98.963H144.208L140.691 104.796L144.268 110.63H141.375L138.906 106.429L136.46 110.63H133.544L137.098 104.796L133.635 98.963H136.552ZM148.583 98.963L150.937 103.27L153.33 98.963H156.239L152.722 104.796L156.3 110.63H153.406L150.937 106.429L148.491 110.63H145.575L149.129 104.796L145.666 98.963H148.583ZM160.614 98.963L162.968 103.27L165.361 98.963H168.27L164.753 104.796L168.331 110.63H165.437L162.968 106.429L160.523 110.63H157.606L161.161 104.796L157.697 98.963H160.614ZM181.421 110.926C180.171 110.926 179.097 110.609 178.201 109.976C177.31 109.338 176.623 108.419 176.142 107.219C175.666 106.014 175.428 104.563 175.428 102.867C175.434 101.171 175.674 99.7276 176.15 98.5377C176.631 97.3427 177.317 96.4312 178.208 95.8034C179.105 95.1755 180.176 94.8615 181.421 94.8615C182.667 94.8615 183.738 95.1755 184.634 95.8034C185.53 96.4312 186.216 97.3427 186.692 98.5377C187.173 99.7327 187.414 101.176 187.414 102.867C187.414 104.568 187.173 106.022 186.692 107.227C186.216 108.427 185.53 109.343 184.634 109.976C183.743 110.609 182.672 110.926 181.421 110.926ZM181.421 108.548C182.393 108.548 183.161 108.07 183.723 107.113C184.29 106.151 184.573 104.736 184.573 102.867C184.573 101.632 184.444 100.594 184.186 99.753C183.928 98.9124 183.563 98.2795 183.092 97.8541C182.621 97.4237 182.064 97.2085 181.421 97.2085C180.454 97.2085 179.69 97.6895 179.127 98.6516C178.565 99.6086 178.282 101.014 178.277 102.867C178.272 104.108 178.396 105.151 178.649 105.996C178.907 106.842 179.272 107.48 179.743 107.91C180.214 108.336 180.773 108.548 181.421 108.548ZM195.52 110.842C194.426 110.842 193.454 110.655 192.604 110.28C191.758 109.905 191.09 109.384 190.598 108.716C190.107 108.047 189.846 107.275 189.816 106.399H192.672C192.697 106.819 192.836 107.186 193.09 107.5C193.343 107.809 193.68 108.05 194.1 108.222C194.52 108.394 194.991 108.48 195.513 108.48C196.07 108.48 196.563 108.384 196.994 108.191C197.424 107.994 197.761 107.721 198.004 107.371C198.247 107.022 198.366 106.619 198.361 106.163C198.366 105.693 198.244 105.277 197.996 104.918C197.748 104.558 197.389 104.277 196.918 104.075C196.452 103.872 195.89 103.771 195.232 103.771H193.857V101.599H195.232C195.773 101.599 196.247 101.505 196.652 101.318C197.062 101.13 197.384 100.867 197.616 100.528C197.849 100.183 197.963 99.7859 197.958 99.3352C197.963 98.8947 197.865 98.5124 197.662 98.1883C197.465 97.8592 197.184 97.6035 196.819 97.4212C196.459 97.2389 196.037 97.1477 195.551 97.1477C195.075 97.1477 194.634 97.2338 194.229 97.406C193.824 97.5781 193.497 97.8237 193.249 98.1427C193.001 98.4567 192.869 98.8314 192.854 99.2669H190.143C190.163 98.3959 190.414 97.6313 190.895 96.973C191.381 96.3097 192.029 95.7932 192.839 95.4236C193.649 95.0489 194.558 94.8615 195.566 94.8615C196.604 94.8615 197.505 95.0565 198.27 95.4464C199.039 95.8312 199.634 96.3502 200.055 97.0034C200.475 97.6566 200.685 98.3782 200.685 99.1681C200.69 100.044 200.432 100.778 199.91 101.371C199.394 101.963 198.715 102.351 197.875 102.533V102.654C198.968 102.806 199.807 103.211 200.389 103.87C200.976 104.523 201.267 105.336 201.262 106.308C201.262 107.179 201.014 107.959 200.518 108.647C200.027 109.331 199.348 109.867 198.482 110.257C197.622 110.647 196.634 110.842 195.52 110.842ZM203.869 110.63V108.594L209.27 103.3C209.786 102.778 210.217 102.315 210.561 101.91C210.905 101.505 211.164 101.113 211.336 100.733C211.508 100.353 211.594 99.9479 211.594 99.5175C211.594 99.0263 211.483 98.6061 211.26 98.2567C211.037 97.9022 210.731 97.6288 210.341 97.4364C209.951 97.2439 209.508 97.1477 209.011 97.1477C208.5 97.1477 208.052 97.2541 207.667 97.4667C207.282 97.6744 206.984 97.9706 206.771 98.3554C206.563 98.7402 206.459 99.1985 206.459 99.7302H203.778C203.778 98.7428 204.004 97.8845 204.454 97.1553C204.905 96.4262 205.525 95.8616 206.315 95.4616C207.11 95.0615 208.022 94.8615 209.049 94.8615C210.093 94.8615 211.009 95.0565 211.799 95.4464C212.589 95.8363 213.202 96.3705 213.637 97.049C214.078 97.7275 214.298 98.5022 214.298 99.3732C214.298 99.9555 214.186 100.528 213.964 101.09C213.741 101.652 213.348 102.275 212.786 102.958C212.229 103.642 211.447 104.47 210.439 105.442L207.758 108.169V108.275H214.533V110.63H203.869ZM222.554 94.8615C223.298 94.8666 224.022 94.9982 224.726 95.2565C225.435 95.5097 226.073 95.9249 226.64 96.5021C227.207 97.0743 227.658 97.8415 227.992 98.8035C228.327 99.7656 228.494 100.956 228.494 102.373C228.499 103.71 228.357 104.905 228.068 105.958C227.785 107.007 227.377 107.893 226.845 108.617C226.314 109.341 225.673 109.893 224.924 110.273C224.174 110.652 223.331 110.842 222.395 110.842C221.412 110.842 220.541 110.65 219.782 110.265C219.027 109.88 218.417 109.354 217.951 108.685C217.485 108.017 217.199 107.252 217.093 106.391H219.865C220.007 107.009 220.296 107.5 220.731 107.865C221.172 108.224 221.726 108.404 222.395 108.404C223.473 108.404 224.304 107.936 224.886 106.999C225.468 106.062 225.759 104.761 225.759 103.095H225.653C225.405 103.541 225.083 103.925 224.688 104.249C224.293 104.568 223.845 104.814 223.344 104.986C222.848 105.158 222.321 105.244 221.764 105.244C220.853 105.244 220.032 105.027 219.303 104.591C218.579 104.156 218.004 103.558 217.579 102.799C217.159 102.039 216.946 101.171 216.941 100.193C216.941 99.1808 217.174 98.2719 217.64 97.4667C218.111 96.6566 218.766 96.0186 219.607 95.5527C220.448 95.0818 221.43 94.8514 222.554 94.8615ZM222.562 97.1401C222.015 97.1401 221.521 97.2743 221.081 97.5427C220.645 97.806 220.301 98.1655 220.048 98.6212C219.799 99.0719 219.675 99.5757 219.675 100.133C219.68 100.685 219.805 101.186 220.048 101.637C220.296 102.087 220.632 102.444 221.058 102.708C221.488 102.971 221.979 103.103 222.531 103.103C222.941 103.103 223.324 103.024 223.678 102.867C224.033 102.71 224.342 102.492 224.605 102.214C224.873 101.93 225.081 101.609 225.228 101.249C225.38 100.89 225.453 100.51 225.448 100.11C225.448 99.5783 225.321 99.0871 225.068 98.6364C224.82 98.1858 224.478 97.8237 224.043 97.5503C223.612 97.2769 223.119 97.1401 222.562 97.1401Z" fill="white"/>
<path d="M21.2004 138.106H20.2586C20.2029 137.835 20.1054 137.597 19.9662 137.392C19.8295 137.187 19.6624 137.015 19.4649 136.876C19.2699 136.734 19.0535 136.628 18.8155 136.557C18.5775 136.486 18.3294 136.45 18.0711 136.45C17.6002 136.45 17.1736 136.569 16.7913 136.807C16.4115 137.045 16.109 137.396 15.8837 137.859C15.6609 138.323 15.5495 138.891 15.5495 139.565C15.5495 140.238 15.6609 140.806 15.8837 141.27C16.109 141.733 16.4115 142.084 16.7913 142.322C17.1736 142.56 17.6002 142.679 18.0711 142.679C18.3294 142.679 18.5775 142.643 18.8155 142.572C19.0535 142.501 19.2699 142.396 19.4649 142.257C19.6624 142.115 19.8295 141.942 19.9662 141.737C20.1054 141.529 20.2029 141.291 20.2586 141.023H21.2004C21.1295 141.42 21.0004 141.776 20.8131 142.09C20.6257 142.404 20.3928 142.671 20.1143 142.891C19.8358 143.109 19.5231 143.275 19.1763 143.389C18.8319 143.503 18.4636 143.56 18.0711 143.56C17.4078 143.56 16.8179 143.398 16.3014 143.074C15.7849 142.75 15.3786 142.289 15.0823 141.691C14.7861 141.094 14.638 140.385 14.638 139.565C14.638 138.744 14.7861 138.035 15.0823 137.438C15.3786 136.84 15.7849 136.38 16.3014 136.055C16.8179 135.731 17.4078 135.569 18.0711 135.569C18.4636 135.569 18.8319 135.626 19.1763 135.74C19.5231 135.854 19.8358 136.021 20.1143 136.242C20.3928 136.459 20.6257 136.725 20.8131 137.039C21.0004 137.35 21.1295 137.706 21.2004 138.106ZM24.1035 143.59C23.7339 143.59 23.3984 143.52 23.0971 143.381C22.7958 143.239 22.5566 143.036 22.3793 142.77C22.2021 142.501 22.1135 142.177 22.1135 141.798C22.1135 141.463 22.1793 141.192 22.311 140.985C22.4426 140.775 22.6186 140.61 22.8389 140.491C23.0591 140.372 23.3022 140.284 23.568 140.225C23.8364 140.165 24.106 140.116 24.3769 140.081C24.7314 140.035 25.0187 140.001 25.239 139.978C25.4618 139.953 25.6238 139.911 25.7251 139.853C25.8289 139.795 25.8808 139.694 25.8808 139.549V139.519C25.8808 139.144 25.7783 138.853 25.5732 138.646C25.3707 138.438 25.063 138.334 24.6504 138.334C24.2225 138.334 23.887 138.428 23.644 138.615C23.4009 138.802 23.23 139.002 23.1313 139.215L22.2806 138.911C22.4325 138.557 22.6351 138.281 22.8882 138.083C23.1439 137.883 23.4224 137.744 23.7237 137.666C24.0275 137.585 24.3263 137.544 24.62 137.544C24.8073 137.544 25.0225 137.567 25.2656 137.613C25.5112 137.656 25.7479 137.745 25.9758 137.882C26.2061 138.019 26.3973 138.225 26.5492 138.501C26.7011 138.777 26.7771 139.147 26.7771 139.61V143.453H25.8808V142.663H25.8352C25.7745 142.79 25.6732 142.926 25.5314 143.07C25.3896 143.214 25.201 143.337 24.9656 143.438C24.7301 143.539 24.4428 143.59 24.1035 143.59ZM24.2402 142.785C24.5947 142.785 24.8934 142.715 25.1365 142.576C25.3821 142.437 25.5669 142.257 25.6909 142.037C25.8175 141.817 25.8808 141.585 25.8808 141.342V140.522C25.8428 140.567 25.7593 140.609 25.6302 140.647C25.5036 140.682 25.3567 140.714 25.1896 140.742C25.0251 140.767 24.8643 140.79 24.7073 140.81C24.5529 140.828 24.4276 140.843 24.3314 140.856C24.0984 140.886 23.8807 140.936 23.6782 141.004C23.4781 141.07 23.3161 141.17 23.192 141.304C23.0705 141.436 23.0098 141.615 23.0098 141.843C23.0098 142.155 23.125 142.39 23.3553 142.55C23.5883 142.707 23.8832 142.785 24.2402 142.785ZM28.199 143.453V137.62H29.0649V138.501H29.1257C29.232 138.213 29.4244 137.978 29.7029 137.799C29.9814 137.619 30.2954 137.529 30.6448 137.529C30.7106 137.529 30.7929 137.53 30.8916 137.533C30.9903 137.535 31.065 137.539 31.1157 137.544V138.456C31.0853 138.448 31.0157 138.437 30.9068 138.421C30.8005 138.404 30.6878 138.395 30.5688 138.395C30.2852 138.395 30.0321 138.454 29.8093 138.573C29.589 138.69 29.4143 138.852 29.2852 139.059C29.1586 139.265 29.0953 139.499 29.0953 139.762V143.453H28.199ZM33.9893 143.575C33.5032 143.575 33.0741 143.452 32.7019 143.207C32.3297 142.958 32.0386 142.609 31.8284 142.158C31.6183 141.705 31.5132 141.17 31.5132 140.552C31.5132 139.939 31.6183 139.408 31.8284 138.957C32.0386 138.506 32.331 138.158 32.7057 137.913C33.0804 137.667 33.5133 137.544 34.0045 137.544C34.3843 137.544 34.6843 137.607 34.9045 137.734C35.1273 137.858 35.297 138 35.4134 138.159C35.5324 138.316 35.6248 138.445 35.6907 138.547H35.7666V135.676H36.6629V143.453H35.797V142.557H35.6907C35.6248 142.663 35.5312 142.798 35.4096 142.96C35.2881 143.119 35.1147 143.262 34.8894 143.389C34.664 143.513 34.364 143.575 33.9893 143.575ZM34.1108 142.77C34.4703 142.77 34.7742 142.676 35.0223 142.489C35.2704 142.299 35.459 142.037 35.5881 141.703C35.7173 141.366 35.7818 140.977 35.7818 140.537C35.7818 140.101 35.7185 139.72 35.5919 139.394C35.4653 139.065 35.278 138.809 35.0299 138.627C34.7818 138.442 34.4754 138.349 34.1108 138.349C33.7311 138.349 33.4146 138.447 33.1614 138.642C32.9108 138.834 32.7221 139.096 32.5956 139.428C32.4715 139.757 32.4095 140.127 32.4095 140.537C32.4095 140.952 32.4728 141.329 32.5993 141.668C32.7285 142.005 32.9184 142.274 33.169 142.474C33.4222 142.671 33.7361 142.77 34.1108 142.77ZM41.1303 143.453V135.676H42.0722V139.139H46.2192V135.676H47.1611V143.453H46.2192V139.975H42.0722V143.453H41.1303ZM51.081 143.575C50.5544 143.575 50.0923 143.45 49.6948 143.199C49.2999 142.948 48.991 142.598 48.7682 142.147C48.5479 141.696 48.4378 141.17 48.4378 140.567C48.4378 139.96 48.5479 139.429 48.7682 138.976C48.991 138.523 49.2999 138.171 49.6948 137.92C50.0923 137.669 50.5544 137.544 51.081 137.544C51.6076 137.544 52.0684 137.669 52.4633 137.92C52.8608 138.171 53.1697 138.523 53.39 138.976C53.6128 139.429 53.7242 139.96 53.7242 140.567C53.7242 141.17 53.6128 141.696 53.39 142.147C53.1697 142.598 52.8608 142.948 52.4633 143.199C52.0684 143.45 51.6076 143.575 51.081 143.575ZM51.081 142.77C51.481 142.77 51.8101 142.667 52.0684 142.462C52.3266 142.257 52.5178 141.987 52.6418 141.653C52.7659 141.319 52.8279 140.957 52.8279 140.567C52.8279 140.177 52.7659 139.814 52.6418 139.477C52.5178 139.14 52.3266 138.868 52.0684 138.661C51.8101 138.453 51.481 138.349 51.081 138.349C50.6809 138.349 50.3518 138.453 50.0936 138.661C49.8353 138.868 49.6442 139.14 49.5201 139.477C49.3961 139.814 49.334 140.177 49.334 140.567C49.334 140.957 49.3961 141.319 49.5201 141.653C49.6442 141.987 49.8353 142.257 50.0936 142.462C50.3518 142.667 50.6809 142.77 51.081 142.77ZM55.7747 135.676V143.453H54.8784V135.676H55.7747ZM59.405 143.575C58.9189 143.575 58.4897 143.452 58.1176 143.207C57.7454 142.958 57.4542 142.609 57.2441 142.158C57.034 141.705 56.9289 141.17 56.9289 140.552C56.9289 139.939 57.034 139.408 57.2441 138.957C57.4542 138.506 57.7467 138.158 58.1214 137.913C58.4961 137.667 58.929 137.544 59.4202 137.544C59.7999 137.544 60.1 137.607 60.3202 137.734C60.543 137.858 60.7127 138 60.8291 138.159C60.9481 138.316 61.0405 138.445 61.1063 138.547H61.1823V135.676H62.0786V143.453H61.2127V142.557H61.1063C61.0405 142.663 60.9468 142.798 60.8253 142.96C60.7038 143.119 60.5304 143.262 60.305 143.389C60.0797 143.513 59.7797 143.575 59.405 143.575ZM59.5265 142.77C59.886 142.77 60.1898 142.676 60.438 142.489C60.6861 142.299 60.8747 142.037 61.0038 141.703C61.1329 141.366 61.1975 140.977 61.1975 140.537C61.1975 140.101 61.1342 139.72 61.0076 139.394C60.881 139.065 60.6937 138.809 60.4455 138.627C60.1974 138.442 59.8911 138.349 59.5265 138.349C59.1467 138.349 58.8303 138.447 58.5771 138.642C58.3264 138.834 58.1378 139.096 58.0112 139.428C57.8872 139.757 57.8251 140.127 57.8251 140.537C57.8251 140.952 57.8884 141.329 58.015 141.668C58.1441 142.005 58.334 142.274 58.5847 142.474C58.8379 142.671 59.1518 142.77 59.5265 142.77ZM66.0763 143.575C65.5142 143.575 65.0294 143.451 64.6218 143.203C64.2167 142.952 63.904 142.603 63.6838 142.155C63.466 141.704 63.3572 141.18 63.3572 140.582C63.3572 139.985 63.466 139.458 63.6838 139.002C63.904 138.544 64.2104 138.187 64.6028 137.932C64.9978 137.673 65.4585 137.544 65.9852 137.544C66.289 137.544 66.589 137.595 66.8852 137.696C67.1814 137.797 67.4511 137.962 67.6941 138.19C67.9372 138.415 68.1309 138.714 68.2752 139.086C68.4195 139.458 68.4916 139.916 68.4916 140.461V140.841H63.9952V140.066H67.5802C67.5802 139.737 67.5144 139.443 67.3827 139.185C67.2536 138.927 67.0688 138.723 66.8282 138.573C66.5903 138.424 66.3092 138.349 65.9852 138.349C65.6282 138.349 65.3193 138.438 65.0585 138.615C64.8003 138.79 64.6015 139.018 64.4623 139.299C64.323 139.58 64.2534 139.881 64.2534 140.203V140.719C64.2534 141.16 64.3294 141.533 64.4813 141.839C64.6357 142.143 64.8497 142.375 65.1231 142.534C65.3965 142.691 65.7143 142.77 66.0763 142.77C66.3118 142.77 66.5244 142.737 66.7143 142.671C66.9067 142.603 67.0726 142.501 67.2118 142.367C67.3511 142.231 67.4587 142.061 67.5346 141.858L68.4005 142.101C68.3093 142.395 68.1562 142.653 67.941 142.876C67.7258 143.096 67.4599 143.269 67.1435 143.393C66.827 143.514 66.4713 143.575 66.0763 143.575ZM69.6411 143.453V137.62H70.507V138.501H70.5678C70.6741 138.213 70.8665 137.978 71.145 137.799C71.4235 137.619 71.7375 137.529 72.0868 137.529C72.1527 137.529 72.2349 137.53 72.3337 137.533C72.4324 137.535 72.5071 137.539 72.5578 137.544V138.456C72.5274 138.448 72.4577 138.437 72.3489 138.421C72.2425 138.404 72.1299 138.395 72.0109 138.395C71.7273 138.395 71.4741 138.454 71.2513 138.573C71.0311 138.69 70.8564 138.852 70.7273 139.059C70.6007 139.265 70.5374 139.499 70.5374 139.762V143.453H69.6411ZM82.4891 135.676V143.453H81.5777L77.3395 137.347H77.2635V143.453H76.3217V135.676H77.2331L81.4865 141.798H81.5625V135.676H82.4891ZM85.7549 143.59C85.3852 143.59 85.0498 143.52 84.7485 143.381C84.4472 143.239 84.208 143.036 84.0307 142.77C83.8535 142.501 83.7649 142.177 83.7649 141.798C83.7649 141.463 83.8307 141.192 83.9624 140.985C84.094 140.775 84.27 140.61 84.4903 140.491C84.7105 140.372 84.9536 140.284 85.2194 140.225C85.4878 140.165 85.7574 140.116 86.0283 140.081C86.3828 140.035 86.6701 140.001 86.8904 139.978C87.1132 139.953 87.2752 139.911 87.3765 139.853C87.4803 139.795 87.5322 139.694 87.5322 139.549V139.519C87.5322 139.144 87.4297 138.853 87.2246 138.646C87.022 138.438 86.7144 138.334 86.3018 138.334C85.8739 138.334 85.5384 138.428 85.2954 138.615C85.0523 138.802 84.8814 139.002 84.7827 139.215L83.932 138.911C84.0839 138.557 84.2864 138.281 84.5396 138.083C84.7953 137.883 85.0738 137.744 85.3751 137.666C85.6789 137.585 85.9777 137.544 86.2714 137.544C86.4587 137.544 86.6739 137.567 86.917 137.613C87.1626 137.656 87.3993 137.745 87.6271 137.882C87.8575 138.019 88.0487 138.225 88.2006 138.501C88.3525 138.777 88.4285 139.147 88.4285 139.61V143.453H87.5322V142.663H87.4866C87.4259 142.79 87.3246 142.926 87.1828 143.07C87.041 143.214 86.8524 143.337 86.617 143.438C86.3815 143.539 86.0941 143.59 85.7549 143.59ZM85.8916 142.785C86.2461 142.785 86.5448 142.715 86.7879 142.576C87.0334 142.437 87.2183 142.257 87.3423 142.037C87.4689 141.817 87.5322 141.585 87.5322 141.342V140.522C87.4942 140.567 87.4107 140.609 87.2816 140.647C87.155 140.682 87.0081 140.714 86.841 140.742C86.6765 140.767 86.5157 140.79 86.3587 140.81C86.2043 140.828 86.079 140.843 85.9827 140.856C85.7498 140.886 85.5321 140.936 85.3295 141.004C85.1295 141.07 84.9675 141.17 84.8434 141.304C84.7219 141.436 84.6611 141.615 84.6611 141.843C84.6611 142.155 84.7763 142.39 85.0067 142.55C85.2397 142.707 85.5346 142.785 85.8916 142.785ZM89.8504 143.453V137.62H90.7163V138.532H90.7923C90.9138 138.22 91.11 137.978 91.3809 137.806C91.6518 137.632 91.9771 137.544 92.3569 137.544C92.7417 137.544 93.062 137.632 93.3177 137.806C93.576 137.978 93.7772 138.22 93.9216 138.532H93.9823C94.1317 138.23 94.3558 137.991 94.6545 137.814C94.9533 137.634 95.3115 137.544 95.7293 137.544C96.2508 137.544 96.6774 137.707 97.0091 138.034C97.3407 138.358 97.5066 138.863 97.5066 139.549V143.453H96.6103V139.549C96.6103 139.119 96.4926 138.811 96.2571 138.627C96.0217 138.442 95.7444 138.349 95.4254 138.349C95.0153 138.349 94.6976 138.473 94.4722 138.721C94.2469 138.967 94.1342 139.278 94.1342 139.656V143.453H93.2228V139.458C93.2228 139.127 93.1152 138.859 92.9 138.657C92.6848 138.452 92.4075 138.349 92.0683 138.349C91.8354 138.349 91.6176 138.411 91.4151 138.535C91.2151 138.659 91.053 138.832 90.929 139.052C90.8074 139.27 90.7467 139.522 90.7467 139.808V143.453H89.8504ZM101.377 143.575C100.815 143.575 100.33 143.451 99.9226 143.203C99.5175 142.952 99.2048 142.603 98.9846 142.155C98.7668 141.704 98.658 141.18 98.658 140.582C98.658 139.985 98.7668 139.458 98.9846 139.002C99.2048 138.544 99.5112 138.187 99.9036 137.932C100.299 137.673 100.759 137.544 101.286 137.544C101.59 137.544 101.89 137.595 102.186 137.696C102.482 137.797 102.752 137.962 102.995 138.19C103.238 138.415 103.432 138.714 103.576 139.086C103.72 139.458 103.792 139.916 103.792 140.461V140.841H99.296V140.066H102.881C102.881 139.737 102.815 139.443 102.684 139.185C102.554 138.927 102.37 138.723 102.129 138.573C101.891 138.424 101.61 138.349 101.286 138.349C100.929 138.349 100.62 138.438 100.359 138.615C100.101 138.79 99.9023 139.018 99.7631 139.299C99.6238 139.58 99.5542 139.881 99.5542 140.203V140.719C99.5542 141.16 99.6302 141.533 99.7821 141.839C99.9365 142.143 100.15 142.375 100.424 142.534C100.697 142.691 101.015 142.77 101.377 142.77C101.613 142.77 101.825 142.737 102.015 142.671C102.208 142.603 102.373 142.501 102.513 142.367C102.652 142.231 102.759 142.061 102.835 141.858L103.701 142.101C103.61 142.395 103.457 142.653 103.242 142.876C103.027 143.096 102.761 143.269 102.444 143.393C102.128 143.514 101.772 143.575 101.377 143.575Z" fill="white"/>
<path d="M16.1356 155.213L17.5091 157.725L18.9047 155.213H20.6017L18.5503 158.615L20.6371 162.018H18.949L17.5091 159.568L16.0824 162.018H14.381L16.4546 158.615L14.4342 155.213H16.1356ZM23.1537 155.213L24.5272 157.725L25.9229 155.213H27.6198L25.5684 158.615L27.6552 162.018H25.9672L24.5272 159.568L23.1005 162.018H21.3992L23.4727 158.615L21.4523 155.213H23.1537ZM30.1718 155.213L31.5453 157.725L32.941 155.213H34.6379L32.5865 158.615L34.6734 162.018H32.9853L31.5453 159.568L30.1187 162.018H28.4173L30.4908 158.615L28.4705 155.213H30.1718ZM37.19 155.213L38.5635 157.725L39.9591 155.213H41.6561L39.6047 158.615L41.6915 162.018H40.0034L38.5635 159.568L37.1368 162.018H35.4354L37.509 158.615L35.4886 155.213H37.19ZM44.2081 155.213L45.5816 157.725L46.9773 155.213H48.6742L46.6228 158.615L48.7096 162.018H47.0216L45.5816 159.568L44.1549 162.018H42.4536L44.5271 158.615L42.5067 155.213H44.2081ZM54.321 155.213L55.6945 157.725L57.0902 155.213H58.7871L56.7357 158.615L58.8226 162.018H57.1345L55.6945 159.568L54.2679 162.018H52.5665L54.6401 158.615L52.6197 155.213H54.321ZM61.3392 155.213L62.7127 157.725L64.1083 155.213H65.8053L63.7539 158.615L65.8407 162.018H64.1526L62.7127 159.568L61.286 162.018H59.5846L61.6582 158.615L59.6378 155.213H61.3392ZM68.3573 155.213L69.7308 157.725L71.1265 155.213H72.8234L70.772 158.615L72.8588 162.018H71.1708L69.7308 159.568L68.3041 162.018H66.6028L68.6763 158.615L66.656 155.213H68.3573ZM75.3755 155.213L76.749 157.725L78.1446 155.213H79.8415L77.7902 158.615L79.877 162.018H78.1889L76.749 159.568L75.3223 162.018H73.6209L75.6945 158.615L73.6741 155.213H75.3755ZM82.3936 155.213L83.7671 157.725L85.1627 155.213H86.8597L84.8083 158.615L86.8951 162.018H85.207L83.7671 159.568L82.3404 162.018H80.6391L82.7126 158.615L80.6922 155.213H82.3936ZM89.4117 155.213L90.7852 157.725L92.1809 155.213H93.8778L91.8264 158.615L93.9133 162.018H92.2252L90.7852 159.568L89.3586 162.018H87.6572L89.7307 158.615L87.7104 155.213H89.4117Z" fill="white"/>
<path d="M131.442 143.453V135.676H136.136V136.511H132.384V139.139H135.893V139.975H132.384V142.618H136.197V143.453H131.442ZM138.166 137.62L139.564 140.005L140.961 137.62H141.994L140.111 140.537L141.994 143.453H140.961L139.564 141.19L138.166 143.453H137.133L138.987 140.537L137.133 137.62H138.166ZM143.059 145.641V137.62H143.925V138.547H144.032C144.097 138.445 144.189 138.316 144.305 138.159C144.424 138 144.594 137.858 144.814 137.734C145.037 137.607 145.338 137.544 145.718 137.544C146.209 137.544 146.642 137.667 147.017 137.913C147.391 138.158 147.684 138.506 147.894 138.957C148.104 139.408 148.209 139.939 148.209 140.552C148.209 141.17 148.104 141.705 147.894 142.158C147.684 142.609 147.393 142.958 147.02 143.207C146.648 143.452 146.219 143.575 145.733 143.575C145.358 143.575 145.058 143.513 144.833 143.389C144.608 143.262 144.434 143.119 144.313 142.96C144.191 142.798 144.097 142.663 144.032 142.557H143.956V145.641H143.059ZM143.94 140.537C143.94 140.977 144.005 141.366 144.134 141.703C144.263 142.037 144.452 142.299 144.7 142.489C144.948 142.676 145.252 142.77 145.611 142.77C145.986 142.77 146.299 142.671 146.549 142.474C146.803 142.274 146.993 142.005 147.119 141.668C147.248 141.329 147.313 140.952 147.313 140.537C147.313 140.127 147.25 139.757 147.123 139.428C146.999 139.096 146.81 138.834 146.557 138.642C146.306 138.447 145.991 138.349 145.611 138.349C145.247 138.349 144.941 138.442 144.692 138.627C144.444 138.809 144.257 139.065 144.13 139.394C144.004 139.72 143.94 140.101 143.94 140.537ZM149.362 143.453V137.62H150.259V143.453H149.362ZM149.818 136.648C149.643 136.648 149.493 136.588 149.366 136.469C149.242 136.35 149.18 136.207 149.18 136.04C149.18 135.873 149.242 135.73 149.366 135.611C149.493 135.492 149.643 135.433 149.818 135.433C149.993 135.433 150.142 135.492 150.266 135.611C150.393 135.73 150.456 135.873 150.456 136.04C150.456 136.207 150.393 136.35 150.266 136.469C150.142 136.588 149.993 136.648 149.818 136.648ZM151.686 143.453V137.62H152.552V138.501H152.613C152.719 138.213 152.912 137.978 153.19 137.799C153.469 137.619 153.783 137.529 154.132 137.529C154.198 137.529 154.28 137.53 154.379 137.533C154.478 137.535 154.552 137.539 154.603 137.544V138.456C154.573 138.448 154.503 138.437 154.394 138.421C154.288 138.404 154.175 138.395 154.056 138.395C153.772 138.395 153.519 138.454 153.296 138.573C153.076 138.69 152.902 138.852 152.772 139.059C152.646 139.265 152.583 139.499 152.583 139.762V143.453H151.686ZM157.72 143.575C157.158 143.575 156.673 143.451 156.265 143.203C155.86 142.952 155.547 142.603 155.327 142.155C155.109 141.704 155 141.18 155 140.582C155 139.985 155.109 139.458 155.327 139.002C155.547 138.544 155.854 138.187 156.246 137.932C156.641 137.673 157.102 137.544 157.628 137.544C157.932 137.544 158.232 137.595 158.528 137.696C158.825 137.797 159.094 137.962 159.337 138.19C159.58 138.415 159.774 138.714 159.918 139.086C160.063 139.458 160.135 139.916 160.135 140.461V140.841H155.638V140.066H159.223C159.223 139.737 159.158 139.443 159.026 139.185C158.897 138.927 158.712 138.723 158.472 138.573C158.234 138.424 157.953 138.349 157.628 138.349C157.271 138.349 156.963 138.438 156.702 138.615C156.444 138.79 156.245 139.018 156.106 139.299C155.966 139.58 155.897 139.881 155.897 140.203V140.719C155.897 141.16 155.973 141.533 156.125 141.839C156.279 142.143 156.493 142.375 156.766 142.534C157.04 142.691 157.358 142.77 157.72 142.77C157.955 142.77 158.168 142.737 158.358 142.671C158.55 142.603 158.716 142.501 158.855 142.367C158.994 142.231 159.102 142.061 159.178 141.858L160.044 142.101C159.953 142.395 159.799 142.653 159.584 142.876C159.369 143.096 159.103 143.269 158.787 143.393C158.47 143.514 158.115 143.575 157.72 143.575ZM163.487 143.575C163.001 143.575 162.572 143.452 162.2 143.207C161.827 142.958 161.536 142.609 161.326 142.158C161.116 141.705 161.011 141.17 161.011 140.552C161.011 139.939 161.116 139.408 161.326 138.957C161.536 138.506 161.829 138.158 162.203 137.913C162.578 137.667 163.011 137.544 163.502 137.544C163.882 137.544 164.182 137.607 164.402 137.734C164.625 137.858 164.795 138 164.911 138.159C165.03 138.316 165.123 138.445 165.188 138.547H165.264V135.676H166.161V143.453H165.295V142.557H165.188C165.123 142.663 165.029 142.798 164.907 142.96C164.786 143.119 164.612 143.262 164.387 143.389C164.162 143.513 163.862 143.575 163.487 143.575ZM163.609 142.77C163.968 142.77 164.272 142.676 164.52 142.489C164.768 142.299 164.957 142.037 165.086 141.703C165.215 141.366 165.28 140.977 165.28 140.537C165.28 140.101 165.216 139.72 165.09 139.394C164.963 139.065 164.776 138.809 164.528 138.627C164.28 138.442 163.973 138.349 163.609 138.349C163.229 138.349 162.912 138.447 162.659 138.642C162.409 138.834 162.22 139.096 162.093 139.428C161.969 139.757 161.907 140.127 161.907 140.537C161.907 140.952 161.971 141.329 162.097 141.668C162.226 142.005 162.416 142.274 162.667 142.474C162.92 142.671 163.234 142.77 163.609 142.77ZM173.028 143.453H170.628V135.676H173.135C173.889 135.676 174.535 135.831 175.071 136.143C175.608 136.452 176.02 136.896 176.306 137.476C176.592 138.053 176.735 138.744 176.735 139.549C176.735 140.36 176.59 141.057 176.302 141.642C176.013 142.224 175.593 142.672 175.041 142.986C174.489 143.298 173.818 143.453 173.028 143.453ZM171.57 142.618H172.967C173.611 142.618 174.143 142.494 174.566 142.246C174.989 141.998 175.304 141.644 175.512 141.186C175.72 140.728 175.823 140.182 175.823 139.549C175.823 138.921 175.721 138.381 175.516 137.928C175.311 137.472 175.004 137.123 174.597 136.88C174.189 136.634 173.681 136.511 173.074 136.511H171.57V142.618ZM179.696 143.59C179.326 143.59 178.991 143.52 178.689 143.381C178.388 143.239 178.149 143.036 177.972 142.77C177.794 142.501 177.706 142.177 177.706 141.798C177.706 141.463 177.772 141.192 177.903 140.985C178.035 140.775 178.211 140.61 178.431 140.491C178.651 140.372 178.894 140.284 179.16 140.225C179.429 140.165 179.698 140.116 179.969 140.081C180.324 140.035 180.611 140.001 180.831 139.978C181.054 139.953 181.216 139.911 181.317 139.853C181.421 139.795 181.473 139.694 181.473 139.549V139.519C181.473 139.144 181.371 138.853 181.165 138.646C180.963 138.438 180.655 138.334 180.243 138.334C179.815 138.334 179.479 138.428 179.236 138.615C178.993 138.802 178.822 139.002 178.724 139.215L177.873 138.911C178.025 138.557 178.227 138.281 178.48 138.083C178.736 137.883 179.015 137.744 179.316 137.666C179.62 137.585 179.919 137.544 180.212 137.544C180.4 137.544 180.615 137.567 180.858 137.613C181.103 137.656 181.34 137.745 181.568 137.882C181.798 138.019 181.99 138.225 182.141 138.501C182.293 138.777 182.369 139.147 182.369 139.61V143.453H181.473V142.663H181.428C181.367 142.79 181.265 142.926 181.124 143.07C180.982 143.214 180.793 143.337 180.558 143.438C180.322 143.539 180.035 143.59 179.696 143.59ZM179.832 142.785C180.187 142.785 180.486 142.715 180.729 142.576C180.974 142.437 181.159 142.257 181.283 142.037C181.41 141.817 181.473 141.585 181.473 141.342V140.522C181.435 140.567 181.352 140.609 181.222 140.647C181.096 140.682 180.949 140.714 180.782 140.742C180.617 140.767 180.457 140.79 180.3 140.81C180.145 140.828 180.02 140.843 179.924 140.856C179.691 140.886 179.473 140.936 179.27 141.004C179.07 141.07 178.908 141.17 178.784 141.304C178.663 141.436 178.602 141.615 178.602 141.843C178.602 142.155 178.717 142.39 178.948 142.55C179.181 142.707 179.475 142.785 179.832 142.785ZM186.328 137.62V138.38H183.305V137.62H186.328ZM184.186 136.223H185.083V141.782C185.083 142.036 185.119 142.225 185.193 142.352C185.269 142.476 185.365 142.56 185.481 142.603C185.6 142.643 185.726 142.663 185.857 142.663C185.956 142.663 186.037 142.658 186.1 142.648C186.164 142.636 186.214 142.625 186.252 142.618L186.434 143.423C186.374 143.446 186.289 143.469 186.18 143.491C186.071 143.517 185.933 143.529 185.766 143.529C185.513 143.529 185.265 143.475 185.022 143.366C184.781 143.257 184.581 143.091 184.422 142.869C184.265 142.646 184.186 142.365 184.186 142.025V136.223ZM189.846 143.575C189.283 143.575 188.799 143.451 188.391 143.203C187.986 142.952 187.673 142.603 187.453 142.155C187.235 141.704 187.126 141.18 187.126 140.582C187.126 139.985 187.235 139.458 187.453 139.002C187.673 138.544 187.98 138.187 188.372 137.932C188.767 137.673 189.228 137.544 189.754 137.544C190.058 137.544 190.358 137.595 190.654 137.696C190.951 137.797 191.22 137.962 191.463 138.19C191.706 138.415 191.9 138.714 192.044 139.086C192.189 139.458 192.261 139.916 192.261 140.461V140.841H187.764V140.066H191.349C191.349 139.737 191.284 139.443 191.152 139.185C191.023 138.927 190.838 138.723 190.597 138.573C190.359 138.424 190.078 138.349 189.754 138.349C189.397 138.349 189.088 138.438 188.828 138.615C188.569 138.79 188.371 139.018 188.231 139.299C188.092 139.58 188.023 139.881 188.023 140.203V140.719C188.023 141.16 188.099 141.533 188.25 141.839C188.405 142.143 188.619 142.375 188.892 142.534C189.166 142.691 189.483 142.77 189.846 142.77C190.081 142.77 190.294 142.737 190.484 142.671C190.676 142.603 190.842 142.501 190.981 142.367C191.12 142.231 191.228 142.061 191.304 141.858L192.17 142.101C192.079 142.395 191.925 142.653 191.71 142.876C191.495 143.096 191.229 143.269 190.913 143.393C190.596 143.514 190.24 143.575 189.846 143.575Z" fill="white"/>
<path d="M132.636 155.213L134.009 157.725L135.405 155.213H137.102L135.05 158.615L137.137 162.018H135.449L134.009 159.568L132.582 162.018H130.881L132.955 158.615L130.934 155.213H132.636ZM139.654 155.213L141.027 157.725L142.423 155.213H144.12L142.068 158.615L144.155 162.018H142.467L141.027 159.568L139.601 162.018H137.899L139.973 158.615L137.952 155.213H139.654ZM149.064 152.519L146.14 163.383H144.736L147.66 152.519H149.064ZM151.399 155.213L152.773 157.725L154.168 155.213H155.865L153.814 158.615L155.901 162.018H154.213L152.773 159.568L151.346 162.018H149.645L151.718 158.615L149.698 155.213H151.399ZM158.417 155.213L159.791 157.725L161.187 155.213H162.884L160.832 158.615L162.919 162.018H161.231L159.791 159.568L158.364 162.018H156.663L158.736 158.615L156.716 155.213H158.417Z" fill="white"/>
<ellipse cx="231.542" cy="149.453" rx="12.5417" ry="12.5" fill="#E33A24"/>
<ellipse cx="249.458" cy="149.453" rx="12.5417" ry="12.5" fill="#F8CB2E" fill-opacity="0.8"/>
<g clip-path="url(#clip1_106_1306)">
<path d="M450.806 145.393L294.449 -45.6803C293.344 -57.1526 286.378 -64.8198 276.32 -67.8341L294.449 -45.6803C298.387 -4.79317 227.877 84.4256 -42.4474 183.59C-388.621 310.579 68.1714 413.185 132.038 396.817L450.806 145.393Z" fill="white" fill-opacity="0.03"/>
</g>
</g>
<defs>
<filter id="filter0_b_106_1306" x="-8.27979" y="28.0907" width="80.5596" height="69.5596" filterUnits="userSpaceOnUse" color-interpolation-filters="sRGB">
<feFlood flood-opacity="0" result="BackgroundImageFix"/>
<feGaussianBlur in="BackgroundImageFix" stdDeviation="11.1399"/>
<feComposite in2="SourceAlpha" operator="in" result="effect1_backgroundBlur_106_1306"/>
<feBlend mode="normal" in="SourceGraphic" in2="effect1_backgroundBlur_106_1306" result="shape"/>
</filter>
<linearGradient id="paint0_linear_106_1306" x1="8.94002e-06" y1="-4.72002" x2="259.673" y2="78.0834" gradientUnits="userSpaceOnUse">
<stop stop-color="#1F1F1F"/>
<stop offset="1" stop-color="#0A0A0A"/>
</linearGradient>
<clipPath id="clip0_106_1306">
<rect width="276" height="177" rx="8" fill="white"/>
</clipPath>
<clipPath id="clip1_106_1306">
<rect width="367" height="229" fill="white" transform="matrix(-1 0 0 1 303 -26.5)"/>
</clipPath>
</defs>
</svg>
