<?xml version="1.0" encoding="utf-8"?>
<!-- Generator: Adobe Illustrator 27.5.0, SVG Export Plug-In . SVG Version: 6.00 Build 0)  -->
<svg version="1.1" xmlns="http://www.w3.org/2000/svg" xmlns:xlink="http://www.w3.org/1999/xlink" x="0px" y="0px"
	 viewBox="0 0 500 500" style="enable-background:new 0 0 500 500;" xml:space="preserve">
<g id="Background_Complete">
	<g>
		<g>
			<g>
				<g>
					<g>
						<path style="fill:#F5F5F5;" d="M105.845,165.21c4.082,20.722-9.445,40.838-30.214,44.932c-20.77,4.093-40.917-9.388-45-30.11
							c-4.084-20.722,9.443-40.838,30.213-44.93C81.614,131.008,101.762,144.489,105.845,165.21z"/>
					</g>
				</g>
			</g>
			<g>
				<g>
					<g>
						<path style="fill:#EBEBEB;" d="M96.897,166.974c3.112,15.79-7.197,31.12-23.025,34.24
							c-15.827,3.119-31.181-7.154-34.292-22.945c-3.111-15.792,7.197-31.122,23.025-34.241
							C78.431,140.91,93.785,151.182,96.897,166.974z"/>
					</g>
				</g>
			</g>
			<g>
				<g>
					<g>
						<g>
							<path style="fill:#E0E0E0;" d="M96.713,166.077c-0.173,0.041-0.543-1.193-1.437-3.297c-0.902-2.089-2.391-5.074-5.037-8.132
								c-1.32-1.522-2.92-3.056-4.821-4.46c-1.91-1.385-4.104-2.662-6.573-3.62c-1.231-0.483-2.523-0.906-3.872-1.214
								c-1.346-0.316-2.741-0.562-4.174-0.67c-1.43-0.112-2.896-0.148-4.376-0.035c-1.479,0.11-2.971,0.328-4.459,0.659
								c-1.484,0.352-2.923,0.807-4.301,1.353c-1.381,0.546-2.684,1.217-3.923,1.943c-1.243,0.724-2.39,1.554-3.463,2.426
								c-1.079,0.866-2.056,1.812-2.953,2.783c-1.802,1.94-3.219,4.048-4.331,6.128c-1.096,2.092-1.865,4.171-2.389,6.118
								c-1.042,3.906-1.078,7.24-0.977,9.513c0.116,2.283,0.322,3.554,0.148,3.592c-0.127,0.032-0.624-1.177-1.015-3.502
								c-0.373-2.312-0.593-5.796,0.304-9.971c0.451-2.079,1.176-4.318,2.271-6.584c1.11-2.254,2.565-4.548,4.456-6.671
								c0.94-1.063,1.972-2.096,3.119-3.047c1.141-0.956,2.367-1.866,3.698-2.66c1.328-0.797,2.731-1.531,4.218-2.128
								c1.485-0.599,3.037-1.093,4.637-1.471c1.605-0.358,3.215-0.59,4.813-0.701c1.598-0.112,3.181-0.063,4.723,0.073
								c1.544,0.133,3.045,0.417,4.488,0.779c1.446,0.354,2.827,0.833,4.137,1.378c2.627,1.084,4.938,2.511,6.922,4.055
								c1.972,1.56,3.604,3.258,4.919,4.931c2.631,3.364,3.955,6.594,4.631,8.837C96.761,164.744,96.841,166.049,96.713,166.077z"/>
						</g>
					</g>
				</g>
			</g>
		</g>
		<g>
			<g>
				<g>
					<g>
						<g>
							<path style="fill:#E0E0E0;" d="M74.848,189.076l1.056,4.978l-4.444,0.941l-1.027-4.843c-4.456,0.666-8.97,0.185-11.819-1.208
								l1.293-5.94c2.571,1.174,6.025,1.694,9.292,1.327l-1.575-7.422c-5.187-0.152-11.046-0.628-12.394-6.984
								c-0.999-4.711,1.565-9.48,8.416-11.769l-1.046-4.934l4.444-0.943l1.027,4.845c3.39-0.44,6.821-0.24,9.595,0.797l-1.062,5.938
								c-2.54-0.808-5.011-1.073-7.29-0.87l1.603,7.556c5.177,0.108,10.949,0.604,12.277,6.869
								C84.176,182.036,81.646,186.752,74.848,189.076z M66.239,170.375l-1.34-6.31c-2.241,1.033-2.901,2.52-2.59,3.986
								C62.639,169.606,64.151,170.169,66.239,170.375z M76.155,179.465c-0.33-1.557-1.798-2.126-3.851-2.389l1.301,6.133
								C75.723,182.249,76.456,180.887,76.155,179.465z"/>
						</g>
					</g>
				</g>
			</g>
		</g>
	</g>
	<g>
		<g>
			<g>
				<g>
					<g>
						<path style="fill:#F5F5F5;" d="M208.603,301.124c2.388,12.12-5.524,23.886-17.672,26.28
							c-12.148,2.394-23.932-5.491-26.321-17.611c-2.389-12.12,5.523-23.886,17.672-26.28
							C194.43,281.119,206.215,289.004,208.603,301.124z"/>
					</g>
				</g>
			</g>
			<g>
				<g>
					<g>
						<path style="fill:#EBEBEB;" d="M203.369,302.155c1.82,9.236-4.209,18.202-13.467,20.027
							c-9.257,1.824-18.238-4.185-20.058-13.42c-1.82-9.237,4.21-18.203,13.467-20.027
							C192.569,286.91,201.549,292.919,203.369,302.155z"/>
					</g>
				</g>
			</g>
			<g>
				<g>
					<g>
						<g>
							<path style="fill:#E0E0E0;" d="M203.262,301.631c-0.101,0.024-0.317-0.698-0.84-1.929c-0.528-1.222-1.399-2.967-2.946-4.757
								c-0.772-0.89-1.708-1.788-2.819-2.609c-1.117-0.81-2.4-1.557-3.844-2.117c-0.72-0.283-1.476-0.53-2.265-0.71
								c-0.787-0.185-1.603-0.329-2.441-0.392c-0.837-0.066-1.694-0.087-2.56-0.021c-0.865,0.064-1.738,0.192-2.608,0.385
								c-0.868,0.206-1.709,0.472-2.516,0.792c-0.808,0.319-1.57,0.712-2.294,1.136c-0.727,0.423-1.398,0.909-2.026,1.419
								c-0.631,0.507-1.203,1.06-1.727,1.628c-1.054,1.135-1.883,2.367-2.533,3.584c-0.641,1.224-1.091,2.44-1.397,3.578
								c-0.61,2.284-0.631,4.235-0.571,5.564c0.068,1.335,0.188,2.079,0.087,2.101c-0.074,0.019-0.365-0.689-0.593-2.048
								c-0.218-1.352-0.347-3.39,0.178-5.832c0.264-1.216,0.688-2.525,1.328-3.851c0.65-1.318,1.5-2.66,2.606-3.902
								c0.55-0.622,1.154-1.226,1.824-1.782c0.667-0.559,1.384-1.091,2.163-1.556c0.777-0.466,1.597-0.896,2.467-1.245
								c0.869-0.35,1.776-0.639,2.712-0.86c0.939-0.21,1.881-0.345,2.815-0.41c0.935-0.066,1.86-0.037,2.763,0.043
								c0.903,0.078,1.781,0.244,2.625,0.456c0.846,0.207,1.654,0.487,2.42,0.806c1.536,0.634,2.888,1.469,4.049,2.372
								c1.154,0.913,2.108,1.905,2.877,2.884c1.539,1.967,2.314,3.857,2.708,5.169C203.289,300.851,203.336,301.614,203.262,301.631
								z"/>
						</g>
					</g>
				</g>
			</g>
		</g>
		<g>
			<g>
				<g>
					<g>
						<g>
							<path style="fill:#E0E0E0;" d="M190.473,315.083l0.618,2.911l-2.599,0.551l-0.601-2.833
								c-2.606,0.389-5.247,0.108-6.913-0.707l0.756-3.475c1.504,0.686,3.524,0.991,5.434,0.776l-0.921-4.341
								c-3.034-0.089-6.461-0.367-7.249-4.085c-0.584-2.755,0.915-5.545,4.923-6.883l-0.612-2.886l2.6-0.552l0.601,2.834
								c1.982-0.258,3.99-0.14,5.612,0.466l-0.621,3.473c-1.486-0.472-2.931-0.628-4.264-0.509l0.938,4.419
								c3.028,0.063,6.404,0.353,7.181,4.018C195.928,310.965,194.449,313.723,190.473,315.083z M185.437,304.145l-0.784-3.691
								c-1.311,0.604-1.697,1.474-1.515,2.332C183.332,303.695,184.216,304.024,185.437,304.145z M191.237,309.461
								c-0.193-0.91-1.051-1.244-2.252-1.397l0.761,3.587C190.985,311.09,191.413,310.293,191.237,309.461z"/>
						</g>
					</g>
				</g>
			</g>
		</g>
	</g>
	<g>
		<path style="fill:#EBEBEB;" d="M438.991,237.424l-1.163,4.832l-4.315-1.038l1.132-4.703c-4.208-1.287-7.985-3.61-9.911-6.036
			l3.639-4.692c1.773,2.115,4.6,4.028,7.633,5.078l1.733-7.205c-4.507-2.317-9.474-5.201-7.989-11.37
			c1.102-4.573,5.367-7.699,12.371-6.835l1.152-4.789l4.314,1.038l-1.132,4.703c3.173,1.037,6.115,2.658,8.124,4.739l-3.434,4.786
			c-1.899-1.78-3.967-3.054-6.06-3.831l-1.766,7.334c4.519,2.274,9.398,5.137,7.934,11.22
			C450.173,235.142,445.961,238.234,438.991,237.424z M439.265,217.318l1.475-6.126c-2.41-0.032-3.618,1.001-3.961,2.424
			C436.416,215.125,437.513,216.257,439.265,217.318z M444.183,229.5c0.363-1.51-0.689-2.63-2.389-3.724l-1.434,5.953
			C442.632,231.774,443.851,230.881,444.183,229.5z"/>
	</g>
	<g>
		<path style="fill:#EBEBEB;" d="M453.01,123.388l0.379,8.576l-7.657,0.338l-0.368-8.346c-7.602-0.125-14.979-2.178-19.336-5.284
			l3.798-9.528c3.954,2.665,9.558,4.488,15.095,4.781l-0.564-12.788c-8.591-1.692-18.211-4.106-18.694-15.056
			c-0.358-8.116,5.232-15.344,17.268-17.257l-0.375-8.499l7.657-0.338l0.368,8.346c5.763,0.206,11.42,1.491,15.75,3.985
			l-3.412,9.587c-4.004-2.048-8.043-3.174-11.892-3.464l0.575,13.017c8.587,1.616,18.053,4.036,18.529,14.832
			C470.482,114.255,464.969,121.402,453.01,123.388z M443.859,89.883l-0.479-10.873c-4.019,1.098-5.528,3.39-5.417,5.917
			C438.081,87.606,440.443,88.959,443.859,89.883z M457.844,107.755c-0.118-2.68-2.402-4.037-5.745-5.041l0.466,10.567
			C456.355,112.27,457.952,110.205,457.844,107.755z"/>
	</g>
</g>
<g id="Background_Simple" style="display:none;">
	<path style="display:inline;fill:#EBEBEB;" d="M475.006,236.235c-4.054-20.04-15.815-34.72-33.947-44.168
		c-19.279-10.046-44.475-13.971-65.347-7.889c-20.872,6.082-41.454,14.821-63.192,15.106c-29.883,0.392-57.645-15.29-81.255-33.612
		c-23.61-18.322-44.971-39.864-71.001-54.546c-26.03-14.683-58.861-21.666-85.742-8.606c-20.681,10.047-39.276,29.598-44.8,51.917
		c-5.524,22.319-8.175,46.511-2.576,72.783c18.913,88.733,120.885,163.206,212.927,165.426l101.687-12.854
		c43.402-5.505,86.168-21.225,109.054-44.9C473.701,311.216,481.535,268.509,475.006,236.235z"/>
</g>
<g id="Floor">
	<g>
		<g>
			<path style="fill:#263238;" d="M481.976,453.36c0,0.144-103.868,0.26-231.965,0.26c-128.142,0-231.987-0.117-231.987-0.26
				c0-0.144,103.845-0.26,231.987-0.26C378.108,453.1,481.976,453.216,481.976,453.36z"/>
		</g>
	</g>
</g>
<g id="Screen">
	<g>
		<g>
			<g>
				<path style="fill:#FFFFFF;" d="M407.898,289.713H92.148c-3.982,0-7.21-3.228-7.21-7.21V49.245c0-3.982,3.228-7.21,7.21-7.21
					h315.75c3.982,0,7.21,3.228,7.21,7.21v233.258C415.108,286.485,411.88,289.713,407.898,289.713z"/>
			</g>
			<g>
				<g>
					<path style="fill:#263238;" d="M407.898,289.713c-0.017-0.057,1.046,0.127,2.859-0.622c0.879-0.396,1.936-1.067,2.813-2.214
						c0.895-1.122,1.531-2.766,1.485-4.667c-0.011-7.62-0.028-18.85-0.049-33.311c-0.02-28.933-0.048-70.79-0.083-122.512
						c-0.005-12.931-0.011-26.479-0.017-40.595c-0.003-7.058-0.005-14.258-0.008-21.595c-0.001-3.668-0.002-7.37-0.004-11.106
						c0-0.934-0.001-1.87-0.001-2.808c0.004-0.947,0.016-1.861-0.22-2.749c-0.439-1.775-1.619-3.36-3.208-4.298
						c-0.791-0.472-1.679-0.784-2.595-0.91c-0.907-0.119-1.88-0.061-2.835-0.075c-1.917,0-3.842,0.001-5.775,0.002
						c-3.866,0.001-7.763,0.002-11.692,0.003c-7.857,0.002-15.838,0.004-23.938,0.006c-16.199,0.004-32.871,0.007-49.967,0.011
						c-68.387,0.006-143.572,0.013-222.489,0.021c-2.388-0.017-4.728,1.276-5.948,3.325c-0.63,1.006-0.974,2.179-1.015,3.361
						c-0.027,1.208-0.008,2.449-0.014,3.671c0,4.904,0,9.793,0,14.665c0,9.745-0.001,19.426-0.001,29.036
						c-0.001,19.22-0.003,38.159-0.004,56.768c-0.005,37.218-0.01,73.118-0.015,107.317c-0.001,4.275-0.002,8.523-0.003,12.744
						c0,2.111-0.001,4.214-0.001,6.311c0.002,1.047,0.004,2.092,0.006,3.135c0.018,1.011,0.259,2.014,0.7,2.919
						c0.867,1.823,2.568,3.211,4.512,3.7c0.967,0.27,1.977,0.231,3.018,0.233c1.031,0,2.06,0,3.087,0.001
						c4.108,0.001,8.188,0.002,12.239,0.003c16.201,0.004,31.928,0.009,47.135,0.013c30.413,0.012,58.742,0.022,84.604,0.032
						c51.721,0.035,93.576,0.063,122.505,0.083c14.46,0.021,25.688,0.038,33.306,0.049c3.804,0.011,6.706,0.02,8.662,0.026
						C406.899,289.695,407.898,289.713,407.898,289.713s-1,0.018-2.951,0.027c-1.956,0.006-4.858,0.015-8.662,0.026
						c-7.618,0.011-18.847,0.028-33.306,0.049c-28.929,0.02-70.784,0.048-122.505,0.083c-25.862,0.01-54.191,0.02-84.604,0.032
						c-15.207,0.004-30.934,0.009-47.135,0.013c-4.05,0.001-8.13,0.002-12.239,0.003c-1.027,0-2.056,0-3.087,0.001
						c-1.014-0.002-2.097,0.041-3.135-0.246c-2.075-0.522-3.889-2-4.817-3.946c-0.471-0.966-0.729-2.038-0.749-3.116
						c-0.002-1.046-0.005-2.094-0.007-3.144c-0.001-2.097-0.001-4.2-0.001-6.311c-0.001-4.221-0.002-8.469-0.002-12.744
						c-0.005-34.199-0.01-70.098-0.015-107.317c-0.001-18.609-0.003-37.548-0.004-56.768c0-9.61-0.001-19.291-0.001-29.036
						c0-4.872,0-9.761,0-14.665c0.006-1.23-0.014-2.444,0.014-3.69c0.044-1.271,0.415-2.533,1.091-3.614
						c1.31-2.201,3.83-3.593,6.392-3.574c78.917,0.007,154.102,0.014,222.489,0.021c17.097,0.004,33.768,0.007,49.967,0.011
						c8.099,0.002,16.081,0.004,23.938,0.006c3.929,0.001,7.826,0.002,11.692,0.003c1.933,0.001,3.858,0.001,5.775,0.002
						c0.959,0.016,1.907-0.046,2.895,0.081c0.973,0.135,1.917,0.467,2.757,0.969c1.686,0.997,2.938,2.679,3.402,4.564
						c0.251,0.942,0.236,1.929,0.231,2.853c0,0.938-0.001,1.874-0.001,2.808c-0.001,3.736-0.003,7.438-0.004,11.106
						c-0.003,7.336-0.005,14.537-0.008,21.595c-0.006,14.116-0.012,27.664-0.017,40.595c-0.035,51.721-0.063,93.579-0.083,122.512
						c-0.021,14.461-0.038,25.691-0.049,33.311c0.038,1.92-0.616,3.588-1.527,4.715c-0.893,1.154-1.965,1.823-2.855,2.214
						c-0.903,0.39-1.649,0.48-2.136,0.548C408.148,289.71,407.898,289.713,407.898,289.713z"/>
				</g>
			</g>
		</g>
		<g>
			<path style="fill:#E8505B;" d="M391.327,145.199H262.986c-4.536,0-8.213-3.677-8.213-8.214V87.961
				c0-4.536,3.677-8.214,8.213-8.214h128.341c4.536,0,8.214,3.677,8.214,8.214v49.025
				C399.54,141.522,395.863,145.199,391.327,145.199z"/>
		</g>
		<g style="opacity:0.2;">
			<g>
				<path style="fill:#FFFFFF;" d="M332.89,109.732v2.596h-2.318v-2.526c-2.294-0.139-4.496-0.857-5.771-1.854l1.274-2.828
					c1.159,0.858,2.828,1.483,4.496,1.646v-3.871c-2.572-0.625-5.446-1.483-5.446-4.798c0-2.456,1.784-4.566,5.446-4.983V90.54
					h2.318v2.526c1.738,0.139,3.431,0.603,4.705,1.414l-1.159,2.851c-1.182-0.672-2.387-1.066-3.546-1.205v3.94
					c2.572,0.603,5.4,1.461,5.4,4.729C338.291,107.205,336.529,109.291,332.89,109.732z M330.572,99.487v-3.291
					c-1.229,0.278-1.715,0.95-1.715,1.715C328.857,98.722,329.552,99.162,330.572,99.487z M334.559,105.073
					c0-0.812-0.673-1.252-1.669-1.6v3.199C334.049,106.417,334.559,105.815,334.559,105.073z"/>
			</g>
		</g>
		<g style="opacity:0.2;">
			<g>
				<path style="fill:#FFFFFF;" d="M343.998,126.099v2.01h-1.794v-1.956c-1.776-0.107-3.482-0.664-4.468-1.436l0.986-2.189
					c0.897,0.664,2.19,1.148,3.482,1.274v-2.997c-1.992-0.484-4.217-1.148-4.217-3.715c0-1.902,1.382-3.535,4.217-3.858v-1.992
					h1.794v1.956c1.346,0.107,2.656,0.466,3.643,1.095l-0.896,2.207c-0.915-0.521-1.849-0.826-2.746-0.933v3.05
					c1.992,0.467,4.182,1.131,4.182,3.661C348.179,124.142,346.815,125.758,343.998,126.099z M342.204,118.167v-2.548
					c-0.951,0.215-1.328,0.736-1.328,1.328C340.876,117.575,341.414,117.916,342.204,118.167z M345.29,122.492
					c0-0.628-0.521-0.969-1.292-1.238v2.477C344.895,123.533,345.29,123.066,345.29,122.492z"/>
			</g>
		</g>
		<g>
			<g>
				<g>
					<g>
						<path style="fill:#FFFFFF;" d="M357.742,107.333c0.013,0.003,0.024,0.143,0.035,0.411c0.007,0.31,0.017,0.697,0.028,1.175
							c0.009,1.079,0.021,2.562,0.037,4.414c-0.002,3.832-0.004,9.177-0.006,15.484l-0.049-0.145
							c0.727,0.768,1.89,1.266,3.047,1.564c1.179,0.299,2.438,0.427,3.725,0.428c2.537,0.003,5.311-0.62,7.468-2.235l-0.09,0.197
							v-0.019c0.018-7.922,0.034-15.262,0.047-21.274l0.015,0.079c-0.224-0.438-0.698-0.83-1.152-1.109
							c-0.471-0.286-0.981-0.481-1.484-0.65c-1.019-0.308-2.031-0.455-2.985-0.517c-1.91-0.126-3.584,0.004-4.918,0.276
							c-1.333,0.288-2.313,0.749-2.9,1.173c-0.294,0.211-0.498,0.4-0.626,0.537C357.807,107.26,357.752,107.336,357.742,107.333
							c-0.022-0.007,0.156-0.384,0.741-0.85c0.578-0.468,1.569-0.979,2.923-1.308c1.355-0.314,3.05-0.479,4.993-0.382
							c0.972,0.048,2.011,0.182,3.077,0.49c1.036,0.348,2.211,0.778,2.918,1.971l0.015,0.026l0,0.054
							c0.013,6.011,0.03,13.351,0.047,21.274v0.019v0.13l-0.09,0.067c-2.342,1.753-5.175,2.347-7.81,2.349
							c-1.319-0.005-2.617-0.141-3.848-0.459c-1.223-0.339-2.402-0.799-3.297-1.753l-0.05-0.053l0.001-0.092
							c0.081-6.327,0.15-11.688,0.2-15.532c0.04-1.845,0.072-3.323,0.096-4.398c0.018-0.472,0.032-0.854,0.044-1.16
							C357.716,107.463,357.729,107.329,357.742,107.333z"/>
					</g>
				</g>
				<g>
					<g>
						<path style="fill:#FFFFFF;" d="M372.197,107.369c0.03,0.045-0.628,0.619-1.895,1.252c-1.26,0.652-3.227,1.106-5.374,1.079
							c-2.135,0.02-4.116-0.319-5.399-0.942c-1.286-0.597-1.957-1.153-1.929-1.199c0.043-0.079,0.792,0.368,2.069,0.858
							c1.272,0.513,3.154,0.779,5.26,0.762c2.101,0.023,3.966-0.351,5.224-0.895C371.416,107.758,372.151,107.293,372.197,107.369z"
							/>
					</g>
				</g>
				<g>
					<g>
						<path style="fill:#FFFFFF;" d="M372.197,112.683c0.03,0.045-0.628,0.619-1.895,1.252c-1.26,0.652-3.227,1.106-5.374,1.079
							c-2.135,0.02-4.116-0.319-5.399-0.942c-1.286-0.597-1.957-1.153-1.929-1.198c0.043-0.079,0.792,0.368,2.069,0.858
							c1.272,0.513,3.154,0.779,5.26,0.762c2.101,0.023,3.966-0.35,5.224-0.895C371.416,113.072,372.151,112.607,372.197,112.683z"
							/>
					</g>
				</g>
				<g>
					<g>
						<path style="fill:#FFFFFF;" d="M372.197,117.997c0.03,0.045-0.628,0.619-1.895,1.252c-1.26,0.652-3.227,1.106-5.374,1.079
							c-2.135,0.02-4.116-0.319-5.399-0.942c-1.286-0.597-1.957-1.153-1.929-1.198c0.043-0.079,0.792,0.368,2.069,0.858
							c1.272,0.513,3.154,0.778,5.26,0.762c2.101,0.023,3.966-0.35,5.224-0.895C371.416,118.386,372.151,117.921,372.197,117.997z"
							/>
					</g>
				</g>
				<g>
					<g>
						<path style="fill:#FFFFFF;" d="M372.197,123.311c0.03,0.045-0.628,0.619-1.895,1.252c-1.26,0.652-3.227,1.106-5.374,1.079
							c-2.135,0.02-4.116-0.319-5.399-0.942c-1.286-0.597-1.957-1.153-1.929-1.199c0.043-0.079,0.792,0.368,2.069,0.858
							c1.272,0.513,3.154,0.778,5.26,0.762c2.101,0.023,3.966-0.351,5.224-0.895C371.416,123.7,372.151,123.235,372.197,123.311z"/>
					</g>
				</g>
			</g>
			<g>
				<g>
					<g>
						<path style="fill:#FFFFFF;" d="M372.262,96.436c0.014,0.004,0.026,0.218,0.038,0.627c0.008,0.448,0.018,1.044,0.031,1.796
							c0.01,1.608,0.024,3.877,0.041,6.714c-0.002,5.771-0.004,13.842-0.007,23.244l-0.051-0.151
							c0.744,0.785,1.933,1.288,3.104,1.58c1.193,0.299,2.458,0.42,3.744,0.416c2.535-0.012,5.269-0.644,7.384-2.233l-0.09,0.197
							v-0.018c0.026-12.416,0.05-23.726,0.068-32.17l0.014,0.071c-0.235-0.455-0.718-0.853-1.186-1.132
							c-0.479-0.293-1.002-0.485-1.512-0.651c-1.034-0.309-2.057-0.445-3.015-0.509c-1.921-0.112-3.59,0.018-4.913,0.301
							c-1.323,0.295-2.284,0.76-2.858,1.18c-0.287,0.21-0.484,0.398-0.609,0.532C372.324,96.365,372.271,96.439,372.262,96.436
							c-0.009-0.003,0.031-0.094,0.141-0.244c0.113-0.149,0.302-0.354,0.585-0.584c0.566-0.459,1.536-0.968,2.877-1.3
							c1.34-0.321,3.029-0.483,4.979-0.399c0.975,0.051,2.021,0.175,3.098,0.482c1.046,0.341,2.241,0.775,2.955,1.973l0.014,0.023
							l0,0.049c0.018,8.444,0.042,19.754,0.068,32.17v0.018v0.129l-0.09,0.068c-2.299,1.725-5.09,2.332-7.724,2.353
							c-1.318,0.002-2.622-0.124-3.869-0.44c-1.24-0.331-2.445-0.79-3.37-1.769l-0.052-0.055l0.001-0.096
							c0.08-9.423,0.149-17.512,0.199-23.296c0.042-2.83,0.076-5.093,0.1-6.697c0.02-0.745,0.035-1.335,0.047-1.779
							C372.234,96.64,372.248,96.433,372.262,96.436z"/>
					</g>
				</g>
				<g>
					<g>
						<path style="fill:#FFFFFF;" d="M386.717,107.369c0.03,0.045-0.628,0.619-1.895,1.252c-1.26,0.652-3.227,1.106-5.374,1.079
							c-2.135,0.02-4.116-0.319-5.399-0.942c-1.286-0.597-1.957-1.153-1.929-1.199c0.043-0.079,0.792,0.368,2.069,0.858
							c1.272,0.513,3.154,0.779,5.26,0.762c2.101,0.023,3.965-0.351,5.224-0.895C385.936,107.758,386.671,107.293,386.717,107.369z"
							/>
					</g>
				</g>
				<g>
					<g>
						<path style="fill:#FFFFFF;" d="M386.717,112.683c0.03,0.045-0.628,0.619-1.895,1.252c-1.26,0.652-3.227,1.106-5.374,1.079
							c-2.135,0.02-4.116-0.319-5.399-0.942c-1.286-0.597-1.957-1.153-1.929-1.198c0.043-0.079,0.792,0.368,2.069,0.858
							c1.272,0.513,3.154,0.779,5.26,0.762c2.101,0.023,3.965-0.35,5.224-0.895C385.936,113.072,386.671,112.607,386.717,112.683z"
							/>
					</g>
				</g>
				<g>
					<g>
						<path style="fill:#FFFFFF;" d="M386.717,101.923c0.03,0.045-0.628,0.619-1.895,1.252c-1.26,0.652-3.227,1.106-5.374,1.079
							c-2.135,0.02-4.116-0.319-5.399-0.942c-1.286-0.597-1.957-1.153-1.929-1.199c0.043-0.079,0.792,0.368,2.069,0.858
							c1.272,0.513,3.154,0.779,5.26,0.762c2.101,0.023,3.965-0.351,5.224-0.895C385.936,102.312,386.671,101.847,386.717,101.923z"
							/>
					</g>
				</g>
				<g>
					<g>
						<path style="fill:#FFFFFF;" d="M386.717,96.436c0.03,0.045-0.628,0.619-1.895,1.252c-1.26,0.653-3.227,1.106-5.374,1.079
							c-2.135,0.02-4.116-0.319-5.399-0.942c-1.286-0.597-1.957-1.153-1.929-1.199c0.043-0.079,0.792,0.368,2.069,0.858
							c1.272,0.513,3.154,0.779,5.26,0.762c2.101,0.023,3.965-0.351,5.224-0.895C385.936,96.825,386.671,96.36,386.717,96.436z"/>
					</g>
				</g>
				<g>
					<g>
						<path style="fill:#FFFFFF;" d="M386.717,117.997c0.03,0.045-0.628,0.619-1.895,1.252c-1.26,0.652-3.227,1.106-5.374,1.079
							c-2.135,0.02-4.116-0.319-5.399-0.942c-1.286-0.597-1.957-1.153-1.929-1.198c0.043-0.079,0.792,0.368,2.069,0.858
							c1.272,0.513,3.154,0.778,5.26,0.762c2.101,0.023,3.965-0.35,5.224-0.895C385.936,118.386,386.671,117.921,386.717,117.997z"
							/>
					</g>
				</g>
				<g>
					<g>
						<path style="fill:#FFFFFF;" d="M386.717,123.311c0.03,0.045-0.628,0.619-1.895,1.252c-1.26,0.652-3.227,1.106-5.374,1.079
							c-2.135,0.02-4.116-0.319-5.399-0.942c-1.286-0.597-1.957-1.153-1.929-1.199c0.043-0.079,0.792,0.368,2.069,0.858
							c1.272,0.513,3.154,0.778,5.26,0.762c2.101,0.023,3.965-0.351,5.224-0.895C385.936,123.7,386.671,123.235,386.717,123.311z"/>
					</g>
				</g>
			</g>
		</g>
		<g>
			<g>
				<path style="fill:#E0E0E0;" d="M240.385,145.199h-128.33c-4.539,0-8.219-3.68-8.219-8.219V87.966
					c0-4.539,3.68-8.219,8.219-8.219h128.33c4.539,0,8.219,3.68,8.219,8.219v49.014C248.603,141.52,244.924,145.199,240.385,145.199
					z"/>
			</g>
			<g>
				<path style="fill:#EBEBEB;" d="M171.317,109.682v2.596h-2.318v-2.526c-2.295-0.139-4.497-0.857-5.771-1.854l1.275-2.828
					c1.159,0.858,2.828,1.483,4.497,1.646v-3.871c-2.573-0.625-5.447-1.483-5.447-4.798c0-2.456,1.785-4.566,5.447-4.983V90.49
					h2.318v2.526c1.738,0.139,3.43,0.603,4.705,1.414l-1.159,2.851c-1.182-0.672-2.387-1.066-3.546-1.205v3.94
					c2.573,0.603,5.4,1.461,5.4,4.729C176.717,107.155,174.956,109.241,171.317,109.682z M168.999,99.437v-3.291
					c-1.229,0.278-1.715,0.95-1.715,1.715C167.284,98.672,167.979,99.112,168.999,99.437z M172.985,105.023
					c0-0.811-0.672-1.252-1.668-1.6v3.199C172.476,106.367,172.985,105.765,172.985,105.023z"/>
			</g>
			<g>
				<path style="fill:#EBEBEB;" d="M182.426,126.048v2.01h-1.794v-1.956c-1.777-0.107-3.482-0.664-4.468-1.436l0.987-2.189
					c0.898,0.663,2.189,1.148,3.482,1.274v-2.997c-1.992-0.485-4.217-1.148-4.217-3.714c0-1.902,1.382-3.535,4.217-3.858v-1.992
					h1.794v1.956c1.346,0.107,2.656,0.466,3.643,1.094l-0.897,2.208c-0.915-0.521-1.848-0.826-2.745-0.933v3.05
					c1.992,0.467,4.181,1.13,4.181,3.661C186.607,124.092,185.243,125.707,182.426,126.048z M180.632,118.117v-2.548
					c-0.951,0.215-1.328,0.736-1.328,1.328C179.303,117.525,179.842,117.866,180.632,118.117z M183.718,122.441
					c0-0.628-0.521-0.969-1.292-1.238v2.476C183.323,123.482,183.718,123.015,183.718,122.441z"/>
			</g>
			<g>
				<path style="fill:#263238;" d="M116.781,102.889h-1.667v-0.434h3.835v0.434h-1.667v4.309h-0.501V102.889z"/>
				<path style="fill:#263238;" d="M118.914,105.416c0-1.057,0.772-1.809,1.816-1.809c1.043,0,1.809,0.752,1.809,1.809
					c0,1.057-0.766,1.815-1.809,1.815C119.686,107.231,118.914,106.473,118.914,105.416z M122.05,105.416
					c0-0.834-0.562-1.389-1.321-1.389c-0.759,0-1.328,0.556-1.328,1.389c0,0.833,0.569,1.389,1.328,1.389
					C121.488,106.804,122.05,106.249,122.05,105.416z"/>
				<path style="fill:#263238;" d="M125.396,106.981c-0.19,0.169-0.474,0.251-0.752,0.251c-0.671,0-1.044-0.379-1.044-1.037v-2.154
					h-0.637v-0.406h0.637v-0.779h0.481v0.779h1.084v0.406h-1.084v2.127c0,0.42,0.217,0.65,0.617,0.65
					c0.196,0,0.393-0.061,0.528-0.183L125.396,106.981z"/>
				<path style="fill:#263238;" d="M128.959,104.989v2.209h-0.461v-0.556c-0.217,0.366-0.637,0.589-1.226,0.589
					c-0.806,0-1.301-0.42-1.301-1.037c0-0.548,0.353-1.009,1.375-1.009h1.131v-0.217c0-0.61-0.346-0.942-1.009-0.942
					c-0.461,0-0.895,0.163-1.186,0.42l-0.217-0.359c0.359-0.305,0.888-0.481,1.45-0.481
					C128.438,103.607,128.959,104.068,128.959,104.989z M128.478,106.127v-0.583h-1.118c-0.691,0-0.915,0.271-0.915,0.637
					c0,0.413,0.332,0.67,0.901,0.67C127.889,106.852,128.288,106.595,128.478,106.127z"/>
				<path style="fill:#263238;" d="M130.266,102.171h0.481v5.027h-0.481V102.171z"/>
				<path style="fill:#263238;" d="M133.544,104.826c0-1.382,1.057-2.412,2.493-2.412c1.422,0,2.486,1.023,2.486,2.412
					c0,1.389-1.064,2.412-2.486,2.412C134.601,107.238,133.544,106.208,133.544,104.826z M138.022,104.826
					c0-1.131-0.847-1.965-1.985-1.965c-1.145,0-1.999,0.833-1.999,1.965c0,1.131,0.854,1.965,1.999,1.965
					C137.175,106.791,138.022,105.958,138.022,104.826z"/>
				<path style="fill:#263238;" d="M141.34,103.607v0.468c-0.04,0-0.081-0.007-0.115-0.007c-0.746,0-1.199,0.474-1.199,1.314v1.815
					h-0.481v-3.563h0.46v0.698C140.229,103.858,140.683,103.607,141.34,103.607z"/>
				<path style="fill:#263238;" d="M145.425,102.171v5.027h-0.461v-0.705c-0.291,0.481-0.786,0.738-1.375,0.738
					c-1.017,0-1.775-0.738-1.775-1.815c0-1.077,0.759-1.809,1.775-1.809c0.569,0,1.057,0.244,1.354,0.705v-2.141H145.425z
					 M144.95,105.416c0-0.834-0.569-1.389-1.321-1.389c-0.759,0-1.328,0.556-1.328,1.389c0,0.833,0.569,1.389,1.328,1.389
					C144.382,106.804,144.95,106.249,144.95,105.416z"/>
				<path style="fill:#263238;" d="M149.867,105.565h-2.981c0.054,0.745,0.623,1.24,1.403,1.24c0.434,0,0.819-0.156,1.09-0.467
					l0.271,0.312c-0.318,0.379-0.813,0.582-1.375,0.582c-1.111,0-1.87-0.759-1.87-1.815c0-1.057,0.739-1.809,1.741-1.809
					c1.003,0,1.728,0.739,1.728,1.809C149.874,105.456,149.867,105.511,149.867,105.565z M146.886,105.206h2.527
					c-0.061-0.698-0.569-1.186-1.267-1.186C147.456,104.02,146.947,104.508,146.886,105.206z"/>
				<path style="fill:#263238;" d="M152.65,103.607v0.468c-0.04,0-0.081-0.007-0.115-0.007c-0.746,0-1.199,0.474-1.199,1.314v1.815
					h-0.481v-3.563h0.461v0.698C151.54,103.858,151.994,103.607,152.65,103.607z"/>
			</g>
			<g>
				<path style="fill:#263238;" d="M121.584,113.216v14.719h-3.406V115.95h-2.944v-2.733H121.584z"/>
				<path style="fill:#263238;" d="M135.145,125.16v2.775h-11.123v-2.208l5.677-5.361c1.304-1.241,1.535-1.998,1.535-2.713
					c0-1.156-0.799-1.829-2.354-1.829c-1.262,0-2.334,0.483-3.049,1.472l-2.481-1.598c1.135-1.661,3.196-2.733,5.845-2.733
					c3.28,0,5.467,1.682,5.467,4.352c0,1.43-0.399,2.734-2.461,4.647l-3.385,3.196H135.145z"/>
				<path style="fill:#263238;" d="M136.508,120.576c0-4.857,2.692-7.611,6.308-7.611c3.638,0,6.308,2.754,6.308,7.611
					c0,4.857-2.67,7.612-6.308,7.612C139.199,128.187,136.508,125.433,136.508,120.576z M145.697,120.576
					c0-3.343-1.178-4.731-2.881-4.731c-1.682,0-2.859,1.388-2.859,4.731s1.177,4.731,2.859,4.731
					C144.519,125.307,145.697,123.919,145.697,120.576z"/>
			</g>
			<g>
				<g>
					<path style="fill:#F5F5F5;" d="M233.839,127.438h-36.067c-1.752,0-3.172-1.42-3.172-3.172v-20.883
						c0-1.752,1.42-3.172,3.172-3.172h36.067c1.752,0,3.172,1.42,3.172,3.172v20.883
						C237.011,126.018,235.591,127.438,233.839,127.438z"/>
				</g>
				<g>
					<rect x="199.411" y="105.224" style="fill:#E0E0E0;" width="6.915" height="2.514"/>
				</g>
				<g>
					<g>
						<path style="fill:#E0E0E0;" d="M207.763,112.895c0,0.144-2.192,0.261-4.894,0.261c-2.704,0-4.895-0.117-4.895-0.261
							c0-0.144,2.191-0.26,4.895-0.26C205.572,112.635,207.763,112.751,207.763,112.895z"/>
					</g>
				</g>
				<g>
					<g>
						<path style="fill:#E0E0E0;" d="M214.464,112.895c0,0.144-1.096,0.261-2.447,0.261c-1.352,0-2.448-0.117-2.448-0.261
							c0-0.144,1.096-0.26,2.448-0.26C213.368,112.635,214.464,112.751,214.464,112.895z"/>
					</g>
				</g>
				<g>
					<g>
						<path style="fill:#E0E0E0;" d="M232.67,112.895c0,0.144-1.637,0.261-3.656,0.261c-2.02,0-3.656-0.117-3.656-0.261
							c0-0.144,1.637-0.26,3.656-0.26C231.033,112.635,232.67,112.751,232.67,112.895z"/>
					</g>
				</g>
				<g>
					<g>
						<path style="fill:#E0E0E0;" d="M223.63,112.895c0,0.144-1.582,0.261-3.532,0.261c-1.951,0-3.532-0.117-3.532-0.261
							c0-0.144,1.581-0.26,3.532-0.26C222.048,112.635,223.63,112.751,223.63,112.895z"/>
					</g>
				</g>
				<g>
					<g>
						<path style="fill:#E0E0E0;" d="M205.39,118.996c0,0.144-1.619,0.26-3.615,0.26c-1.997,0-3.615-0.116-3.615-0.26
							c0-0.144,1.618-0.26,3.615-0.26C203.772,118.736,205.39,118.853,205.39,118.996z"/>
					</g>
				</g>
				<g>
					<g>
						<path style="fill:#E0E0E0;" d="M211.528,121.594c0,0.144-2.993,0.26-6.684,0.26c-3.692,0-6.684-0.117-6.684-0.26
							s2.992-0.26,6.684-0.26C208.535,121.334,211.528,121.45,211.528,121.594z"/>
					</g>
				</g>
				<g>
					<g>
						<path style="fill:#E0E0E0;" d="M232.67,121.594c0,0.144-1.266,0.26-2.826,0.26c-1.561,0-2.827-0.117-2.827-0.26
							s1.265-0.26,2.827-0.26C231.404,121.334,232.67,121.45,232.67,121.594z"/>
					</g>
				</g>
			</g>
		</g>
		<g>
			<g>
				<path style="fill:#FFFFFF;" d="M267.718,105.187h-1.667v-0.434h3.835v0.434h-1.667v4.309h-0.501V105.187z"/>
				<path style="fill:#FFFFFF;" d="M269.851,107.714c0-1.057,0.772-1.809,1.815-1.809c1.044,0,1.809,0.752,1.809,1.809
					c0,1.057-0.765,1.815-1.809,1.815C270.624,109.529,269.851,108.77,269.851,107.714z M272.988,107.714
					c0-0.833-0.563-1.389-1.321-1.389c-0.759,0-1.328,0.556-1.328,1.389c0,0.834,0.569,1.389,1.328,1.389
					C272.425,109.102,272.988,108.547,272.988,107.714z"/>
				<path style="fill:#FFFFFF;" d="M276.334,109.279c-0.189,0.169-0.474,0.25-0.752,0.25c-0.671,0-1.043-0.379-1.043-1.037v-2.154
					h-0.637v-0.406h0.637v-0.779h0.48v0.779h1.084v0.406h-1.084v2.127c0,0.42,0.217,0.65,0.617,0.65
					c0.196,0,0.393-0.061,0.528-0.183L276.334,109.279z"/>
				<path style="fill:#FFFFFF;" d="M279.896,107.287v2.208h-0.46v-0.556c-0.217,0.366-0.638,0.589-1.227,0.589
					c-0.807,0-1.301-0.42-1.301-1.037c0-0.548,0.353-1.009,1.375-1.009h1.132v-0.217c0-0.61-0.346-0.942-1.01-0.942
					c-0.461,0-0.895,0.163-1.185,0.42l-0.217-0.359c0.359-0.305,0.888-0.481,1.45-0.481
					C279.375,105.905,279.896,106.366,279.896,107.287z M279.416,108.425v-0.583h-1.118c-0.691,0-0.915,0.271-0.915,0.637
					c0,0.413,0.332,0.67,0.901,0.67C278.826,109.15,279.225,108.892,279.416,108.425z"/>
				<path style="fill:#FFFFFF;" d="M281.203,104.469h0.481v5.027h-0.481V104.469z"/>
				<path style="fill:#FFFFFF;" d="M288.139,109.495l-1.084-1.524c-0.122,0.014-0.244,0.021-0.38,0.021h-1.273v1.504h-0.501v-4.742
					h1.774c1.206,0,1.939,0.609,1.939,1.626c0,0.745-0.393,1.267-1.084,1.49l1.158,1.626H288.139z M288.112,106.379
					c0-0.759-0.501-1.192-1.449-1.192h-1.261v2.378h1.261C287.611,107.565,288.112,107.124,288.112,106.379z"/>
				<path style="fill:#FFFFFF;" d="M292.799,107.863h-2.98c0.054,0.745,0.623,1.24,1.402,1.24c0.434,0,0.819-0.156,1.091-0.467
					l0.271,0.312c-0.318,0.379-0.813,0.582-1.375,0.582c-1.111,0-1.87-0.759-1.87-1.815c0-1.057,0.738-1.809,1.741-1.809
					c1.003,0,1.728,0.739,1.728,1.809C292.806,107.754,292.799,107.808,292.799,107.863z M289.819,107.504h2.526
					c-0.061-0.698-0.568-1.186-1.267-1.186C290.387,106.318,289.879,106.806,289.819,107.504z"/>
				<path style="fill:#FFFFFF;" d="M296.714,105.932l-1.585,3.563h-0.495l-1.578-3.563h0.501l1.335,3.035l1.349-3.035H296.714z"/>
				<path style="fill:#FFFFFF;" d="M300.392,107.863h-2.98c0.054,0.745,0.623,1.24,1.402,1.24c0.434,0,0.819-0.156,1.091-0.467
					l0.271,0.312c-0.318,0.379-0.813,0.582-1.375,0.582c-1.111,0-1.87-0.759-1.87-1.815c0-1.057,0.738-1.809,1.741-1.809
					c1.003,0,1.728,0.739,1.728,1.809C300.399,107.754,300.392,107.808,300.392,107.863z M297.412,107.504h2.526
					c-0.06-0.698-0.568-1.186-1.267-1.186C297.98,106.318,297.472,106.806,297.412,107.504z"/>
				<path style="fill:#FFFFFF;" d="M304.66,107.429v2.066h-0.481v-2.019c0-0.752-0.393-1.138-1.07-1.138
					c-0.766,0-1.247,0.475-1.247,1.287v1.87h-0.48v-3.563h0.461v0.657c0.257-0.434,0.738-0.685,1.354-0.685
					C304.063,105.905,304.66,106.406,304.66,107.429z"/>
				<path style="fill:#FFFFFF;" d="M309.176,105.932v3.563h-0.461v-0.65c-0.25,0.434-0.711,0.684-1.28,0.684
					c-0.907,0-1.504-0.508-1.504-1.531v-2.066h0.481v2.019c0,0.759,0.393,1.145,1.07,1.145c0.745,0,1.213-0.481,1.213-1.294v-1.87
					H309.176z"/>
				<path style="fill:#FFFFFF;" d="M313.627,107.863h-2.98c0.054,0.745,0.623,1.24,1.402,1.24c0.434,0,0.819-0.156,1.091-0.467
					l0.271,0.312c-0.318,0.379-0.813,0.582-1.375,0.582c-1.111,0-1.87-0.759-1.87-1.815c0-1.057,0.738-1.809,1.741-1.809
					c1.003,0,1.728,0.739,1.728,1.809C313.633,107.754,313.627,107.808,313.627,107.863z M310.646,107.504h2.526
					c-0.06-0.698-0.568-1.186-1.267-1.186C311.214,106.318,310.707,106.806,310.646,107.504z"/>
			</g>
			<g>
				<path style="fill:#FFFFFF;" d="M271.644,128.053v1.67h-1.49v-1.625c-1.475-0.089-2.893-0.552-3.712-1.193l0.819-1.818
					c0.746,0.551,1.819,0.954,2.893,1.058v-2.489c-1.655-0.403-3.504-0.954-3.504-3.086c0-1.58,1.148-2.937,3.504-3.205v-1.655h1.49
					v1.625c1.118,0.089,2.207,0.388,3.026,0.91l-0.745,1.833c-0.761-0.432-1.535-0.686-2.281-0.775v2.535
					c1.655,0.388,3.474,0.939,3.474,3.041C275.118,126.428,273.985,127.77,271.644,128.053z M270.154,121.464v-2.117
					c-0.79,0.179-1.104,0.611-1.104,1.103C269.05,120.973,269.498,121.256,270.154,121.464z M272.718,125.057
					c0-0.521-0.433-0.805-1.074-1.028v2.057C272.39,125.922,272.718,125.534,272.718,125.057z"/>
				<path style="fill:#FFFFFF;" d="M279.988,117.499v10.436h-2.415v-8.498h-2.087v-1.938H279.988z"/>
				<path style="fill:#FFFFFF;" d="M289.691,124.655c0,1.849-1.357,3.458-4.338,3.458c-1.446,0-2.967-0.402-3.98-1.118l0.954-1.849
					c0.79,0.596,1.878,0.939,2.967,0.939c1.207,0,1.952-0.507,1.952-1.356c0-0.82-0.536-1.357-2.43-1.357h-2.669l0.537-5.874h6.365
					v1.938h-4.353l-0.164,1.983h0.85C288.468,121.42,289.691,122.806,289.691,124.655z"/>
				<path style="fill:#FFFFFF;" d="M293.488,126.593c0,0.388-0.06,0.671-0.403,1.491l-0.85,2.147h-1.476l0.656-2.371
					c-0.492-0.194-0.806-0.656-0.806-1.267c0-0.865,0.626-1.431,1.446-1.431C292.891,125.161,293.488,125.743,293.488,126.593z"/>
				<path style="fill:#FFFFFF;" d="M294.38,122.717c0-3.444,1.908-5.396,4.473-5.396c2.579,0,4.473,1.953,4.473,5.396
					c0,3.444-1.894,5.396-4.473,5.396C296.289,128.113,294.38,126.16,294.38,122.717z M300.895,122.717
					c0-2.37-0.834-3.354-2.042-3.354c-1.192,0-2.027,0.984-2.027,3.354c0,2.371,0.835,3.354,2.027,3.354
					C300.061,126.071,300.895,125.087,300.895,122.717z"/>
				<path style="fill:#FFFFFF;" d="M304.498,122.717c0-3.444,1.908-5.396,4.473-5.396c2.579,0,4.473,1.953,4.473,5.396
					c0,3.444-1.893,5.396-4.473,5.396C306.406,128.113,304.498,126.16,304.498,122.717z M311.012,122.717
					c0-2.37-0.834-3.354-2.042-3.354c-1.192,0-2.027,0.984-2.027,3.354c0,2.371,0.835,3.354,2.027,3.354
					C310.178,126.071,311.012,125.087,311.012,122.717z"/>
				<path style="fill:#FFFFFF;" d="M314.615,122.717c0-3.444,1.908-5.396,4.473-5.396c2.579,0,4.473,1.953,4.473,5.396
					c0,3.444-1.894,5.396-4.473,5.396C316.523,128.113,314.615,126.16,314.615,122.717z M321.129,122.717
					c0-2.37-0.834-3.354-2.042-3.354c-1.192,0-2.027,0.984-2.027,3.354c0,2.371,0.835,3.354,2.027,3.354
					C320.296,126.071,321.129,125.087,321.129,122.717z"/>
			</g>
		</g>
		<g>
			<g>
				<path style="fill:#E0E0E0;" d="M389.141,274.769c0,0,0.177-0.018,0.526-0.04c0.351-0.004,0.868-0.079,1.548-0.201
					c1.323-0.299,3.374-1.004,5.245-2.965c0.92-0.975,1.757-2.264,2.275-3.839c0.236-0.791,0.429-1.644,0.459-2.549
					c0.054-0.901,0.012-1.857,0.022-2.842c-0.007-3.949-0.015-8.505-0.024-13.633c-0.012-10.259-0.027-22.809-0.044-37.379
					c-0.006-7.286-0.013-15.076-0.02-23.338c-0.003-4.131-0.006-8.38-0.009-12.742c-0.002-2.181-0.003-4.391-0.005-6.628
					c-0.012-1.115,0.03-2.256-0.053-3.358c-0.122-1.106-0.422-2.198-0.898-3.217c-0.938-2.047-2.633-3.766-4.712-4.755
					c-1.037-0.498-2.166-0.818-3.325-0.939c-1.152-0.086-2.366-0.034-3.56-0.048c-4.799,0.003-9.704,0.005-14.709,0.008
					c-10.011,0.005-20.425,0.01-31.208,0.015c-21.567,0.007-44.61,0.016-68.859,0.024c-48.498,0.006-101.817,0.013-157.782,0.02
					c-1.704,0.018-3.407,0.44-4.884,1.285c-1.473,0.845-2.742,2.052-3.604,3.514c-0.894,1.443-1.357,3.127-1.41,4.813
					c-0.029,1.718-0.008,3.46-0.015,5.184c0,6.911-0.001,13.776-0.001,20.591c-0.001,13.631-0.003,27.061-0.004,40.258
					c-0.001,6.598-0.002,13.139-0.003,19.616c-0.001,3.239-0.001,6.462-0.002,9.668l0,2.402c0.003,0.806-0.01,1.586,0.115,2.354
					c0.229,1.535,0.794,3.029,1.708,4.281c0.902,1.255,2.08,2.315,3.443,3.035c1.364,0.715,2.887,1.108,4.419,1.144
					c3.138,0.004,6.259,0.009,9.362,0.013c6.21,0.002,12.348,0.003,18.411,0.005c48.504,0.021,92.182,0.04,128.865,0.056
					c36.677,0.035,66.358,0.063,86.876,0.083c10.252,0.021,18.214,0.038,23.62,0.049c2.696,0.011,4.753,0.02,6.143,0.026
					C388.432,274.751,389.141,274.769,389.141,274.769s-0.709,0.018-2.093,0.027c-1.39,0.006-3.447,0.014-6.143,0.026
					c-5.406,0.011-13.367,0.028-23.62,0.049c-20.518,0.02-50.199,0.048-86.876,0.083c-36.683,0.016-80.361,0.035-128.865,0.056
					c-6.063,0.002-12.202,0.003-18.411,0.005c-3.106-0.003-6.231-0.006-9.372-0.009c-1.607-0.037-3.208-0.45-4.641-1.2
					c-1.431-0.755-2.669-1.867-3.617-3.185c-0.959-1.315-1.555-2.884-1.796-4.497c-0.132-0.808-0.118-1.635-0.121-2.426l0-2.402
					c-0.001-3.207-0.001-6.43-0.002-9.668c-0.001-6.477-0.002-13.018-0.003-19.616c-0.001-13.197-0.003-26.628-0.004-40.258
					c0-6.815-0.001-13.68-0.001-20.591c0.006-1.731-0.015-3.451,0.014-5.199c0.055-1.774,0.544-3.548,1.484-5.067
					c0.908-1.538,2.242-2.809,3.793-3.698c1.554-0.889,3.35-1.335,5.14-1.352c55.965,0.007,109.284,0.014,157.782,0.021
					c24.249,0.008,47.292,0.016,68.859,0.024c10.783,0.005,21.197,0.01,31.208,0.015c5.005,0.003,9.91,0.005,14.709,0.008
					c1.205,0.016,2.38-0.038,3.597,0.054c1.203,0.127,2.375,0.46,3.451,0.979c2.157,1.03,3.912,2.814,4.883,4.938
					c0.493,1.057,0.802,2.19,0.927,3.337c0.085,1.16,0.039,2.271,0.05,3.394c-0.001,2.237-0.003,4.447-0.005,6.628
					c-0.003,4.362-0.006,8.611-0.009,12.742c-0.007,8.262-0.014,16.052-0.02,23.338c-0.017,14.569-0.032,27.119-0.044,37.379
					c-0.009,5.128-0.017,9.684-0.024,13.633c-0.015,0.989,0.024,1.933-0.035,2.85c-0.034,0.918-0.234,1.781-0.477,2.581
					c-0.533,1.593-1.388,2.892-2.323,3.871c-1.903,1.969-3.978,2.662-5.311,2.945c-0.685,0.113-1.205,0.18-1.557,0.176
					C389.318,274.769,389.141,274.769,389.141,274.769z"/>
			</g>
		</g>
		<g>
			<g>
				<rect x="194.173" y="229.969" style="fill:#EBEBEB;" width="9.602" height="38.109"/>
			</g>
			<g>
				<rect x="208.551" y="241.497" style="fill:#EBEBEB;" width="9.602" height="26.58"/>
			</g>
			<g>
				<rect x="180.388" y="241.497" style="fill:#EBEBEB;" width="9.602" height="26.58"/>
			</g>
			<g>
				<rect x="152.225" y="264.539" style="fill:#EBEBEB;" width="9.602" height="3.539"/>
			</g>
			<g>
				<rect x="166.499" y="259.202" style="fill:#EBEBEB;" width="9.602" height="8.875"/>
			</g>
			<g>
				<rect x="138.484" y="265.131" style="fill:#EBEBEB;" width="9.602" height="2.947"/>
			</g>
			<g>
				<rect x="124.062" y="265.131" style="fill:#EBEBEB;" width="9.602" height="2.947"/>
			</g>
			<g>
				<rect x="223.694" y="246.848" style="fill:#EBEBEB;" width="9.602" height="21.23"/>
			</g>
			<g>
				<rect x="238.837" y="252.68" style="fill:#EBEBEB;" width="9.602" height="15.398"/>
			</g>
			<g>
				<rect x="253.979" y="241.497" style="fill:#EBEBEB;" width="9.602" height="26.58"/>
			</g>
			<g>
				<rect x="269.122" y="224.899" style="fill:#EBEBEB;" width="9.602" height="43.179"/>
			</g>
			<g>
				<rect x="284.264" y="212.121" style="fill:#EBEBEB;" width="9.602" height="55.957"/>
			</g>
			<g>
				<rect x="299.407" y="229.969" style="fill:#EBEBEB;" width="9.602" height="38.109"/>
			</g>
			<g>
				<rect x="314.549" y="195.756" style="fill:#EBEBEB;" width="9.602" height="72.322"/>
			</g>
			<g>
				<rect x="329.692" y="229.969" style="fill:#EBEBEB;" width="9.602" height="38.109"/>
			</g>
			<g>
				<rect x="344.834" y="241.497" style="fill:#EBEBEB;" width="9.602" height="26.58"/>
			</g>
			<g>
				<rect x="359.977" y="246.489" style="fill:#EBEBEB;" width="9.602" height="21.589"/>
			</g>
			<g>
				<rect x="375.119" y="252.68" style="fill:#EBEBEB;" width="9.602" height="15.398"/>
			</g>
			<g>
				<g>
					<path style="fill:#E8505B;" d="M131.947,268.078c0,0,0.32-0.018,0.943-0.027c0.637-0.006,1.561-0.014,2.769-0.026
						c2.447-0.011,6.032-0.028,10.646-0.049c1.156-0.004,2.376-0.008,3.659-0.012c1.285,0.008,2.622-0.016,4.01-0.204
						c2.765-0.364,5.74-1.275,8.494-3.028c1.378-0.868,2.666-1.982,3.786-3.308c1.093-1.337,1.835-3.006,2.617-4.682
						c1.499-3.399,2.859-7.093,4.249-10.982c1.36-3.902,2.785-7.991,4.269-12.25c0.754-2.127,1.515-4.3,2.388-6.484
						c0.908-2.171,1.937-4.353,3.285-6.399c1.353-2.037,2.971-3.963,4.907-5.603c1.93-1.641,4.177-2.981,6.633-3.885
						c2.455-0.912,5.113-1.337,7.796-1.373c2.677-0.009,5.411,0.229,8.071,0.989c1.338,0.347,2.626,0.89,3.886,1.497
						c1.225,0.674,2.441,1.406,3.504,2.349c2.187,1.816,3.881,4.198,5.213,6.749c1.346,2.567,2.125,5.39,3.022,8.157
						c0.875,2.784,1.754,5.594,2.734,8.396c1.972,5.582,4.223,11.251,7.65,16.312c1.717,2.505,3.784,4.856,6.387,6.483
						c1.285,0.835,2.742,1.384,4.24,1.682c0.748,0.18,1.519,0.186,2.288,0.23c0.776-0.044,1.561-0.009,2.333-0.117
						c2.11-0.19,4.193-0.702,6.029-1.699c1.842-0.99,3.333-2.513,4.549-4.199c1.211-1.701,2.223-3.542,3.254-5.36
						c1.03-1.807,1.928-3.677,2.754-5.565c3.28-7.57,5.318-15.46,8.382-22.736c1.447-3.662,2.94-7.273,4.827-10.625
						c1.863-3.361,4.19-6.409,6.883-8.982c1.35-1.269,2.771-2.491,4.371-3.401c1.557-0.983,3.27-1.634,4.968-2.216
						c3.438-1.072,6.995-1.406,10.429-1.267c3.438,0.152,6.782,0.797,9.873,1.927c3.087,1.139,5.882,2.852,8.203,4.934
						c4.686,4.141,8.089,8.993,11.973,12.838c3.833,3.921,8.575,6.158,12.982,7.612c4.449,1.438,8.691,2.077,12.474,2.376l-0.009,0
						c7.652,0.026,13.558,0.046,17.566,0.06c1.988,0.014,3.503,0.025,4.535,0.033c1.019,0.011,1.539,0.034,1.539,0.034
						s-0.52,0.023-1.539,0.034c-1.032,0.007-2.547,0.018-4.535,0.033c-4.008,0.014-9.913,0.034-17.566,0.06l-0.004,0l-0.005,0
						c-3.801-0.28-8.066-0.902-12.552-2.333c-4.441-1.446-9.246-3.69-13.142-7.651c-3.923-3.864-7.341-8.704-11.986-12.787
						c-2.304-2.055-5.036-3.72-8.082-4.839c-3.048-1.107-6.352-1.738-9.744-1.882c-3.389-0.131-6.896,0.204-10.271,1.263
						c-3.378,1.061-6.537,2.917-9.147,5.521c-2.654,2.542-4.944,5.548-6.785,8.877c-1.864,3.32-3.346,6.909-4.788,10.569
						c-3.05,7.257-5.075,15.126-8.375,22.758c-0.831,1.901-1.736,3.788-2.775,5.614c-1.03,1.817-2.044,3.668-3.283,5.409
						c-1.241,1.725-2.796,3.318-4.719,4.352c-1.916,1.041-4.073,1.567-6.231,1.761c-0.792,0.111-1.589,0.076-2.381,0.12
						c-0.799-0.044-1.606-0.053-2.387-0.24c-1.565-0.31-3.086-0.888-4.415-1.751c-2.695-1.687-4.799-4.092-6.541-6.633
						c-3.472-5.135-5.727-10.834-7.704-16.438c-0.982-2.812-1.86-5.628-2.733-8.413c-0.897-2.776-1.666-5.567-2.984-8.082
						c-1.306-2.506-2.959-4.832-5.086-6.602c-1.034-0.919-2.217-1.632-3.409-2.291c-1.228-0.593-2.484-1.125-3.794-1.467
						c-2.6-0.748-5.3-0.987-7.936-0.982c-2.634,0.032-5.239,0.445-7.644,1.334c-4.849,1.747-8.7,5.278-11.336,9.294
						c-2.663,4.046-4.129,8.545-5.654,12.78c-1.496,4.256-2.931,8.341-4.301,12.24c-1.403,3.889-2.775,7.583-4.294,10.994
						c-0.794,1.684-1.54,3.36-2.68,4.746c-1.148,1.348-2.465,2.477-3.868,3.353c-2.806,1.769-5.822,2.675-8.619,3.029
						c-1.401,0.184-2.763,0.199-4.042,0.184c-1.283-0.004-2.503-0.008-3.659-0.012c-4.614-0.021-8.199-0.038-10.646-0.049
						c-1.208-0.011-2.132-0.02-2.769-0.026C132.266,268.096,131.947,268.078,131.947,268.078z"/>
				</g>
			</g>
		</g>
		<g>
			<path style="fill:#E8505B;" d="M224.957,179.58H170.99c-0.846,0-1.531,0.686-1.531,1.532v18.568c0,0.846,0.686,1.532,1.531,1.532
				h27.318c0.434,0,0.843,0.18,1.134,0.502c0.854,0.946,1.999,2.179,2.841,3.081c0.611,0.655,1.651,0.647,2.253-0.016l2.781-3.065
				c0.29-0.32,0.702-0.502,1.134-0.502h16.506c0.846,0,1.531-0.686,1.531-1.532v-18.568
				C226.489,180.265,225.803,179.58,224.957,179.58z"/>
		</g>
		<g>
			<path style="fill:#F5F5F5;" d="M165.782,232.455h-44.993c-0.503,0-0.911,0.408-0.911,0.911v11.045
				c0,0.503,0.408,0.911,0.911,0.911h16.25c0.258,0,0.502,0.107,0.674,0.299c0.508,0.563,1.189,1.296,1.69,1.833
				c0.364,0.39,0.982,0.385,1.34-0.01l1.654-1.823c0.173-0.19,0.418-0.299,0.675-0.299h22.71c0.503,0,0.911-0.408,0.911-0.911
				v-11.045C166.693,232.863,166.285,232.455,165.782,232.455z"/>
		</g>
		<g>
			<path style="fill:#E8505B;" d="M205.23,209.831c0,1.161-0.941,2.102-2.102,2.102c-1.161,0-2.102-0.941-2.102-2.102
				c0-1.161,0.941-2.102,2.102-2.102C204.289,207.729,205.23,208.67,205.23,209.831z"/>
			<path style="fill:#263238;" d="M203.129,211.957c-1.172,0-2.127-0.954-2.127-2.126c0-1.172,0.954-2.126,2.127-2.126
				c1.172,0,2.126,0.954,2.126,2.126C205.255,211.003,204.301,211.957,203.129,211.957z M203.129,207.754
				c-1.145,0-2.077,0.932-2.077,2.077s0.932,2.077,2.077,2.077c1.145,0,2.077-0.932,2.077-2.077S204.274,207.754,203.129,207.754z"
				/>
		</g>
		<g>
			<g>
				<path style="fill:#FFFFFF;" d="M183.525,193.871v1.028h-0.919v-1.001c-0.909-0.055-1.782-0.34-2.287-0.735l0.505-1.121
					c0.46,0.34,1.121,0.588,1.782,0.652v-1.534c-1.02-0.248-2.158-0.588-2.158-1.901c0-0.974,0.707-1.81,2.158-1.975v-1.02h0.919
					v1.001c0.688,0.055,1.359,0.239,1.864,0.561l-0.459,1.13c-0.469-0.267-0.946-0.423-1.405-0.478v1.562
					c1.02,0.239,2.14,0.579,2.14,1.873C185.664,192.87,184.966,193.696,183.525,193.871z M182.606,189.81v-1.304
					c-0.486,0.11-0.68,0.376-0.68,0.68C181.926,189.508,182.201,189.682,182.606,189.81z M184.186,192.024
					c0-0.321-0.267-0.496-0.661-0.634v1.268C183.983,192.557,184.186,192.318,184.186,192.024z"/>
				<path style="fill:#FFFFFF;" d="M188.667,187.367v6.43h-1.488v-5.236h-1.286v-1.194H188.667z"/>
				<path style="fill:#FFFFFF;" d="M194.647,191.776c0,1.139-0.836,2.131-2.673,2.131c-0.892,0-1.828-0.248-2.453-0.689l0.588-1.139
					c0.487,0.368,1.157,0.579,1.828,0.579c0.744,0,1.203-0.312,1.203-0.836c0-0.505-0.331-0.836-1.497-0.836h-1.645l0.331-3.619
					h3.922v1.194h-2.682l-0.102,1.222h0.523C193.893,189.783,194.647,190.637,194.647,191.776z"/>
				<path style="fill:#FFFFFF;" d="M196.987,192.971c0,0.239-0.037,0.413-0.248,0.919l-0.524,1.323h-0.909l0.404-1.46
					c-0.303-0.12-0.496-0.404-0.496-0.781c0-0.533,0.386-0.882,0.892-0.882C196.619,192.089,196.987,192.447,196.987,192.971z"/>
				<path style="fill:#FFFFFF;" d="M197.538,190.582c0-2.122,1.176-3.326,2.756-3.326c1.589,0,2.756,1.204,2.756,3.326
					c0,2.122-1.167,3.325-2.756,3.325C198.714,193.908,197.538,192.704,197.538,190.582z M201.552,190.582
					c0-1.461-0.514-2.067-1.258-2.067c-0.735,0-1.25,0.606-1.25,2.067c0,1.46,0.515,2.066,1.25,2.066
					C201.038,192.649,201.552,192.043,201.552,190.582z"/>
				<path style="fill:#FFFFFF;" d="M203.774,190.582c0-2.122,1.176-3.326,2.756-3.326c1.589,0,2.756,1.204,2.756,3.326
					c0,2.122-1.167,3.325-2.756,3.325C204.949,193.908,203.774,192.704,203.774,190.582z M207.787,190.582
					c0-1.461-0.514-2.067-1.258-2.067c-0.735,0-1.25,0.606-1.25,2.067c0,1.46,0.515,2.066,1.25,2.066
					C207.274,192.649,207.787,192.043,207.787,190.582z"/>
				<path style="fill:#FFFFFF;" d="M210.009,190.582c0-2.122,1.176-3.326,2.756-3.326c1.589,0,2.756,1.204,2.756,3.326
					c0,2.122-1.167,3.325-2.756,3.325C211.185,193.908,210.009,192.704,210.009,190.582z M214.023,190.582
					c0-1.461-0.514-2.067-1.258-2.067c-0.735,0-1.25,0.606-1.25,2.067c0,1.46,0.515,2.066,1.25,2.066
					C213.509,192.649,214.023,192.043,214.023,190.582z"/>
			</g>
		</g>
		<g>
			<path style="fill:#263238;" d="M415.286,60.164H84.714V47.504c0-3.297,2.673-5.97,5.97-5.97h318.631
				c3.297,0,5.97,2.673,5.97,5.97V60.164z"/>
		</g>
		<g>
			<circle style="fill:#F5F5F5;" cx="96.692" cy="51.099" r="2.664"/>
		</g>
		<g>
			<circle style="fill:#F5F5F5;" cx="104.98" cy="51.099" r="2.664"/>
		</g>
		<g>
			<circle style="fill:#F5F5F5;" cx="113.268" cy="51.099" r="2.664"/>
		</g>
	</g>
</g>
<g id="Character">
	<g>
		<g>
			<g>
				<g>
					<path style="fill:#E8505B;" d="M440.863,453.36c9.305,0.077,17.354-6.47,19.153-15.6c3.181-16.144,7.275-38.723,7.404-64.078
						c0.079-15.549-3.397-35.243-8.208-50.03c-7.027-21.6-22.063-40.627-43.906-46.862c-28.368-8.097-38.635-4.989-58.751,5.56
						c-21.882,11.475-27.804,33.001-50.581,42.577c-22.115,9.297-48.783,6.123-68.943,19.125
						c-17.733,11.436-26.381,33.41-27.085,54.499c-0.446,13.376,0.764,22.955,3.239,33.335c2.745,11.51,13.135,21.378,24.968,21.476
						L440.863,453.36z"/>
				</g>
			</g>
			<g style="opacity:0.4;">
				<g>
					<path d="M440.863,453.36c9.305,0.077,17.354-6.47,19.153-15.6c3.181-16.144,7.275-38.723,7.404-64.078
						c0.079-15.549-3.397-35.243-8.208-50.03c-7.027-21.6-22.063-40.627-43.906-46.862c-28.368-8.097-38.635-4.989-58.751,5.56
						c-21.882,11.475-27.804,33.001-50.581,42.577c-22.115,9.297-48.783,6.123-68.943,19.125
						c-17.733,11.436-26.381,33.41-27.085,54.499c-0.446,13.376,0.764,22.955,3.239,33.335c2.745,11.51,13.135,21.378,24.968,21.476
						L440.863,453.36z"/>
				</g>
			</g>
		</g>
		<g>
			<g>
				<g>
					<path style="fill:#263238;" d="M426.278,280.642c0.009-0.004,0.081,0.132,0.214,0.403c0.142,0.297,0.332,0.697,0.576,1.208
						c0.508,1.096,1.234,2.664,2.164,4.67c0.467,1.019,0.985,2.148,1.551,3.382c0.554,1.242,1.041,2.639,1.627,4.114
						c0.572,1.483,1.182,3.067,1.83,4.747c0.688,1.666,1.255,3.484,1.856,5.391c0.607,1.905,1.243,3.901,1.906,5.98
						c0.355,1.033,0.625,2.113,0.904,3.213c0.283,1.099,0.571,2.217,0.864,3.355c0.293,1.139,0.591,2.297,0.894,3.473
						c0.151,0.588,0.304,1.181,0.457,1.779c0.124,0.604,0.248,1.213,0.374,1.827c0.492,2.456,0.998,4.984,1.517,7.576
						c1.812,10.414,3.143,21.988,3.504,34.189c0.285,12.207-0.335,23.832-1.352,34.354c-0.634,5.248-1.144,10.247-1.948,14.88
						c-0.374,2.32-0.689,4.569-1.078,6.715c-0.413,2.141-0.811,4.197-1.19,6.16c-0.706,3.935-1.578,7.445-2.278,10.541
						c-0.359,1.544-0.694,2.982-1.002,4.308c-0.349,1.311-0.668,2.511-0.957,3.594c-0.577,2.133-1.027,3.801-1.342,4.967
						c-0.154,0.544-0.274,0.971-0.363,1.288c-0.085,0.289-0.133,0.436-0.143,0.433c-0.01-0.003,0.02-0.155,0.086-0.449
						c0.076-0.32,0.177-0.752,0.307-1.302c0.29-1.172,0.705-2.848,1.236-4.992c0.273-1.085,0.576-2.288,0.907-3.603
						c0.294-1.328,0.612-2.769,0.954-4.315c0.669-3.1,1.512-6.612,2.192-10.547c0.367-1.962,0.751-4.017,1.151-6.158
						c0.377-2.145,0.679-4.392,1.043-6.71c0.782-4.629,1.274-9.622,1.892-14.862c0.986-10.505,1.589-22.105,1.304-34.284
						c-0.36-12.173-1.672-23.717-3.45-34.11c-0.51-2.587-1.007-5.11-1.49-7.562c-0.123-0.612-0.245-1.22-0.366-1.824
						c-0.151-0.597-0.301-1.189-0.449-1.776c-0.297-1.175-0.589-2.331-0.877-3.468c-0.287-1.137-0.569-2.254-0.847-3.352
						c-0.273-1.098-0.536-2.178-0.885-3.21c-0.649-2.078-1.271-4.073-1.866-5.978c-0.587-1.907-1.139-3.725-1.813-5.393
						c-0.631-1.682-1.227-3.268-1.784-4.753c-0.57-1.479-1.042-2.879-1.58-4.126c-0.548-1.239-1.05-2.374-1.503-3.397
						c-0.886-2.023-1.578-3.605-2.063-4.711c-0.221-0.521-0.395-0.929-0.523-1.232C426.323,280.791,426.269,280.646,426.278,280.642
						z"/>
				</g>
			</g>
		</g>
		<g>
			<g>
				<g>
					<g>
						<g>
							<path style="fill:#455A64;" d="M239.864,453.205l-18.924,29.624l-36.977-23.356c2.447-3.395,26.057,1.596,26.057,1.596
								l11.346-19.478L239.864,453.205z"/>
						</g>
					</g>
					<g style="opacity:0.6;">
						<g>
							<g>
								<path style="fill:#FFFFFF;" d="M222.465,466.688c0.592,0.648,0.578,1.765-0.044,2.383c-0.623,0.618-1.759,0.614-2.362-0.023
									c-0.603-0.637-0.628-1.979,0.06-2.523c0.688-0.545,2.022-0.467,2.455,0.297"/>
							</g>
						</g>
					</g>
					<g style="opacity:0.6;">
						<g>
							<path style="fill:#FFFFFF;" d="M220.94,482.829l1.791-3.06l-36.123-21.249c0,0-2.099-0.323-2.645,0.953L220.94,482.829z"/>
						</g>
					</g>
					<g>
						<g>
							<g>
								<path style="fill:#263238;" d="M209.539,460.502c-0.108,0.184,0.743,0.836,1.265,1.978c0.552,1.128,0.516,2.199,0.727,2.233
									c0.189,0.07,0.601-1.179-0.055-2.551C210.832,460.785,209.604,460.311,209.539,460.502z"/>
							</g>
						</g>
					</g>
					<g>
						<g>
							<g>
								<path style="fill:#263238;" d="M204.647,459.656c-0.152,0.149,0.436,0.95,0.567,2.101c0.165,1.147-0.202,2.071-0.017,2.176
									c0.152,0.136,0.945-0.843,0.755-2.271C205.774,460.233,204.76,459.486,204.647,459.656z"/>
							</g>
						</g>
					</g>
					<g>
						<g>
							<g>
								<path style="fill:#263238;" d="M199.512,462.906c0.14,0.142,0.961-0.601,1.122-1.883c0.17-1.281-0.435-2.209-0.606-2.107
									c-0.196,0.084,0.017,0.961-0.131,2.011C199.773,461.981,199.344,462.776,199.512,462.906z"/>
							</g>
						</g>
					</g>
					<g>
						<g>
							<g>
								<path style="fill:#263238;" d="M212.617,456.349c-0.028,0.212,0.957,0.487,1.934,1.2c0.991,0.694,1.569,1.538,1.761,1.443
									c0.187-0.065-0.166-1.223-1.329-2.047C213.828,456.112,212.618,456.152,212.617,456.349z"/>
							</g>
						</g>
					</g>
					<g>
						<g>
							<g>
								<path style="fill:#263238;" d="M216.269,452.518c-0.049,0.073,0.594,0.636,1.858,1.16c0.629,0.26,1.415,0.497,2.313,0.629
									c0.449,0.065,0.925,0.104,1.42,0.107c0.239-0.002,0.511,0.015,0.834-0.082c0.319-0.062,0.735-0.469,0.689-0.908
									c-0.01-0.404-0.267-0.738-0.53-0.913c-0.267-0.181-0.523-0.266-0.755-0.343c-0.475-0.16-0.947-0.267-1.401-0.332
									c-0.909-0.125-1.74-0.081-2.415,0.042c-1.36,0.252-2.079,0.742-2.039,0.816c0.044,0.111,0.819-0.19,2.106-0.295
									c0.641-0.051,1.411-0.037,2.24,0.113c0.414,0.077,0.842,0.189,1.27,0.344c0.457,0.145,0.792,0.352,0.782,0.59
									c-0.005,0.09-0.017,0.119-0.172,0.182c-0.151,0.052-0.375,0.056-0.612,0.058c-0.462,0.007-0.908-0.016-1.331-0.059
									c-0.847-0.087-1.602-0.258-2.224-0.445C217.056,452.81,216.327,452.419,216.269,452.518z"/>
							</g>
						</g>
					</g>
					<g>
						<g>
							<g>
								<path style="fill:#263238;" d="M216.34,452.926c0.046,0.068,0.813-0.353,1.618-1.48c0.397-0.561,0.781-1.302,1.028-2.187
									c0.121-0.443,0.206-0.921,0.238-1.422c0.014-0.502,0.059-1.159-0.591-1.681c-0.357-0.245-0.842-0.151-1.1,0.028
									c-0.28,0.173-0.44,0.372-0.619,0.559c-0.341,0.389-0.6,0.818-0.789,1.247c-0.381,0.861-0.472,1.719-0.417,2.412
									c0.117,1.415,0.735,2.106,0.788,2.055c0.118-0.052-0.292-0.799-0.263-2.069c0.014-0.626,0.15-1.378,0.513-2.11
									c0.18-0.366,0.415-0.725,0.71-1.049c0.306-0.357,0.654-0.58,0.776-0.447c0.186,0.113,0.311,0.607,0.265,1.016
									c-0.02,0.452-0.083,0.886-0.175,1.294c-0.19,0.815-0.493,1.518-0.809,2.075C216.879,452.282,216.26,452.836,216.34,452.926z
									"/>
							</g>
						</g>
					</g>
				</g>
			</g>
			<g>
				<g>
					<g>
						<g>
							<path style="fill:#455A64;" d="M266.335,360.973l-11.336,33.275l-41.471-13.892c1.57-3.88,25.689-4.647,25.689-4.647
								l6.389-21.618L266.335,360.973z"/>
						</g>
					</g>
					<g style="opacity:0.6;">
						<g>
							<g>
								<path style="fill:#FFFFFF;" d="M252.642,378.207c0.729,0.488,0.981,1.577,0.523,2.325c-0.458,0.749-1.562,1.015-2.3,0.539
									c-0.737-0.475-1.08-1.773-0.542-2.465c0.539-0.693,1.853-0.934,2.455-0.296"/>
							</g>
						</g>
					</g>
					<g style="opacity:0.6;">
						<g>
							<path style="fill:#FFFFFF;" d="M254.998,394.247l1.012-3.398L215.87,378.8c0,0-2.115,0.185-2.342,1.555L254.998,394.247z"/>
						</g>
					</g>
					<g>
						<g>
							<g>
								<path style="fill:#263238;" d="M238.615,375.272c-0.061,0.205,0.92,0.636,1.699,1.621c0.804,0.965,1.024,2.014,1.237,1.996
									c0.2,0.023,0.304-1.289-0.66-2.465C239.938,375.24,238.633,375.072,238.615,375.272z"/>
							</g>
						</g>
					</g>
					<g>
						<g>
							<g>
								<path style="fill:#263238;" d="M233.662,375.614c-0.112,0.181,0.65,0.819,1.05,1.906c0.433,1.075,0.296,2.059,0.501,2.118
									c0.18,0.096,0.717-1.044,0.193-2.385C234.894,375.906,233.731,375.422,233.662,375.614z"/>
							</g>
						</g>
					</g>
					<g>
						<g>
							<g>
								<path style="fill:#263238;" d="M229.448,379.992c0.17,0.105,0.79-0.813,0.642-2.096c-0.139-1.285-0.948-2.042-1.09-1.902
									c-0.17,0.128,0.245,0.929,0.351,1.985C229.481,379.032,229.253,379.905,229.448,379.992z"/>
							</g>
						</g>
					</g>
					<g>
						<g>
							<g>
								<path style="fill:#263238;" d="M240.617,370.507c0.023,0.213,1.046,0.245,2.164,0.706c1.128,0.438,1.89,1.121,2.054,0.983
									c0.166-0.107-0.452-1.148-1.777-1.673C241.737,369.988,240.571,370.315,240.617,370.507z"/>
							</g>
						</g>
					</g>
					<g>
						<g>
							<g>
								<path style="fill:#263238;" d="M243.253,365.917c-0.03,0.083,0.728,0.476,2.081,0.685c0.673,0.103,1.493,0.146,2.396,0.06
									c0.451-0.043,0.923-0.118,1.405-0.233c0.232-0.059,0.5-0.107,0.791-0.278c0.295-0.136,0.603-0.63,0.454-1.046
									c-0.106-0.39-0.435-0.653-0.732-0.76c-0.302-0.112-0.571-0.134-0.815-0.153c-0.499-0.043-0.984-0.035-1.44,0.011
									c-0.913,0.095-1.709,0.335-2.336,0.616c-1.261,0.568-1.842,1.215-1.786,1.277c0.069,0.097,0.75-0.38,1.975-0.787
									c0.611-0.202,1.361-0.372,2.202-0.423c0.42-0.023,0.862-0.017,1.316,0.032c0.478,0.032,0.853,0.154,0.9,0.387
									c0.016,0.088,0.011,0.12-0.123,0.217c-0.135,0.087-0.352,0.143-0.581,0.202c-0.447,0.116-0.886,0.201-1.307,0.259
									c-0.844,0.117-1.617,0.13-2.266,0.097C244.087,366.013,243.286,365.806,243.253,365.917z"/>
							</g>
						</g>
					</g>
					<g>
						<g>
							<g>
								<path style="fill:#263238;" d="M243.42,366.296c0.061,0.055,0.706-0.536,1.22-1.822c0.252-0.639,0.449-1.45,0.479-2.369
									c0.012-0.459-0.019-0.944-0.107-1.438c-0.106-0.491-0.218-1.139-0.974-1.492c-0.405-0.153-0.854,0.053-1.062,0.289
									c-0.231,0.234-0.339,0.466-0.468,0.69c-0.239,0.459-0.388,0.937-0.47,1.398c-0.165,0.927-0.05,1.782,0.168,2.443
									c0.451,1.346,1.215,1.871,1.254,1.809c0.102-0.079-0.473-0.706-0.747-1.947c-0.135-0.611-0.182-1.374-0.003-2.172
									c0.088-0.398,0.23-0.803,0.44-1.187c0.213-0.419,0.497-0.719,0.647-0.619c0.207,0.066,0.447,0.515,0.499,0.924
									c0.088,0.443,0.13,0.88,0.137,1.298c0.009,0.836-0.118,1.592-0.292,2.207C243.79,365.543,243.32,366.228,243.42,366.296z"/>
							</g>
						</g>
					</g>
				</g>
			</g>
			<g>
				<g>
					<path style="fill:#263238;" d="M335.038,351.48c0,0-31.209-50.087-39.772-63.967c-9.917-16.073-30.252-14.026-35.14,0.477
						c1.099-3.26-3.793,11.097-20.262,64.727l27.741,7.944l13.497-27.631l11.434,32.721L335.038,351.48z"/>
				</g>
				<g>
					<g>
						<g>
							<path style="fill:#263238;" d="M340.908,348.858h-57.363c-9.119,0-17.698,3.932-23.638,10.627
								c-2.008,2.264-3.43,4.986-4.321,7.878l-41.978,78.36l26.836,14.817l50.14-71.577l28.028,0.333l62.353-38.925L340.908,348.858
								z"/>
						</g>
					</g>
					<g>
						<g>
							<path style="fill:#455A64;" d="M283.942,373.68c0.052-0.037,0.654,0.682,1.473,1.955c0.82,1.271,1.83,3.113,2.691,5.26
								c0.857,2.15,1.396,4.181,1.678,5.666c0.284,1.487,0.344,2.422,0.281,2.432c-0.163,0.031-0.73-3.665-2.443-7.905
								C285.941,376.839,283.803,373.771,283.942,373.68z"/>
						</g>
					</g>
				</g>
			</g>
			<g>
				<g>
					<g>
						<path style="fill:#E0E0E0;" d="M224.672,302.942l23.355,45.916h73.66l-2.981-6l-21.34-0.634l-17.384-38.707
							c-1.087-2.42-3.493-3.977-6.146-3.977H226.76C225.012,299.539,223.88,301.384,224.672,302.942z"/>
					</g>
				</g>
				<g>
					<g>
						<path style="fill:#263238;" d="M262.356,323.255c0,1.663-1.348,3.012-3.012,3.012s-3.012-1.348-3.012-3.012
							s1.348-3.012,3.012-3.012S262.356,321.592,262.356,323.255z"/>
					</g>
				</g>
			</g>
			<g>
				<g>
					<g>
						<g>
							<polygon style="fill:#FFBE9D;" points="330.9,295.671 319.543,334.531 277.506,339.039 277.506,346.501 339.273,347.354 
								347.683,296.751 							"/>
						</g>
					</g>
					<g>
						<g>
							<path style="fill:#E8505B;" d="M411.67,270.186c-2.451-11.081-19.005-15.301-26.464-15.317
								c-10.408-0.022-9.466-0.659-19.695,1.182l-1.349-0.043c-31.104-1.263-34.681,41.458-34.681,41.458l14.177,1.157v0
								l-3.743,29.43l-10.858,20.831l59.729-0.098l3.345-48.629l25.009-0.656C417.139,299.501,414.15,281.405,411.67,270.186z"/>
						</g>
					</g>
					<g>
						<g>
							<g>
								<path style="fill:#263238;" d="M345.378,279.423c0.159,0.018-0.891,10.39-2.345,23.164
									c-1.455,12.778-2.764,23.118-2.923,23.1c-0.159-0.018,0.891-10.388,2.346-23.166
									C343.91,289.747,345.219,279.405,345.378,279.423z"/>
							</g>
						</g>
					</g>
					<g style="opacity:0.2;">
						<g>
							<g>
								<path d="M391.03,279.425c-2.547,12.175-5.868,24.689-8.415,36.864c-0.541,2.588-1.122,5.266-2.703,7.385
									c-0.988,1.324-2.312,2.352-3.633,3.343c-5.02,3.767-10.313,7.294-16.211,9.444c8.519-0.72,16.974-2.191,25.236-4.392
									c1.399-0.373,2.888-0.827,3.79-1.959c0.798-1.001,0.984-2.344,1.134-3.615C392.061,310.883,391.531,295.135,391.03,279.425"
									/>
							</g>
						</g>
					</g>
					<g>
						<g>
							<g>
								<path style="fill:#FFBE9D;" d="M308.504,333.602l18.518-2.226l13.048,8.556l49.898-11.96l1.461-27.846l22.397-0.551
									l-0.522,32.677c-0.222,10.521-8.966,18.85-19.486,18.558l-73.083-2.024l-3.102-6.219l-15.68-0.466L308.504,333.602z"/>
							</g>
						</g>
						<g>
							<g>
								<g>
									<path style="fill:#EB996E;" d="M389.969,327.972c0.005,0.02-0.318,0.117-0.938,0.285c-0.67,0.174-1.576,0.41-2.716,0.707
										c-2.418,0.602-5.825,1.451-10.013,2.495c-8.514,2.063-20.189,4.892-33.086,8.018c-1.035,0.248-2.063,0.494-3.078,0.737
										l-0.122,0.029l-0.105-0.069c-4.614-3.035-9.008-5.925-13.036-8.575l0.178,0.042c-7.326,0.846-13.671,1.579-18.529,2.141
										l0.122-0.069c-2.071,2.629-3.722,4.726-4.892,6.211c-0.552,0.684-0.99,1.226-1.32,1.635
										c-0.304,0.368-0.468,0.553-0.482,0.542c-0.014-0.01,0.124-0.216,0.402-0.604c0.311-0.423,0.724-0.984,1.245-1.693
										c1.138-1.51,2.745-3.641,4.76-6.313l0.045-0.06l0.077-0.01c4.853-0.606,11.19-1.397,18.508-2.311l0.096-0.012l0.082,0.054
										c4.036,2.638,8.438,5.516,13.06,8.537l-0.226-0.039c1.015-0.243,2.043-0.49,3.078-0.738
										c12.912-3.061,24.601-5.831,33.126-7.852c4.206-0.968,7.628-1.756,10.056-2.315c1.151-0.252,2.065-0.453,2.741-0.601
										C389.632,328.012,389.965,327.953,389.969,327.972z"/>
								</g>
							</g>
						</g>
						<g>
							<g>
								<g>
									<path style="fill:#EB996E;" d="M319.253,338.91c0,0.16-3.221,0.29-7.193,0.29c-0.45-0.002-0.888-0.003-1.316-0.005
										l0.185-0.068c-2.566,2.148-4.571,3.697-4.663,3.589c-0.092-0.108,1.76-1.838,4.293-4.024l0.078-0.068l0.107,0
										c0.428-0.002,0.866-0.003,1.316-0.005C316.033,338.619,319.253,338.75,319.253,338.91z"/>
								</g>
							</g>
						</g>
						<g>
							<g>
								<g>
									<path style="fill:#EB996E;" d="M398.69,332.628c-0.153,0.094-1.114-2.245-3.635-3.795
										c-2.488-1.604-5.013-1.457-4.994-1.636c-0.007-0.065,0.605-0.208,1.61-0.126c1,0.077,2.381,0.449,3.693,1.271
										c1.308,0.827,2.241,1.912,2.743,2.78C398.616,331.991,398.752,332.605,398.69,332.628z"/>
								</g>
							</g>
						</g>
					</g>
					<g>
						<g>
							<g>
								<path style="fill:#263238;" d="M417.144,299.727C417.145,299.767,417.144,299.727,417.144,299.727
									c-1.382,0.051-3.223,0.119-5.453,0.201c-4.605,0.144-10.968,0.303-17.996,0.443c-0.774,0.015-1.54,0.03-2.259,0.044
									l-0.284,0.005l-0.011-0.28c-0.253-6.525-0.137-12.327-0.014-16.5c0.065-2.086,0.144-3.764,0.215-4.921
									c0.071-1.156,0.128-1.791,0.166-1.789c0.038,0.001,0.053,0.638,0.049,1.796c-0.009,1.251-0.021,2.907-0.036,4.922
									c-0.02,4.168-0.066,9.973,0.199,16.463l-0.295-0.274c0.719-0.015,1.485-0.03,2.259-0.046
									c7.028-0.14,13.392-0.234,17.999-0.273c2.232-0.007,4.074-0.012,5.457-0.016
									C418.428,299.51,415.141,299.654,417.144,299.727z"/>
							</g>
						</g>
					</g>
				</g>
				<g>
					<g>
						<path style="fill:#263238;" d="M378.658,299.903c0.032,0.017-0.224,0.527-0.714,1.438c-0.24,0.458-0.547,1.011-0.943,1.63
							c-0.391,0.622-0.811,1.347-1.354,2.096c-1.031,1.537-2.384,3.282-3.997,5.124c-1.637,1.82-3.548,3.725-5.71,5.548
							c-2.178,1.805-4.391,3.349-6.473,4.638c-2.099,1.261-4.057,2.284-5.752,3.026c-0.834,0.401-1.622,0.687-2.303,0.961
							c-0.679,0.28-1.278,0.484-1.771,0.639c-0.983,0.321-1.53,0.482-1.541,0.448c-0.011-0.034,0.514-0.26,1.471-0.638
							c0.481-0.184,1.066-0.414,1.731-0.719c0.667-0.299,1.44-0.606,2.258-1.026c1.664-0.78,3.587-1.828,5.655-3.1
							c2.05-1.3,4.234-2.84,6.391-4.629c2.142-1.806,4.044-3.682,5.687-5.469c1.618-1.809,2.991-3.516,4.053-5.015
							c0.558-0.731,0.998-1.438,1.41-2.041c0.417-0.601,0.748-1.136,1.014-1.577C378.311,300.363,378.627,299.886,378.658,299.903z"
							/>
					</g>
				</g>
				<g>
					<g>
						<path style="fill:#FAFAFA;" d="M410.576,268.127c-0.001,0.018-0.252,0.021-0.73,0.01c-0.528-0.018-1.222-0.042-2.086-0.072
							c-1.87-0.071-4.475-0.169-7.67-0.29c-6.476-0.221-15.428-0.398-25.313-0.264c-9.888,0.14-18.832,0.565-25.3,0.966
							c-3.19,0.21-5.792,0.38-7.658,0.503c-0.864,0.054-1.556,0.097-2.083,0.13c-0.477,0.024-0.728,0.028-0.73,0.01
							c-0.002-0.018,0.246-0.057,0.72-0.115c0.525-0.058,1.215-0.133,2.076-0.228c1.803-0.191,4.417-0.422,7.65-0.668
							c6.466-0.495,15.418-0.979,25.318-1.119c9.896-0.134,18.857,0.101,25.335,0.417c3.239,0.156,5.858,0.315,7.666,0.456
							c0.863,0.07,1.555,0.127,2.081,0.17C410.328,268.077,410.577,268.109,410.576,268.127z"/>
					</g>
				</g>
				<g>
					<g>
						<path style="fill:#FAFAFA;" d="M344.116,288.469c0,0.144-2.936,0.26-6.557,0.26c-3.622,0-6.558-0.117-6.558-0.26
							s2.935-0.26,6.558-0.26C341.18,288.209,344.116,288.325,344.116,288.469z"/>
					</g>
				</g>
				<g>
					<g>
						<path style="fill:#FAFAFA;" d="M390.903,290.731c0.002,0.018-0.158,0.053-0.465,0.103c-0.368,0.053-0.812,0.118-1.345,0.195
							c-1.17,0.161-2.866,0.36-4.966,0.578c-4.199,0.436-10.015,0.902-16.453,1.155c-6.44,0.249-12.276,0.236-16.495,0.128
							c-2.11-0.054-3.817-0.12-4.995-0.19c-0.538-0.036-0.986-0.065-1.357-0.09c-0.31-0.026-0.472-0.049-0.472-0.067
							c0.001-0.018,0.164-0.03,0.475-0.038c0.372-0.002,0.82-0.005,1.359-0.008c1.263,0.006,2.949,0.014,4.994,0.024
							c4.216,0.014,10.041-0.031,16.47-0.28c6.427-0.252,12.237-0.659,16.439-1.001c2.039-0.169,3.719-0.308,4.978-0.412
							c0.538-0.039,0.985-0.071,1.355-0.098C390.737,290.713,390.901,290.713,390.903,290.731z"/>
					</g>
				</g>
				<g>
					<g>
						<path style="fill:#FAFAFA;" d="M414.952,286.641c0.013,0.143-5.319,0.736-11.907,1.324
							c-6.591,0.588-11.942,0.949-11.955,0.805c-0.013-0.143,5.318-0.736,11.908-1.324
							C409.587,286.858,414.939,286.498,414.952,286.641z"/>
					</g>
				</g>
				<g>
					<g>
						<path style="fill:#FAFAFA;" d="M363.094,317.08c0.002,0.069-1.2,0.177-3.147,0.254c-1.947,0.077-4.64,0.112-7.613,0.042
							c-2.974-0.071-5.663-0.235-7.604-0.404c-1.941-0.169-3.137-0.334-3.131-0.403c0.006-0.074,1.21-0.039,3.154,0.036
							c1.944,0.075,4.627,0.18,7.593,0.251c2.965,0.07,5.65,0.093,7.595,0.111C361.887,316.984,363.092,317.006,363.094,317.08z"/>
					</g>
				</g>
				<g>
					<g>
						<path style="fill:#FAFAFA;" d="M390.563,317.939c0.005,0.036-0.397,0.121-1.13,0.246c-0.732,0.127-1.795,0.279-3.112,0.442
							c-2.634,0.328-6.29,0.663-10.339,0.822c-4.051,0.156-7.722,0.105-10.374-0.018c-1.326-0.06-2.398-0.13-3.137-0.199
							c-0.739-0.067-1.147-0.121-1.145-0.157c0.002-0.036,0.413-0.05,1.155-0.045c0.852,0.009,1.9,0.02,3.138,0.034
							c2.648,0.028,6.306,0.021,10.343-0.135c4.035-0.158,7.683-0.435,10.321-0.668c1.233-0.109,2.277-0.202,3.126-0.277
							C390.147,317.921,390.559,317.903,390.563,317.939z"/>
					</g>
				</g>
				<g>
					<g>
						<path style="fill:#FAFAFA;" d="M347.223,337.078c-0.018,0.131-2.397-0.172-5.118-1.279c-2.728-1.094-4.649-2.529-4.571-2.635
							c0.083-0.131,2.094,1.082,4.766,2.152C344.965,336.401,347.254,336.926,347.223,337.078z"/>
					</g>
				</g>
			</g>
			<g>
				<g>
					<g>
						<g>
							<g>
								<g>
									<g>
										<g>
											<g>
												<g>
													<path style="fill:#FFBE9D;" d="M372.159,200.777l-0.95,0.002c-9.559,0.019-17.5,7.181-18.248,16.46
														c-0.696,8.631-1.352,18.174-1.284,22.803c0.142,9.585,9.99,11.056,9.99,11.056l-0.363,8.517
														c-0.216,6.359,4.68,11.729,11.031,12.101l0,0c6.513,0.381,12.084-4.627,12.396-11.143l2.042-40.495
														C387.633,210.124,382.402,201.339,372.159,200.777z"/>
												</g>
												<g>
													<g>
														<g>
															<g>
																<g>
																	<g>
																		<g>
																			<g>
																				<g>
																					<g>
																						<g>
																							<path style="fill:#EB996E;" d="M361.586,251.084c0,0,6.287,0.356,12.89-3.701c0,0-3.019,6.904-12.843,6.061
																								L361.586,251.084z"/>
																						</g>
																					</g>
																				</g>
																			</g>
																		</g>
																	</g>
																</g>
															</g>
														</g>
													</g>
												</g>
											</g>
										</g>
									</g>
									<g>
										<g>
											<g>
												<g>
													<g>
														<g>
															<g>
																<g>
																	<g>
																		<g>
																			<g>
																				<g>
																					<g>
																						<g>
																							<g>
																								<g>
																									<g>
																										<path style="fill:#263238;" d="M356.451,223.191c-0.025,0.723,0.583,1.339,1.358,1.378
																											c0.773,0.039,1.422-0.514,1.446-1.237c0.025-0.723-0.583-1.34-1.357-1.379
																											C357.124,221.914,356.476,222.468,356.451,223.191z"/>
																									</g>
																								</g>
																							</g>
																						</g>
																					</g>
																				</g>
																			</g>
																		</g>
																	</g>
																</g>
															</g>
															<g>
																<g>
																	<g>
																		<g>
																			<g>
																				<g>
																					<g>
																						<g>
																							<g>
																								<g>
																									<g>
																										<g>
																											<path style="fill:#263238;" d="M355.087,221.925c0.175,0.178,1.238-0.592,2.751-0.591
																												c1.511-0.02,2.623,0.735,2.786,0.555c0.081-0.08-0.098-0.402-0.582-0.744
																												c-0.477-0.34-1.289-0.671-2.231-0.665c-0.942,0.007-1.734,0.346-2.189,0.693
																												C355.158,221.521,355.001,221.845,355.087,221.925z"/>
																										</g>
																									</g>
																								</g>
																							</g>
																						</g>
																					</g>
																				</g>
																			</g>
																		</g>
																	</g>
																</g>
															</g>
														</g>
														<g>
															<g>
																<g>
																	<g>
																		<g>
																			<g>
																				<g>
																					<g>
																						<g>
																							<g>
																								<g>
																									<g>
																										<path style="fill:#263238;" d="M370.574,223.639c-0.025,0.723,0.584,1.339,1.359,1.378
																											c0.773,0.039,1.422-0.514,1.446-1.237c0.025-0.723-0.584-1.34-1.357-1.379
																											C371.246,222.362,370.598,222.916,370.574,223.639z"/>
																									</g>
																								</g>
																							</g>
																						</g>
																					</g>
																				</g>
																			</g>
																		</g>
																	</g>
																</g>
															</g>
															<g>
																<g>
																	<g>
																		<g>
																			<g>
																				<g>
																					<g>
																						<g>
																							<g>
																								<g>
																									<g>
																										<g>
																											<path style="fill:#263238;" d="M369.209,222.169c0.175,0.178,1.24-0.591,2.751-0.59
																												c1.511-0.02,2.623,0.735,2.787,0.555c0.08-0.08-0.096-0.402-0.582-0.743
																												c-0.477-0.341-1.289-0.671-2.231-0.665c-0.942,0.007-1.734,0.346-2.189,0.693
																												C369.281,221.767,369.124,222.09,369.209,222.169z"/>
																										</g>
																									</g>
																								</g>
																							</g>
																						</g>
																					</g>
																				</g>
																			</g>
																		</g>
																	</g>
																</g>
															</g>
														</g>
														<g>
															<g>
																<g>
																	<g>
																		<g>
																			<g>
																				<g>
																					<g>
																						<g>
																							<g>
																								<g>
																									<g>
																										<path style="fill:#263238;" d="M364.489,233.104c0.007-0.084-0.934-0.24-2.458-0.427
																											c-0.386-0.038-0.752-0.112-0.818-0.369c-0.092-0.272,0.069-0.677,0.255-1.116
																											c0.361-0.911,0.739-1.866,1.136-2.866c1.578-4.081,2.719-7.436,2.55-7.497
																											c-0.17-0.06-1.586,3.198-3.163,7.279c-0.38,1.006-0.743,1.966-1.088,2.883
																											c-0.145,0.428-0.396,0.913-0.197,1.477c0.104,0.281,0.388,0.484,0.636,0.549
																											c0.248,0.073,0.465,0.077,0.656,0.088C363.533,233.183,364.484,233.188,364.489,233.104z"/>
																									</g>
																								</g>
																							</g>
																						</g>
																					</g>
																				</g>
																			</g>
																		</g>
																	</g>
																</g>
															</g>
														</g>
														<g>
															<g>
																<g>
																	<g>
																		<g>
																			<g>
																				<g>
																					<g>
																						<g>
																							<g>
																								<g>
																									<g>
																										<path style="fill:#263238;" d="M368.943,234.114c-0.246-0.013-0.246,1.585-1.649,2.723
																											c-1.401,1.141-3.151,0.965-3.164,1.189c-0.022,0.1,0.391,0.31,1.129,0.328
																											c0.725,0.023,1.782-0.206,2.641-0.902c0.856-0.698,1.223-1.627,1.277-2.283
																											C369.24,234.5,369.056,234.105,368.943,234.114z"/>
																									</g>
																								</g>
																							</g>
																						</g>
																					</g>
																				</g>
																			</g>
																		</g>
																	</g>
																</g>
															</g>
														</g>
													</g>
												</g>
											</g>
											<g>
												<g>
													<g>
														<g>
															<g>
																<g>
																	<g>
																		<g>
																			<g>
																				<g>
																					<g>
																						<path style="fill:#263238;" d="M369.553,216.398c0.15,0.4,1.66,0.207,3.435,0.412
																							c1.779,0.17,3.212,0.673,3.446,0.314c0.105-0.172-0.146-0.548-0.725-0.935
																							c-0.574-0.386-1.49-0.752-2.556-0.866c-1.066-0.111-2.041,0.055-2.687,0.313
																							C369.816,215.893,369.489,216.208,369.553,216.398z"/>
																					</g>
																				</g>
																			</g>
																		</g>
																	</g>
																</g>
															</g>
														</g>
													</g>
												</g>
											</g>
											<g>
												<g>
													<g>
														<g>
															<g>
																<g>
																	<g>
																		<g>
																			<g>
																				<g>
																					<g>
																						<path style="fill:#263238;" d="M355.634,217.66c0.267,0.334,1.308-0.015,2.561-0.034
																							c1.252-0.062,2.314,0.22,2.558-0.13c0.107-0.17-0.061-0.505-0.525-0.821
																							c-0.457-0.315-1.222-0.571-2.083-0.544c-0.861,0.028-1.606,0.333-2.042,0.677
																							C355.661,217.153,355.516,217.497,355.634,217.66z"/>
																					</g>
																				</g>
																			</g>
																		</g>
																	</g>
																</g>
															</g>
														</g>
													</g>
												</g>
											</g>
										</g>
									</g>
								</g>
							</g>
						</g>
						<g>
							<g>
								<g>
									<g>
										<g>
											<g>
												<g>
													<g>
														<g>
															<g>
																<g>
																	<g>
																		<path style="fill:#FFBE9D;" d="M385.3,227.177c0.168-0.071,6.759-1.961,6.558,4.592
																			c-0.201,6.553-6.916,5.005-6.922,4.817C384.93,236.397,385.3,227.177,385.3,227.177z"/>
																	</g>
																</g>
															</g>
														</g>
													</g>
												</g>
											</g>
										</g>
									</g>
								</g>
							</g>
							<g>
								<g>
									<g>
										<g>
											<g>
												<g>
													<g>
														<g>
															<g>
																<g>
																	<g>
																		<g>
																			<path style="fill:#EB996E;" d="M386.476,234.162c0.03-0.02,0.115,0.083,0.31,0.178
																				c0.19,0.092,0.521,0.161,0.876,0.043c0.719-0.233,1.351-1.315,1.42-2.495c0.035-0.596-0.076-1.168-0.278-1.644
																				c-0.191-0.486-0.499-0.83-0.855-0.902c-0.354-0.09-0.613,0.111-0.702,0.293c-0.096,0.18-0.057,0.313-0.093,0.323
																				c-0.019,0.016-0.141-0.114-0.079-0.383c0.032-0.129,0.115-0.282,0.277-0.403
																				c0.165-0.123,0.405-0.182,0.653-0.148c0.518,0.05,0.971,0.529,1.194,1.052c0.251,0.526,0.39,1.169,0.35,1.839
																				c-0.084,1.319-0.816,2.535-1.797,2.78c-0.477,0.106-0.868-0.044-1.067-0.205
																				C386.483,234.321,386.452,234.173,386.476,234.162z"/>
																		</g>
																	</g>
																</g>
															</g>
														</g>
													</g>
												</g>
											</g>
										</g>
									</g>
								</g>
							</g>
						</g>
						<g>
							<g>
								<path style="fill:#263238;" d="M380.889,207.696l-28.064,0.602c0.872-1.885,2.431-3.395,4.123-4.644
									c3.647-2.693,8.131-4.375,12.707-4.453c4.577-0.078,13.894,5.35,17.209,8.424c2.653,2.459,2.636,4.587,2.636,4.587
									c0.421,3.543-1.615,7.571-2.425,11.049c-0.418,1.794-1.224,7.222-1.224,7.222s0,0-0.001,0
									c-1.546-0.005-2.121-1.204-1.886-2.692l0.289-5.84c0,0-5.259-3.639-2.767-10.3
									C381.888,211.121,382.741,208.688,380.889,207.696z"/>
							</g>
						</g>
					</g>
					<g>
						<g>
							<g>
								<g>
									<path style="fill:#EB996E;" d="M374.995,228.422c0.09,0.017,0.18-0.046,0.199-0.143c0.019-0.096-0.038-0.188-0.128-0.206
										c-0.09-0.017-0.179,0.047-0.199,0.143C374.848,228.312,374.905,228.404,374.995,228.422z"/>
								</g>
							</g>
						</g>
					</g>
					<g>
						<g>
							<g>
								<g>
									<path style="fill:#EB996E;" d="M372.104,227.789c0.09,0.017,0.182-0.058,0.204-0.168s-0.033-0.214-0.123-0.231
										c-0.09-0.017-0.182,0.058-0.204,0.169C371.959,227.668,372.014,227.772,372.104,227.789z"/>
								</g>
							</g>
						</g>
					</g>
					<g>
						<g>
							<g>
								<g>
									<path style="fill:#EB996E;" d="M370.158,227.746c0.091,0.011,0.18-0.098,0.199-0.244c0.019-0.146-0.04-0.273-0.132-0.284
										c-0.091-0.011-0.181,0.098-0.199,0.244C370.007,227.608,370.066,227.735,370.158,227.746z"/>
								</g>
							</g>
						</g>
					</g>
					<g>
						<g>
							<g>
								<g>
									<path style="fill:#EB996E;" d="M373.578,230.191c0.092,0,0.167-0.047,0.167-0.104c0-0.057-0.075-0.104-0.167-0.104
										c-0.092,0-0.167,0.047-0.167,0.104C373.411,230.145,373.486,230.191,373.578,230.191z"/>
								</g>
							</g>
						</g>
					</g>
					<g>
						<g>
							<g>
								<g>
									<path style="fill:#EB996E;" d="M370.926,229.598c0.092,0.008,0.173-0.068,0.182-0.17c0.009-0.102-0.058-0.19-0.15-0.198
										c-0.092-0.008-0.173,0.068-0.182,0.17C370.767,229.501,370.835,229.59,370.926,229.598z"/>
								</g>
							</g>
						</g>
					</g>
					<g>
						<g>
							<g>
								<g>
									<path style="fill:#EB996E;" d="M357.129,228.022c0.09,0.017,0.18-0.049,0.2-0.148c0.02-0.099-0.037-0.194-0.127-0.211
										c-0.09-0.017-0.18,0.049-0.2,0.148C356.982,227.91,357.039,228.004,357.129,228.022z"/>
								</g>
							</g>
						</g>
					</g>
					<g>
						<g>
							<g>
								<g>
									<path style="fill:#EB996E;" d="M355.159,227.85c0.092,0.008,0.175-0.076,0.186-0.188c0.011-0.113-0.054-0.211-0.146-0.219
										c-0.092-0.009-0.175,0.076-0.186,0.188C355.002,227.743,355.068,227.842,355.159,227.85z"/>
								</g>
							</g>
						</g>
					</g>
					<g>
						<g>
							<g>
								<g>
									<path style="fill:#EB996E;" d="M358.869,228.066c0.09,0.017,0.176-0.031,0.192-0.108c0.016-0.077-0.045-0.154-0.135-0.171
										c-0.09-0.017-0.176,0.031-0.192,0.108S358.778,228.048,358.869,228.066z"/>
								</g>
							</g>
						</g>
					</g>
					<g>
						<g>
							<g>
								<g>
									<path style="fill:#EB996E;" d="M357.412,229.987c0.084,0.036,0.187-0.012,0.23-0.107c0.043-0.095,0.009-0.201-0.075-0.237
										c-0.084-0.036-0.187,0.012-0.23,0.107C357.295,229.844,357.328,229.951,357.412,229.987z"/>
								</g>
							</g>
						</g>
					</g>
					<g>
						<g>
							<g>
								<g>
									<path style="fill:#EB996E;" d="M355.73,229.663c0.089-0.024,0.144-0.102,0.124-0.175c-0.021-0.073-0.109-0.112-0.198-0.089
										c-0.089,0.024-0.144,0.102-0.123,0.175C355.552,229.647,355.641,229.686,355.73,229.663z"/>
								</g>
							</g>
						</g>
					</g>
				</g>
				<g>
					<g>
						<path style="fill:#263238;" d="M387.049,207.999c0.716-2.393,0.003-5.059-1.575-7.023c-1.578-1.963-4.156-3.124-6.715-3.021
							c-1.311,0.052-2.613,0.414-3.917,0.275c-2.428-0.258-4.301-2.154-6.552-3.074c-3.509-1.435-7.973-0.131-10.091,2.948
							c-0.854,1.241-1.414,2.775-2.722,3.556c-1.131,0.676-2.556,0.62-3.826,0.992c-2.569,0.753-4.329,3.41-4.196,6.02
							c0.134,2.61,2.011,4.999,4.48,6.021c2.469,1.023,5.411,0.737,7.756-0.533c2.117-1.147,4.013-3.104,6.436-3.035
							c2.509,0.072,4.701,2.375,7.163,1.898c1.291-0.251,2.285-1.218,3.23-2.11c0.945-0.892,2.032-1.8,3.346-1.876
							c1.314-0.075,1.998,1.682,1.528,2.879L387.049,207.999"/>
					</g>
				</g>
				<g>
					<g>
						<g>
							<path style="fill:#455A64;" d="M353.37,204.83c-0.004,0.002,0.011,0.035,0.045,0.096c0.034,0.061,0.083,0.153,0.163,0.264
								c0.153,0.226,0.405,0.547,0.805,0.89c0.397,0.341,0.95,0.7,1.669,0.941c0.714,0.241,1.607,0.345,2.547,0.148
								c0.934-0.19,1.921-0.668,2.685-1.488c0.767-0.82,1.222-1.917,1.936-2.88c0.356-0.481,0.801-0.915,1.359-1.197
								c0.56-0.276,1.206-0.41,1.861-0.399c0.655,0.015,1.318,0.188,1.91,0.501c0.591,0.323,1.079,0.807,1.408,1.41
								c0.339,0.6,0.582,1.259,0.99,1.844c0.39,0.592,1.071,1.037,1.797,1.065c0.723,0.04,1.391-0.223,1.959-0.551
								c0.577-0.329,1.055-0.772,1.49-1.201c0.865-0.851,1.72-1.7,2.783-1.93c1.051-0.244,2.08,0.133,2.819,0.645
								c0.753,0.524,1.237,1.219,1.548,1.867c0.312,0.652,0.475,1.259,0.579,1.757c0.104,0.499,0.153,0.894,0.186,1.16
								c0.033,0.267,0.049,0.408,0.059,0.408c0.005,0,0.007-0.036,0.006-0.105c-0.001-0.069-0.002-0.172-0.011-0.307
								c-0.016-0.27-0.048-0.668-0.137-1.175c-0.089-0.506-0.239-1.126-0.545-1.799c-0.305-0.668-0.795-1.399-1.573-1.957
								c-0.762-0.542-1.841-0.959-2.982-0.707c-1.15,0.242-2.043,1.132-2.908,1.971c-0.439,0.428-0.895,0.846-1.447,1.157
								c-0.542,0.311-1.169,0.547-1.809,0.509c-0.642-0.03-1.226-0.406-1.592-0.955c-0.381-0.545-0.624-1.198-0.974-1.822
								c-0.343-0.632-0.883-1.173-1.514-1.512c-0.635-0.335-1.339-0.516-2.036-0.531c-0.696-0.01-1.385,0.134-1.986,0.434
								c-0.601,0.306-1.077,0.778-1.441,1.278c-0.732,1.005-1.173,2.089-1.901,2.877c-0.72,0.787-1.662,1.257-2.558,1.451
								c-0.902,0.201-1.762,0.115-2.458-0.105c-0.701-0.221-1.249-0.557-1.648-0.879C353.65,205.344,353.4,204.806,353.37,204.83z"
								/>
						</g>
					</g>
				</g>
				<g>
					<g>
						<g>
							<path style="fill:#455A64;" d="M348.283,204.927c-0.012-0.003-0.079,0.18-0.114,0.527c-0.036,0.345-0.023,0.858,0.142,1.464
								c0.169,0.602,0.5,1.294,1.052,1.929c0.549,0.637,1.323,1.188,2.219,1.573c1.815,0.775,3.656,0.705,4.895,0.539
								c0.628-0.087,1.129-0.197,1.47-0.285c0.342-0.088,0.526-0.153,0.522-0.169c-0.01-0.044-0.77,0.141-2.015,0.269
								c-1.231,0.117-3.019,0.151-4.764-0.595c-0.862-0.37-1.606-0.892-2.139-1.49c-0.537-0.597-0.872-1.25-1.057-1.822
								C348.128,205.703,348.344,204.927,348.283,204.927z"/>
						</g>
					</g>
				</g>
			</g>
		</g>
		<g>
			<g>
				<g>
					<g>
						<g>
							<g>
								<path style="fill:#E8505B;" d="M421.489,301.995c-0.171,12.865-8.01,24.714-18.236,32.523
									c-10.225,7.809-22.643,12.146-35.007,15.706s-25.002,6.501-36.633,12.003c-16.106,7.62-31.022,18.075-40.12,33.395
									c-9.098,15.32-12.341,35.443-11.322,53.232l136.781-13.677l7.491-77.744L421.489,301.995z"/>
							</g>
						</g>
					</g>
				</g>
				<g>
					<g>
						<path style="fill:#263238;" d="M298.909,384.712c0.014,0.011-0.108,0.203-0.352,0.558c-0.28,0.395-0.641,0.904-1.088,1.535
							c-0.48,0.661-1.074,1.464-1.687,2.449c-0.614,0.984-1.396,2.05-2.097,3.331c-0.731,1.262-1.557,2.629-2.306,4.173
							c-0.816,1.509-1.554,3.185-2.335,4.946c-1.489,3.552-2.888,7.56-3.974,11.874c-1.06,4.322-1.704,8.519-2.112,12.352
							c-0.175,1.92-0.339,3.746-0.391,5.461c-0.108,1.713-0.1,3.311-0.116,4.771c-0.04,1.46,0.044,2.779,0.057,3.939
							c0.013,1.16,0.074,2.158,0.12,2.973c0.035,0.773,0.064,1.396,0.086,1.88c0.014,0.43,0.013,0.657-0.005,0.659
							c-0.018,0.002-0.052-0.222-0.099-0.65c-0.047-0.483-0.108-1.105-0.184-1.875c-0.077-0.815-0.168-1.812-0.209-2.975
							c-0.041-1.162-0.151-2.484-0.135-3.949c-0.008-1.464-0.037-3.069,0.053-4.79c0.033-1.723,0.181-3.559,0.344-5.49
							c0.384-3.855,1.017-8.081,2.085-12.431c1.093-4.342,2.516-8.373,4.039-11.938c0.798-1.767,1.555-3.447,2.393-4.956
							c0.77-1.544,1.619-2.908,2.374-4.164c0.725-1.275,1.532-2.332,2.171-3.304c0.639-0.973,1.258-1.762,1.764-2.406
							c0.48-0.608,0.868-1.099,1.169-1.479C298.746,384.871,298.895,384.701,298.909,384.712z"/>
					</g>
				</g>
			</g>
			<g style="opacity:0.4;">
				<g>
					<g>
						<g>
							<path d="M421.489,301.995c-0.171,12.865-8.01,24.714-18.236,32.523c-10.225,7.809-22.643,12.146-35.007,15.706
								s-25.002,6.501-36.633,12.003c-16.106,7.62-31.022,18.075-40.12,33.395c-9.098,15.32-12.341,35.443-11.322,53.232
								l136.781-13.677l7.491-77.744L421.489,301.995z"/>
						</g>
					</g>
				</g>
			</g>
		</g>
	</g>
</g>
<g id="Plant">
	<g>
		<g>
			<g>
				<path style="fill:#E8505B;" d="M105.785,359.848c-11.812-12.09-30.32-17.169-46.649-12.803
					c14.184,9.51,30.124,14.607,47.2,14.747"/>
			</g>
		</g>
		<g>
			<g>
				<g>
					<path style="fill:#E8505B;" d="M89.963,303.819c1.944-13.746-3.398-29.21-13.691-39.202
						C75.932,278.241,81.684,293.571,89.963,303.819"/>
				</g>
			</g>
			<g>
				<g>
					<path style="fill:#E8505B;" d="M98.193,329.786c-7.334-14.02-19.374-25.525-33.711-32.217
						c4.297,15.828,17.834,28.775,33.837,32.363"/>
				</g>
			</g>
			<g>
				<g>
					<path style="fill:#E8505B;" d="M99.897,334.796c-8.303,0.233-16.705-0.059-24.734-2.184c-8.03-2.125-15.72-6.208-21.063-12.568
						c16.152,0.018,32.265,4.937,45.673,13.943"/>
				</g>
			</g>
			<g>
				<g>
					<path style="fill:#E8505B;" d="M95.683,318.293c4.214-15.795,11.168-26.721,23.583-35.573
						c0.939,7.685-0.95,15.685-5.228,22.138C109.76,311.311,103.128,316.166,95.683,318.293"/>
				</g>
			</g>
			<g>
				<g>
					<path style="fill:#E8505B;" d="M127.023,345.533c0.218-9.179-5.698-18.198-14.204-21.655
						C113.509,332.034,119.917,341.47,127.023,345.533"/>
				</g>
			</g>
			<g>
				<g>
					<path style="fill:#E8505B;" d="M130.99,332.215c0.943-13.194,10.318-25.401,22.822-29.717
						C150.945,315.697,143.313,326.685,130.99,332.215"/>
				</g>
			</g>
			<g>
				<g>
					<path style="fill:#E8505B;" d="M125.012,355.849c2.928-4.188,7.706-6.793,12.65-8.087c4.944-1.293,10.109-1.408,15.219-1.515
						c-6.893,7.583-17.242,11.894-27.48,11.445"/>
				</g>
			</g>
			<g>
				<g>
					<path style="fill:#E8505B;" d="M119.078,389.516c9.211-2.843,19.476-2.108,28.187,2.019
						c8.711,4.127,15.783,11.604,19.417,20.532C149.39,408.785,132.326,401.105,119.078,389.516"/>
				</g>
			</g>
			<g>
				<g>
					<path style="fill:#E8505B;" d="M100.099,377.815c2.873,8.492,2.321,18.755-4.065,26.074
						C93.436,395.176,94.972,385.325,100.099,377.815"/>
				</g>
			</g>
			<g>
				<g>
					<path style="fill:#E8505B;" d="M88.883,373.099c-0.799,10.918-7.78,21.173-17.644,25.921c-0.49,0.236-1.057,0.462-1.56,0.257
						c-0.778-0.317-0.849-1.379-0.753-2.214C70.176,386.184,78.236,375.662,88.883,373.099"/>
				</g>
			</g>
			<g>
				<g>
					<path style="fill:#E8505B;" d="M81.555,371.996c-4.858,5.249-11.941,8.366-19.093,8.403
						c-7.151,0.036-14.266-3.008-19.177-8.207C55.45,370.86,69.486,369.972,81.555,371.996"/>
				</g>
			</g>
			<g>
				<g>
					<g>
						<g>
							<path style="fill:#263238;" d="M79.734,274.748c-0.007,0.003,0.03,0.124,0.112,0.356c0.091,0.252,0.214,0.593,0.371,1.029
								c0.344,0.924,0.837,2.247,1.467,3.939c0.655,1.704,1.41,3.805,2.285,6.246c0.44,1.22,0.911,2.524,1.409,3.905
								c0.48,1.39,0.987,2.859,1.519,4.4c2.155,6.16,4.548,13.553,7.132,21.785c2.536,8.247,5.201,17.351,7.822,26.956
								c2.586,9.618,4.878,18.825,6.829,27.231c1.896,8.417,3.526,16.016,4.704,22.435c0.302,1.602,0.59,3.129,0.863,4.574
								c0.246,1.448,0.478,2.814,0.696,4.093c0.441,2.554,0.818,4.755,1.071,6.562c0.274,1.785,0.488,3.18,0.638,4.154
								c0.075,0.457,0.134,0.814,0.178,1.079c0.043,0.243,0.068,0.366,0.076,0.365c0.008-0.001-0.002-0.127-0.029-0.372
								c-0.032-0.266-0.076-0.626-0.132-1.085c-0.129-0.977-0.315-2.377-0.552-4.168c-0.226-1.812-0.577-4.018-0.994-6.578
								c-0.206-1.281-0.427-2.651-0.661-4.102c-0.263-1.448-0.54-2.977-0.831-4.583c-1.137-6.431-2.735-14.042-4.609-22.47
								c-1.929-8.416-4.211-17.633-6.798-27.257c-2.623-9.611-5.301-18.717-7.862-26.962c-2.608-8.229-5.034-15.617-7.23-21.766
								c-0.543-1.538-1.061-3.004-1.551-4.391c-0.511-1.378-0.993-2.678-1.444-3.895c-0.899-2.433-1.678-4.526-2.36-6.22
								c-0.666-1.68-1.186-2.992-1.549-3.909c-0.175-0.429-0.312-0.764-0.414-1.012C79.794,274.86,79.741,274.745,79.734,274.748z"
								/>
						</g>
					</g>
				</g>
				<g>
					<g>
						<g>
							<path style="fill:#263238;" d="M146.552,309.544c-0.006-0.005-0.077,0.062-0.21,0.198c-0.148,0.156-0.34,0.358-0.582,0.612
								c-0.508,0.541-1.244,1.351-2.163,2.42c-1.836,2.136-4.428,5.304-7.162,9.55c-2.735,4.233-5.538,9.625-7.489,16.022
								c-2.007,6.378-3.252,13.628-4.492,21.204c-2.474,15.168-5.508,28.753-7.705,38.58c-1.107,4.889-2.006,8.855-2.635,11.633
								c-0.299,1.352-0.534,2.412-0.701,3.167c-0.071,0.343-0.128,0.615-0.171,0.826c-0.036,0.187-0.051,0.283-0.043,0.285
								c0.008,0.002,0.038-0.091,0.089-0.274c0.055-0.208,0.126-0.477,0.216-0.816c0.187-0.749,0.451-1.803,0.786-3.147
								c0.663-2.77,1.611-6.725,2.779-11.601c2.279-9.809,5.368-23.394,7.844-38.578c1.24-7.579,2.469-14.805,4.442-21.154
								c1.918-6.366,4.669-11.733,7.357-15.972c2.687-4.25,5.232-7.441,7.023-9.609c0.896-1.085,1.609-1.913,2.094-2.474
								c0.227-0.267,0.407-0.478,0.547-0.642C146.498,309.628,146.558,309.55,146.552,309.544z"/>
						</g>
					</g>
				</g>
				<g>
					<g>
						<g>
							<path style="fill:#263238;" d="M77.921,371.479c-0.001,0.016,0.15,0.043,0.438,0.08c0.341,0.038,0.757,0.084,1.26,0.139
								c0.28,0.027,0.583,0.057,0.91,0.089c0.335,0.05,0.694,0.104,1.076,0.162c0.772,0.114,1.652,0.228,2.611,0.44
								c0.483,0.096,0.987,0.196,1.51,0.301c0.52,0.132,1.06,0.268,1.618,0.41c1.126,0.254,2.289,0.667,3.529,1.041
								c2.445,0.858,5.078,1.96,7.702,3.394c2.615,1.453,4.93,3.128,6.906,4.797c0.959,0.868,1.884,1.681,2.65,2.544
								c0.819,0.812,1.483,1.655,2.097,2.419c0.647,0.74,1.097,1.507,1.552,2.139c0.462,0.63,0.794,1.212,1.063,1.691
								c0.257,0.435,0.47,0.794,0.645,1.09c0.152,0.247,0.239,0.374,0.254,0.367c0.014-0.007-0.045-0.147-0.17-0.409
								c-0.155-0.308-0.343-0.682-0.571-1.136c-0.246-0.495-0.558-1.096-1.003-1.744c-0.438-0.651-0.874-1.439-1.51-2.199
								c-0.603-0.784-1.26-1.649-2.076-2.482c-0.762-0.883-1.687-1.716-2.65-2.604c-1.983-1.707-4.319-3.412-6.962-4.881
								c-2.652-1.449-5.317-2.551-7.792-3.394c-1.255-0.367-2.432-0.768-3.571-1.008c-0.564-0.133-1.11-0.262-1.636-0.387
								c-0.529-0.095-1.039-0.186-1.527-0.273c-0.969-0.193-1.859-0.285-2.638-0.375c-0.385-0.044-0.747-0.086-1.086-0.124
								c-0.329-0.018-0.635-0.034-0.918-0.049c-0.506-0.021-0.925-0.038-1.269-0.052C78.074,371.459,77.921,371.463,77.921,371.479z
								"/>
						</g>
					</g>
				</g>
			</g>
			<g>
				<g>
					<g>
						<path style="fill:#263238;" d="M74.456,309.836c-0.021,0.024,0.292,0.324,0.876,0.844c0.66,0.572,1.5,1.301,2.503,2.172
							c2.127,1.818,5.087,4.306,8.374,7.032c3.289,2.727,6.282,5.174,8.463,6.928c1.042,0.825,1.913,1.515,2.598,2.058
							c0.62,0.478,0.972,0.73,0.992,0.705c0.02-0.025-0.294-0.325-0.879-0.846c-0.66-0.573-1.5-1.301-2.504-2.172
							c-2.127-1.818-5.086-4.305-8.372-7.03c-3.286-2.724-6.277-5.17-8.458-6.924c-1.042-0.826-1.914-1.516-2.599-2.059
							C74.83,310.064,74.477,309.811,74.456,309.836z"/>
					</g>
				</g>
			</g>
			<g>
				<g>
					<g>
						<path style="fill:#263238;" d="M71.466,325.927c-0.036,0.123,6.351,2.119,14.265,4.457c7.917,2.339,14.361,4.135,14.398,4.011
							c0.036-0.123-6.35-2.118-14.266-4.457C77.948,327.6,71.502,325.804,71.466,325.927z"/>
					</g>
				</g>
			</g>
			<g>
				<g>
					<g>
						<path style="fill:#263238;" d="M95.05,319.521c0.028,0.016,0.261-0.311,0.659-0.917c0.45-0.685,1.013-1.544,1.684-2.565
							c1.428-2.16,3.456-5.108,5.853-8.246c2.401-3.137,4.711-5.87,6.413-7.822c0.805-0.919,1.482-1.692,2.022-2.308
							c0.477-0.546,0.73-0.859,0.706-0.881c-0.023-0.022-0.32,0.248-0.838,0.757c-0.52,0.507-1.25,1.262-2.135,2.212
							c-1.769,1.9-4.128,4.61-6.538,7.759c-2.407,3.151-4.4,6.14-5.76,8.352c-0.68,1.106-1.213,2.012-1.562,2.649
							C95.204,319.146,95.023,319.505,95.05,319.521z"/>
					</g>
				</g>
			</g>
			<g>
				<g>
					<g>
						<path style="fill:#263238;" d="M117.232,328.452c-0.056,0.04,0.545,0.964,1.499,2.464c0.955,1.5,2.249,3.586,3.59,5.941
							c1.34,2.357,2.471,4.536,3.273,6.123c0.802,1.587,1.29,2.574,1.353,2.547c0.055-0.024-0.327-1.06-1.056-2.689
							c-0.728-1.629-1.819-3.842-3.165-6.211c-1.348-2.367-2.693-4.436-3.721-5.893
							C117.977,329.275,117.281,328.417,117.232,328.452z"/>
					</g>
				</g>
			</g>
			<g>
				<g>
					<g>
						<path style="fill:#263238;" d="M124.821,356.289c0.033,0.063,1.251-0.533,3.246-1.43c1.994-0.898,4.779-2.071,7.925-3.174
							c3.149-1.1,6.058-1.92,8.176-2.461c2.119-0.543,3.442-0.836,3.429-0.906c-0.006-0.031-0.344,0.005-0.951,0.099
							c-0.607,0.091-1.481,0.256-2.554,0.487c-2.147,0.461-5.087,1.236-8.254,2.342c-3.165,1.11-5.946,2.338-7.912,3.316
							c-0.984,0.488-1.769,0.904-2.3,1.212C125.094,356.078,124.806,356.26,124.821,356.289z"/>
					</g>
				</g>
			</g>
			<g>
				<g>
					<g>
						<path style="fill:#263238;" d="M118.847,389.567c-0.004,0.016,0.132,0.061,0.394,0.133c0.316,0.081,0.695,0.177,1.15,0.293
							c1.077,0.249,2.511,0.579,4.248,0.98c3.581,0.832,8.57,1.873,13.875,3.662c5.306,1.806,9.858,4.103,12.945,6.081
							c1.547,0.986,2.753,1.856,3.566,2.483c0.817,0.623,1.262,0.979,1.286,0.951c0.01-0.012-0.088-0.116-0.286-0.302
							c-0.201-0.182-0.487-0.464-0.887-0.79c-0.782-0.674-1.965-1.59-3.501-2.617c-3.063-2.064-7.633-4.428-12.973-6.246
							c-5.347-1.803-10.356-2.793-13.957-3.544c-1.75-0.342-3.195-0.624-4.28-0.836
							C119.416,389.628,118.854,389.535,118.847,389.567z"/>
					</g>
				</g>
			</g>
			<g>
				<g>
					<g>
						<path style="fill:#263238;" d="M97.241,397.77c0.127,0.019,0.888-4.462,1.699-10.006c0.811-5.546,1.366-10.055,1.238-10.074
							c-0.127-0.019-0.887,4.461-1.699,10.007C97.669,393.241,97.114,397.751,97.241,397.77z"/>
					</g>
				</g>
			</g>
			<g>
				<g>
					<g>
						<path style="fill:#263238;" d="M74.748,389.602c0.054,0.04,0.811-0.895,2.027-2.407c1.216-1.513,2.9-3.598,4.804-5.865
							c1.906-2.267,3.67-4.285,4.951-5.743c1.281-1.459,2.071-2.365,2.022-2.411c-0.023-0.022-0.251,0.176-0.644,0.552
							c-0.394,0.376-0.948,0.935-1.62,1.637c-1.346,1.404-3.154,3.393-5.065,5.666c-1.909,2.273-3.557,4.396-4.708,5.964
							c-0.576,0.784-1.031,1.426-1.334,1.878C74.877,389.324,74.722,389.583,74.748,389.602z"/>
					</g>
				</g>
			</g>
		</g>
		<g>
			<g>
				<polygon style="fill:#455A64;" points="134.275,410.464 134.275,421.579 131.497,421.579 121.617,452.762 99.708,452.762 
					90.137,421.888 86.432,421.579 86.432,410.464 				"/>
			</g>
		</g>
		<g>
			<g>
				<g>
					<path style="fill:#263238;" d="M88.284,421.888c0,0.128,9.674,0.233,21.605,0.233c11.935,0,21.607-0.104,21.607-0.233
						c0-0.128-9.672-0.233-21.607-0.233C97.959,421.655,88.284,421.759,88.284,421.888z"/>
				</g>
			</g>
		</g>
		<g>
			<g>
				<g>
					<path style="fill:#263238;" d="M72.527,350.394c-0.006,0.032,0.494,0.165,1.404,0.38c0.987,0.238,2.282,0.55,3.846,0.927
						c3.241,0.803,7.691,2.021,12.519,3.642c4.828,1.627,9.111,3.345,12.178,4.664c1.473,0.645,2.694,1.178,3.624,1.585
						c0.854,0.379,1.334,0.575,1.348,0.546c0.014-0.029-0.438-0.28-1.27-0.71c-0.83-0.433-2.048-1.024-3.569-1.723
						c-3.04-1.399-7.319-3.172-12.163-4.804c-4.844-1.626-9.325-2.799-12.592-3.521c-1.634-0.363-2.962-0.628-3.885-0.784
						C73.045,350.436,72.533,350.363,72.527,350.394z"/>
				</g>
			</g>
		</g>
		<g>
			<g>
				<g>
					<path style="fill:#FAFAFA;" d="M95.558,439.204c0,0.128,6.787,0.233,15.158,0.233c8.374,0,15.159-0.104,15.159-0.233
						s-6.786-0.233-15.159-0.233C102.346,438.972,95.558,439.076,95.558,439.204z"/>
				</g>
			</g>
		</g>
		<g>
			<g>
				<g>
					<path style="fill:#FAFAFA;" d="M94.706,436.626c0,0.128,7.193,0.233,16.064,0.233c8.874,0,16.065-0.104,16.065-0.233
						c0-0.128-7.191-0.233-16.065-0.233C101.899,436.394,94.706,436.498,94.706,436.626z"/>
				</g>
			</g>
		</g>
	</g>
</g>
</svg>
