<svg width="276" height="177" viewBox="0 0 276 177" fill="none" xmlns="http://www.w3.org/2000/svg">
<g clip-path="url(#clip0_106_1305)">
<rect width="276" height="177" rx="8" fill="url(#paint0_linear_106_1305)"/>
<path d="M27.4821 156.142C-10.9657 146.885 -41.0907 190.093 -52 218H402V6.297C391.773 3.09746 288.615 26.1514 236.893 56.0138C185.171 85.8762 157.008 109.009 134.724 156.142C114.57 198.771 77.0455 168.075 27.4821 156.142Z" fill="url(#paint1_linear_106_1305)" fill-opacity="0.4"/>
<path d="M19.0227 27.5455L19.1023 25.358L17.2528 26.5312L16.7756 25.696L18.7244 24.6818L16.7756 23.6676L17.2528 22.8324L19.1023 24.0057L19.0227 21.8182H19.9773L19.8977 24.0057L21.7472 22.8324L22.2244 23.6676L20.2756 24.6818L22.2244 25.696L21.7472 26.5312L19.8977 25.358L19.9773 27.5455H19.0227ZM25.7427 27.5455L25.8223 25.358L23.9728 26.5312L23.4956 25.696L25.4444 24.6818L23.4956 23.6676L23.9728 22.8324L25.8223 24.0057L25.7427 21.8182H26.6973L26.6177 24.0057L28.4672 22.8324L28.9444 23.6676L26.9956 24.6818L28.9444 25.696L28.4672 26.5312L26.6177 25.358L26.6973 27.5455H25.7427ZM32.4627 27.5455L32.5423 25.358L30.6928 26.5312L30.2156 25.696L32.1644 24.6818L30.2156 23.6676L30.6928 22.8324L32.5423 24.0057L32.4627 21.8182H33.4173L33.3377 24.0057L35.1872 22.8324L35.6644 23.6676L33.7156 24.6818L35.6644 25.696L35.1872 26.5312L33.3377 25.358L33.4173 27.5455H32.4627ZM39.1827 27.5455L39.2623 25.358L37.4128 26.5312L36.9356 25.696L38.8844 24.6818L36.9356 23.6676L37.4128 22.8324L39.2623 24.0057L39.1827 21.8182H40.1373L40.0577 24.0057L41.9072 22.8324L42.3844 23.6676L40.4356 24.6818L42.3844 25.696L41.9072 26.5312L40.0577 25.358L40.1373 27.5455H39.1827ZM45.9027 27.5455L45.9823 25.358L44.1328 26.5312L43.6556 25.696L45.6044 24.6818L43.6556 23.6676L44.1328 22.8324L45.9823 24.0057L45.9027 21.8182H46.8573L46.7777 24.0057L48.6272 22.8324L49.1044 23.6676L47.1556 24.6818L49.1044 25.696L48.6272 26.5312L46.7777 25.358L46.8573 27.5455H45.9027ZM52.6227 27.5455L52.7023 25.358L50.8528 26.5312L50.3756 25.696L52.3244 24.6818L50.3756 23.6676L50.8528 22.8324L52.7023 24.0057L52.6227 21.8182H53.5773L53.4977 24.0057L55.3472 22.8324L55.8244 23.6676L53.8756 24.6818L55.8244 25.696L55.3472 26.5312L53.4977 25.358L53.5773 27.5455H52.6227ZM59.3427 27.5455L59.4223 25.358L57.5728 26.5312L57.0956 25.696L59.0444 24.6818L57.0956 23.6676L57.5728 22.8324L59.4223 24.0057L59.3427 21.8182H60.2973L60.2177 24.0057L62.0672 22.8324L62.5444 23.6676L60.5956 24.6818L62.5444 25.696L62.0672 26.5312L60.2177 25.358L60.2973 27.5455H59.3427ZM66.0627 27.5455L66.1423 25.358L64.2928 26.5312L63.8156 25.696L65.7644 24.6818L63.8156 23.6676L64.2928 22.8324L66.1423 24.0057L66.0627 21.8182H67.0173L66.9377 24.0057L68.7872 22.8324L69.2644 23.6676L67.3156 24.6818L69.2644 25.696L68.7872 26.5312L66.9377 25.358L67.0173 27.5455H66.0627ZM73.9958 32.1392C73.4125 32.1392 72.8871 32.0232 72.4198 31.7912C71.9525 31.5592 71.5779 31.241 71.2962 30.8366C71.0145 30.4323 70.8604 29.9716 70.8339 29.4545H72.027C72.0734 29.9152 72.2823 30.2964 72.6535 30.598C73.028 30.8963 73.4754 31.0455 73.9958 31.0455C74.4134 31.0455 74.7846 30.9477 75.1094 30.7521C75.4376 30.5566 75.6944 30.2881 75.88 29.9467C76.0689 29.602 76.1634 29.2126 76.1634 28.7784C76.1634 28.3343 76.0656 27.9382 75.8701 27.5902C75.6778 27.2389 75.4127 26.9621 75.0746 26.7599C74.7366 26.5578 74.3504 26.455 73.9162 26.4517C73.6047 26.4484 73.2849 26.4964 72.9567 26.5959C72.6286 26.692 72.3585 26.8163 72.1464 26.9688L70.993 26.8295L71.6094 21.8182H76.8992V22.9119H72.6435L72.2856 25.9148H72.3452C72.554 25.7491 72.8159 25.6115 73.1307 25.5021C73.4456 25.3928 73.7737 25.3381 74.1151 25.3381C74.7382 25.3381 75.2934 25.4872 75.7806 25.7855C76.2711 26.0805 76.6556 26.4848 76.934 26.9986C77.2157 27.5123 77.3566 28.099 77.3566 28.7585C77.3566 29.4081 77.2108 29.9882 76.9191 30.4986C76.6307 31.0057 76.233 31.4067 75.7259 31.7017C75.2188 31.9934 74.6421 32.1392 73.9958 32.1392ZM82.4919 32.1392C81.8356 32.1392 81.2507 32.0265 80.7369 31.8011C80.2265 31.5758 79.8205 31.2625 79.5189 30.8615C79.2206 30.4571 79.0582 29.9882 79.0317 29.4545H80.2845C80.311 29.7827 80.4237 30.0661 80.6226 30.3047C80.8214 30.54 81.0816 30.7223 81.4031 30.8516C81.7246 30.9808 82.0809 31.0455 82.472 31.0455C82.9095 31.0455 83.2973 30.9692 83.6354 30.8168C83.9734 30.6643 84.2386 30.4522 84.4308 30.1804C84.6231 29.9086 84.7192 29.5938 84.7192 29.2358C84.7192 28.8613 84.6264 28.5315 84.4408 28.2464C84.2552 27.9581 83.9834 27.7327 83.6254 27.5703C83.2675 27.4079 82.83 27.3267 82.3129 27.3267H81.4976V26.233H82.3129C82.7173 26.233 83.0719 26.16 83.3768 26.0142C83.6851 25.8684 83.9254 25.6629 84.0977 25.3977C84.2734 25.1326 84.3612 24.821 84.3612 24.4631C84.3612 24.1184 84.285 23.8184 84.1325 23.5632C83.9801 23.308 83.7646 23.1091 83.4862 22.9666C83.2111 22.8241 82.8863 22.7528 82.5118 22.7528C82.1605 22.7528 81.829 22.8175 81.5175 22.9467C81.2092 23.0727 80.9573 23.2566 80.7618 23.4986C80.5662 23.7372 80.4602 24.0256 80.4436 24.3636H79.2504C79.2703 23.83 79.4311 23.3627 79.7327 22.9616C80.0343 22.5573 80.4287 22.2424 80.9159 22.017C81.4064 21.7917 81.945 21.679 82.5317 21.679C83.1614 21.679 83.7016 21.8066 84.1524 22.0618C84.6032 22.3137 84.9495 22.6468 85.1915 23.0611C85.4334 23.4754 85.5544 23.9228 85.5544 24.4034C85.5544 24.9768 85.4036 25.4657 85.102 25.87C84.8037 26.2744 84.3977 26.5545 83.8839 26.7102V26.7898C84.5269 26.8958 85.0291 27.1693 85.3903 27.6101C85.7516 28.0476 85.9322 28.5895 85.9322 29.2358C85.9322 29.7893 85.7814 30.2865 85.4798 30.7273C85.1815 31.1648 84.7739 31.5095 84.2568 31.7614C83.7398 32.0133 83.1515 32.1392 82.4919 32.1392Z" fill="white"/>
<path d="M25.7195 57.2536H23.8601C23.8071 56.9486 23.7093 56.6785 23.5668 56.4432C23.4242 56.2045 23.2469 56.0024 23.0348 55.8366C22.8227 55.6709 22.5807 55.5466 22.3089 55.4638C22.0405 55.3776 21.7505 55.3345 21.4389 55.3345C20.8854 55.3345 20.3949 55.4737 19.9673 55.7521C19.5398 56.0272 19.205 56.4316 18.9631 56.9652C18.7211 57.4955 18.6001 58.1435 18.6001 58.9091C18.6001 59.688 18.7211 60.3442 18.9631 60.8778C19.2083 61.4081 19.5431 61.8092 19.9673 62.081C20.3949 62.3494 20.8838 62.4837 21.4339 62.4837C21.7389 62.4837 22.0239 62.4439 22.2891 62.3643C22.5575 62.2815 22.7978 62.1605 23.0099 62.0014C23.2254 61.8423 23.406 61.6468 23.5518 61.4148C23.701 61.1828 23.8037 60.9176 23.8601 60.6193L25.7195 60.6293C25.6499 61.1132 25.4991 61.5672 25.267 61.9915C25.0384 62.4157 24.7384 62.7902 24.3672 63.1151C23.996 63.4366 23.5618 63.6884 23.0646 63.8707C22.5675 64.0497 22.0156 64.1392 21.4091 64.1392C20.5142 64.1392 19.7154 63.9321 19.0128 63.5178C18.3101 63.1035 17.7566 62.5052 17.3523 61.723C16.9479 60.9408 16.7457 60.0028 16.7457 58.9091C16.7457 57.812 16.9496 56.8741 17.3572 56.0952C17.7649 55.313 18.3201 54.7147 19.0227 54.3004C19.7254 53.8861 20.5208 53.679 21.4091 53.679C21.9759 53.679 22.5028 53.7585 22.9901 53.9176C23.4773 54.0767 23.9115 54.3104 24.2926 54.6186C24.6738 54.9235 24.987 55.2981 25.2322 55.7422C25.4808 56.183 25.6432 56.6868 25.7195 57.2536ZM32.1962 60.7884V56.3636H33.9959V64H32.2509V62.6428H32.1713C31.999 63.0703 31.7156 63.42 31.3212 63.6918C30.9301 63.9635 30.4479 64.0994 29.8745 64.0994C29.374 64.0994 28.9315 63.9884 28.5471 63.7663C28.1659 63.541 27.8676 63.2145 27.6522 62.7869C27.4367 62.3561 27.329 61.8357 27.329 61.2259V56.3636H29.1287V60.9474C29.1287 61.4313 29.2613 61.8158 29.5265 62.1009C29.7916 62.3859 30.1396 62.5284 30.5705 62.5284C30.8356 62.5284 31.0925 62.4638 31.3411 62.3345C31.5897 62.2053 31.7935 62.013 31.9526 61.7578C32.115 61.4993 32.1962 61.1761 32.1962 60.7884ZM35.8466 64V56.3636H37.5916V57.6364H37.6712C37.8104 57.1955 38.049 56.8558 38.3871 56.6172C38.7285 56.3752 39.1179 56.2543 39.5554 56.2543C39.6548 56.2543 39.7659 56.2592 39.8885 56.2692C40.0144 56.2758 40.1188 56.2874 40.2017 56.304V57.9595C40.1255 57.933 40.0045 57.9098 39.8388 57.8899C39.6764 57.8667 39.5189 57.8551 39.3665 57.8551C39.0384 57.8551 38.7434 57.9264 38.4815 58.0689C38.223 58.2081 38.0192 58.402 37.87 58.6506C37.7209 58.8991 37.6463 59.1858 37.6463 59.5107V64H35.8466ZM41.3974 64V56.3636H43.1424V57.6364H43.2219C43.3612 57.1955 43.5998 56.8558 43.9379 56.6172C44.2792 56.3752 44.6687 56.2543 45.1062 56.2543C45.2056 56.2543 45.3166 56.2592 45.4393 56.2692C45.5652 56.2758 45.6696 56.2874 45.7525 56.304V57.9595C45.6763 57.933 45.5553 57.9098 45.3896 57.8899C45.2272 57.8667 45.0697 57.8551 44.9173 57.8551C44.5891 57.8551 44.2942 57.9264 44.0323 58.0689C43.7738 58.2081 43.57 58.402 43.4208 58.6506C43.2717 58.8991 43.1971 59.1858 43.1971 59.5107V64H41.3974ZM50.0144 64.1491C49.2488 64.1491 48.5875 63.9901 48.0307 63.6719C47.4772 63.3504 47.0513 62.8963 46.753 62.3097C46.4547 61.7197 46.3056 61.0253 46.3056 60.2266C46.3056 59.4411 46.4547 58.7517 46.753 58.1584C47.0546 57.5618 47.4756 57.0978 48.0158 56.7663C48.556 56.4316 49.1908 56.2642 49.9199 56.2642C50.3906 56.2642 50.8347 56.3404 51.2523 56.4929C51.6732 56.642 52.0444 56.8741 52.3659 57.1889C52.6908 57.5038 52.946 57.9048 53.1316 58.392C53.3172 58.8759 53.41 59.4527 53.41 60.1222V60.674H47.1507V59.4609H51.6848C51.6815 59.1162 51.6069 58.8097 51.4611 58.5412C51.3153 58.2694 51.1114 58.0556 50.8496 57.8999C50.5911 57.7441 50.2895 57.6662 49.9448 57.6662C49.5769 57.6662 49.2537 57.7557 48.9753 57.9347C48.6969 58.1103 48.4798 58.3423 48.324 58.6307C48.1716 58.9157 48.0937 59.2289 48.0904 59.5703V60.6293C48.0904 61.0734 48.1716 61.4545 48.334 61.7727C48.4964 62.0876 48.7234 62.3295 49.0151 62.4986C49.3068 62.6643 49.6481 62.7472 50.0392 62.7472C50.3011 62.7472 50.5381 62.7107 50.7502 62.6378C50.9623 62.5616 51.1462 62.4505 51.302 62.3047C51.4578 62.1589 51.5755 61.9782 51.655 61.7628L53.3354 61.9517C53.2293 62.3958 53.0272 62.7836 52.7289 63.1151C52.4339 63.4432 52.056 63.6984 51.5953 63.8807C51.1346 64.0597 50.6077 64.1491 50.0144 64.1491ZM56.7322 59.5256V64H54.9325V56.3636H56.6527V57.6612H56.7422C56.9179 57.2337 57.1979 56.8939 57.5824 56.642C57.9702 56.3902 58.4491 56.2642 59.0192 56.2642C59.5462 56.2642 60.0052 56.3769 60.3963 56.6023C60.7907 56.8277 61.0956 57.1541 61.3111 57.5817C61.5298 58.0092 61.6375 58.5279 61.6342 59.1378V64H59.8345V59.4162C59.8345 58.9058 59.7019 58.5064 59.4368 58.218C59.175 57.9297 58.812 57.7855 58.348 57.7855C58.0331 57.7855 57.7531 57.8551 57.5078 57.9943C57.2659 58.1302 57.0753 58.3274 56.9361 58.5859C56.8002 58.8445 56.7322 59.1577 56.7322 59.5256ZM67.277 56.3636V57.7557H62.8871V56.3636H67.277ZM63.9709 54.5341H65.7706V61.7031C65.7706 61.9451 65.8071 62.1307 65.88 62.2599C65.9562 62.3859 66.0556 62.4721 66.1783 62.5185C66.3009 62.5649 66.4368 62.5881 66.5859 62.5881C66.6986 62.5881 66.8014 62.5798 66.8942 62.5632C66.9903 62.5466 67.0632 62.5317 67.1129 62.5185L67.4162 63.9254C67.3201 63.9586 67.1825 63.995 67.0036 64.0348C66.8279 64.0746 66.6125 64.0978 66.3572 64.1044C65.9065 64.1177 65.5005 64.0497 65.1392 63.9006C64.7779 63.7481 64.4912 63.5128 64.2791 63.1946C64.0703 62.8764 63.9676 62.4787 63.9709 62.0014V54.5341ZM72.3343 64V53.8182H76.2321C76.9679 53.8182 77.5794 53.9342 78.0666 54.1662C78.5571 54.3949 78.9234 54.7081 79.1653 55.1058C79.4106 55.5036 79.5332 55.9543 79.5332 56.4581C79.5332 56.8724 79.4537 57.227 79.2946 57.522C79.1355 57.8137 78.9217 58.0507 78.6532 58.233C78.3848 58.4152 78.0848 58.5462 77.7534 58.6257V58.7251C78.1146 58.745 78.461 58.8561 78.7924 59.0582C79.1272 59.2571 79.4006 59.5388 79.6127 59.9034C79.8249 60.268 79.9309 60.7088 79.9309 61.2259C79.9309 61.7528 79.8033 62.2268 79.5481 62.6477C79.2929 63.0653 78.9084 63.3951 78.3947 63.6371C77.881 63.879 77.2347 64 76.4558 64H72.3343ZM74.1788 62.4588H76.1625C76.832 62.4588 77.3142 62.3312 77.6092 62.076C77.9075 61.8175 78.0566 61.486 78.0566 61.0817C78.0566 60.7801 77.9821 60.5083 77.8329 60.2663C77.6838 60.0211 77.4717 59.8288 77.1966 59.6896C76.9215 59.5471 76.5933 59.4759 76.2122 59.4759H74.1788V62.4588ZM74.1788 58.1484H76.0034C76.3216 58.1484 76.6083 58.0904 76.8635 57.9744C77.1187 57.8551 77.3192 57.6877 77.465 57.4723C77.6142 57.2536 77.6887 56.995 77.6887 56.6967C77.6887 56.3023 77.5495 55.9775 77.2711 55.7223C76.996 55.4671 76.5867 55.3395 76.0431 55.3395H74.1788V58.1484ZM83.6534 64.1541C83.1695 64.1541 82.7337 64.0679 82.3459 63.8956C81.9614 63.7199 81.6565 63.4614 81.4311 63.12C81.209 62.7786 81.098 62.3577 81.098 61.8572C81.098 61.4264 81.1776 61.0701 81.3366 60.7884C81.4957 60.5066 81.7128 60.2812 81.9879 60.1122C82.263 59.9432 82.5729 59.8156 82.9176 59.7294C83.2656 59.6399 83.6252 59.5753 83.9964 59.5355C84.4439 59.4891 84.8068 59.4477 85.0852 59.4112C85.3636 59.3714 85.5658 59.3118 85.6918 59.2322C85.821 59.1494 85.8857 59.0218 85.8857 58.8494V58.8196C85.8857 58.4451 85.7746 58.1551 85.5526 57.9496C85.3305 57.7441 85.0107 57.6413 84.593 57.6413C84.1522 57.6413 83.8026 57.7375 83.544 57.9297C83.2888 58.1219 83.1165 58.349 83.027 58.6108L81.3466 58.3722C81.4792 57.9081 81.6979 57.5204 82.0028 57.2088C82.3078 56.8939 82.6806 56.6586 83.1214 56.5028C83.5623 56.3438 84.0495 56.2642 84.5831 56.2642C84.951 56.2642 85.3172 56.3073 85.6818 56.3935C86.0464 56.4796 86.3795 56.6222 86.6811 56.821C86.9827 57.0166 87.2247 57.2834 87.407 57.6214C87.5926 57.9595 87.6854 58.3821 87.6854 58.8892V64H85.9553V62.951H85.8956C85.7862 63.1631 85.6321 63.362 85.4332 63.5476C85.2377 63.7299 84.9908 63.8774 84.6925 63.9901C84.3975 64.0994 84.0511 64.1541 83.6534 64.1541ZM84.1207 62.8317C84.482 62.8317 84.7952 62.7604 85.0604 62.6179C85.3255 62.4721 85.5294 62.2798 85.6719 62.0412C85.8177 61.8026 85.8906 61.5424 85.8906 61.2607V60.3608C85.8343 60.4072 85.7382 60.4503 85.6023 60.4901C85.4697 60.5298 85.3205 60.5646 85.1548 60.5945C84.9891 60.6243 84.825 60.6508 84.6626 60.674C84.5002 60.6972 84.3594 60.7171 84.2401 60.7337C83.9716 60.7701 83.7313 60.8298 83.5192 60.9126C83.3071 60.9955 83.1397 61.1115 83.017 61.2607C82.8944 61.4065 82.8331 61.5954 82.8331 61.8274C82.8331 62.1589 82.9541 62.4091 83.196 62.5781C83.438 62.7472 83.7462 62.8317 84.1207 62.8317ZM91.2947 53.8182V64H89.495V53.8182H91.2947ZM95.3429 64.1541C94.859 64.1541 94.4231 64.0679 94.0353 63.8956C93.6509 63.7199 93.3459 63.4614 93.1206 63.12C92.8985 62.7786 92.7875 62.3577 92.7875 61.8572C92.7875 61.4264 92.867 61.0701 93.0261 60.7884C93.1852 60.5066 93.4023 60.2812 93.6774 60.1122C93.9525 59.9432 94.2624 59.8156 94.6071 59.7294C94.9551 59.6399 95.3147 59.5753 95.6859 59.5355C96.1333 59.4891 96.4963 59.4477 96.7747 59.4112C97.0531 59.3714 97.2553 59.3118 97.3812 59.2322C97.5105 59.1494 97.5751 59.0218 97.5751 58.8494V58.8196C97.5751 58.4451 97.4641 58.1551 97.242 57.9496C97.0199 57.7441 96.7001 57.6413 96.2825 57.6413C95.8417 57.6413 95.492 57.7375 95.2335 57.9297C94.9783 58.1219 94.8059 58.349 94.7164 58.6108L93.036 58.3722C93.1686 57.9081 93.3874 57.5204 93.6923 57.2088C93.9972 56.8939 94.3701 56.6586 94.8109 56.5028C95.2517 56.3438 95.7389 56.2642 96.2725 56.2642C96.6404 56.2642 97.0067 56.3073 97.3713 56.3935C97.7359 56.4796 98.069 56.6222 98.3706 56.821C98.6722 57.0166 98.9141 57.2834 99.0964 57.6214C99.282 57.9595 99.3748 58.3821 99.3748 58.8892V64H97.6447V62.951H97.585C97.4757 63.1631 97.3216 63.362 97.1227 63.5476C96.9271 63.7299 96.6802 63.8774 96.3819 63.9901C96.0869 64.0994 95.7406 64.1541 95.3429 64.1541ZM95.8102 62.8317C96.1715 62.8317 96.4847 62.7604 96.7498 62.6179C97.015 62.4721 97.2188 62.2798 97.3613 62.0412C97.5072 61.8026 97.5801 61.5424 97.5801 61.2607V60.3608C97.5237 60.4072 97.4276 60.4503 97.2917 60.4901C97.1592 60.5298 97.01 60.5646 96.8443 60.5945C96.6786 60.6243 96.5145 60.6508 96.3521 60.674C96.1897 60.6972 96.0488 60.7171 95.9295 60.7337C95.661 60.7701 95.4208 60.8298 95.2086 60.9126C94.9965 60.9955 94.8291 61.1115 94.7065 61.2607C94.5839 61.4065 94.5225 61.5954 94.5225 61.8274C94.5225 62.1589 94.6435 62.4091 94.8855 62.5781C95.1274 62.7472 95.4357 62.8317 95.8102 62.8317ZM102.984 59.5256V64H101.184V56.3636H102.905V57.6612H102.994C103.17 57.2337 103.45 56.8939 103.834 56.642C104.222 56.3902 104.701 56.2642 105.271 56.2642C105.798 56.2642 106.257 56.3769 106.648 56.6023C107.043 56.8277 107.348 57.1541 107.563 57.5817C107.782 58.0092 107.89 58.5279 107.886 59.1378V64H106.086V59.4162C106.086 58.9058 105.954 58.5064 105.689 58.218C105.427 57.9297 105.064 57.7855 104.6 57.7855C104.285 57.7855 104.005 57.8551 103.76 57.9943C103.518 58.1302 103.327 58.3274 103.188 58.5859C103.052 58.8445 102.984 59.1577 102.984 59.5256ZM113.047 64.1491C112.284 64.1491 111.63 63.9818 111.083 63.647C110.539 63.3123 110.12 62.8499 109.825 62.2599C109.533 61.6667 109.388 60.9839 109.388 60.2116C109.388 59.4361 109.537 58.7517 109.835 58.1584C110.133 57.5618 110.554 57.0978 111.098 56.7663C111.645 56.4316 112.291 56.2642 113.037 56.2642C113.657 56.2642 114.205 56.3786 114.682 56.6072C115.163 56.8326 115.546 57.1525 115.831 57.5668C116.116 57.9777 116.278 58.4583 116.318 59.0085H114.598C114.528 58.6406 114.363 58.334 114.101 58.0888C113.842 57.8402 113.496 57.7159 113.062 57.7159C112.694 57.7159 112.371 57.8153 112.092 58.0142C111.814 58.2098 111.597 58.4915 111.441 58.8594C111.288 59.2273 111.212 59.6681 111.212 60.1818C111.212 60.7022 111.288 61.1496 111.441 61.5241C111.593 61.8954 111.807 62.1821 112.082 62.3842C112.361 62.5831 112.687 62.6825 113.062 62.6825C113.327 62.6825 113.564 62.6328 113.773 62.5334C113.985 62.4306 114.162 62.2831 114.305 62.0909C114.447 61.8987 114.545 61.665 114.598 61.3899H116.318C116.275 61.9302 116.116 62.4091 115.841 62.8267C115.566 63.241 115.191 63.5658 114.717 63.8011C114.243 64.0331 113.686 64.1491 113.047 64.1491ZM121.176 64.1491C120.411 64.1491 119.75 63.9901 119.193 63.6719C118.639 63.3504 118.213 62.8963 117.915 62.3097C117.617 61.7197 117.468 61.0253 117.468 60.2266C117.468 59.4411 117.617 58.7517 117.915 58.1584C118.217 57.5618 118.638 57.0978 119.178 56.7663C119.718 56.4316 120.353 56.2642 121.082 56.2642C121.553 56.2642 121.997 56.3404 122.414 56.4929C122.835 56.642 123.207 56.8741 123.528 57.1889C123.853 57.5038 124.108 57.9048 124.294 58.392C124.479 58.8759 124.572 59.4527 124.572 60.1222V60.674H118.313V59.4609H122.847C122.844 59.1162 122.769 58.8097 122.623 58.5412C122.477 58.2694 122.274 58.0556 122.012 57.8999C121.753 57.7441 121.452 57.6662 121.107 57.6662C120.739 57.6662 120.416 57.7557 120.137 57.9347C119.859 58.1103 119.642 58.3423 119.486 58.6307C119.334 58.9157 119.256 59.2289 119.252 59.5703V60.6293C119.252 61.0734 119.334 61.4545 119.496 61.7727C119.658 62.0876 119.886 62.3295 120.177 62.4986C120.469 62.6643 120.81 62.7472 121.201 62.7472C121.463 62.7472 121.7 62.7107 121.912 62.6378C122.124 62.5616 122.308 62.4505 122.464 62.3047C122.62 62.1589 122.738 61.9782 122.817 61.7628L124.498 61.9517C124.391 62.3958 124.189 62.7836 123.891 63.1151C123.596 63.4432 123.218 63.6984 122.757 63.8807C122.297 64.0597 121.77 64.1491 121.176 64.1491Z" fill="white"/>
<path d="M21.4773 88.5455L25 94.9886L28.5795 88.5455H32.9318L27.6705 97.2727L33.0227 106H28.6932L25 99.7159L21.3409 106H16.9773L22.2955 97.2727L17.1136 88.5455H21.4773ZM38.8373 88.5455L42.36 94.9886L45.9395 88.5455H50.2918L45.0305 97.2727L50.3827 106H46.0532L42.36 99.7159L38.7009 106H34.3373L39.6555 97.2727L34.4736 88.5455H38.8373ZM56.1973 88.5455L59.72 94.9886L63.2995 88.5455H67.6518L62.3905 97.2727L67.7427 106H63.4132L59.72 99.7159L56.0609 106H51.6973L57.0155 97.2727L51.8336 88.5455H56.1973ZM75.0232 102.818L74.8755 104.068C74.7694 105.023 74.58 105.992 74.3073 106.977C74.0421 107.97 73.7618 108.883 73.4664 109.716C73.1709 110.549 72.9323 111.205 72.7505 111.682H69.9777C70.0838 111.22 70.2277 110.591 70.4095 109.795C70.5989 109 70.7808 108.106 70.955 107.114C71.1292 106.121 71.2467 105.114 71.3073 104.091L71.3868 102.818H75.0232ZM82.3548 88.5455L85.8775 94.9886L89.457 88.5455H93.8093L88.548 97.2727L93.9002 106H89.5707L85.8775 99.7159L82.2184 106H77.8548L83.173 97.2727L77.9911 88.5455H82.3548ZM99.7148 88.5455L103.238 94.9886L106.817 88.5455H111.169L105.908 97.2727L111.26 106H106.931L103.238 99.7159L99.5784 106H95.2148L100.533 97.2727L95.3511 88.5455H99.7148ZM117.075 88.5455L120.598 94.9886L124.177 88.5455H128.529L123.268 97.2727L128.62 106H124.291L120.598 99.7159L116.938 106H112.575L117.893 97.2727L112.711 88.5455H117.075Z" fill="white"/>
<path d="M255.17 19.7141C255.463 19.4286 255.922 19.4286 256.205 19.7141C256.497 19.9996 256.497 20.4722 256.205 20.7577L254.429 22.5495C255.844 23.8491 257.044 25.6015 257.941 27.7083C258.02 27.8954 258.02 28.112 257.941 28.2892C255.853 33.1921 252.136 36.1259 247.999 36.1259H247.989C246.106 36.1259 244.301 35.5056 242.71 34.3735L240.817 36.2834C240.671 36.4311 240.485 36.5 240.3 36.5C240.115 36.5 239.92 36.4311 239.783 36.2834C239.539 36.0373 239.5 35.6435 239.695 35.358L239.724 35.3186L254.156 20.7577C254.175 20.738 254.195 20.7183 254.204 20.6986C254.224 20.6789 254.243 20.6593 254.253 20.6396L255.17 19.7141ZM248.001 19.8853C249.397 19.8853 250.753 20.2201 252.002 20.8502L248.743 24.1384C248.509 24.099 248.255 24.0695 248.001 24.0695C245.845 24.0695 244.098 25.8318 244.098 28.0075C244.098 28.2635 244.128 28.5195 244.167 28.7558L240.556 32.3984C239.581 31.2564 238.732 29.8781 238.059 28.293C237.98 28.1158 237.98 27.8992 238.059 27.7122C240.147 22.8093 243.864 19.8853 247.992 19.8853H248.001ZM251.219 25.7885L250.155 26.8617C250.331 27.1964 250.428 27.5902 250.428 28.0037C250.428 29.3525 249.335 30.4551 247.999 30.4551C247.589 30.4551 247.199 30.3567 246.867 30.1795L245.803 31.2526C246.428 31.6759 247.189 31.9319 247.999 31.9319C250.145 31.9319 251.892 30.1696 251.892 28.0037C251.892 27.1865 251.638 26.4186 251.219 25.7885Z" fill="white"/>
<rect x="16" y="129" width="87" height="32" rx="8" fill="white"/>
<path d="M38.7981 138.333H33.2086C30.7807 138.333 29.3333 139.78 29.3333 142.207V147.787C29.3333 150.22 30.7807 151.667 33.2086 151.667H38.7914C41.2193 151.667 42.6667 150.22 42.6667 147.793V142.207C42.6733 139.78 41.2259 138.333 38.7981 138.333ZM33.6488 142.987L35.6498 140.987C35.6965 140.94 35.7499 140.907 35.8099 140.88C35.93 140.827 36.07 140.827 36.1901 140.88C36.2501 140.907 36.3035 140.94 36.3502 140.987L38.3512 142.987C38.5446 143.18 38.5446 143.5 38.3512 143.693C38.2511 143.793 38.1244 143.84 37.9977 143.84C37.8709 143.84 37.7442 143.793 37.6442 143.693L36.4969 142.547V146.673C36.4969 146.947 36.2701 147.173 35.9967 147.173C35.7232 147.173 35.4964 146.947 35.4964 146.673V142.547L34.3492 143.693C34.1557 143.887 33.8356 143.887 33.6422 143.693C33.4487 143.5 33.4554 143.187 33.6488 142.987ZM40.1654 148.48C38.8247 148.927 37.4174 149.153 36.0033 149.153C34.5893 149.153 33.1819 148.927 31.8413 148.48C31.5811 148.393 31.4411 148.107 31.5278 147.847C31.6145 147.587 31.9013 147.44 32.1614 147.533C34.6427 148.36 37.3707 148.36 39.8519 147.533C40.112 147.447 40.3989 147.587 40.4856 147.847C40.5656 148.113 40.4255 148.393 40.1654 148.48Z" fill="#E00C34"/>
<path d="M51.75 149H49.0568V140.273H51.8693C52.7159 140.273 53.4403 140.447 54.0426 140.797C54.6449 141.143 55.1065 141.642 55.4276 142.293C55.7486 142.94 55.9091 143.716 55.9091 144.619C55.9091 145.528 55.7472 146.311 55.4233 146.967C55.0994 147.621 54.6278 148.124 54.0085 148.476C53.3892 148.825 52.6364 149 51.75 149ZM50.1136 148.062H51.6818C52.4034 148.062 53.0014 147.923 53.4759 147.645C53.9503 147.366 54.304 146.97 54.5369 146.456C54.7699 145.942 54.8864 145.33 54.8864 144.619C54.8864 143.915 54.7713 143.308 54.5412 142.8C54.3111 142.288 53.9673 141.896 53.5099 141.624C53.0526 141.348 52.483 141.21 51.8011 141.21H50.1136V148.062ZM60.0498 149.136C59.4191 149.136 58.8751 148.997 58.4177 148.719C57.9631 148.438 57.6123 148.045 57.3651 147.543C57.1208 147.037 56.9986 146.449 56.9986 145.778C56.9986 145.108 57.1208 144.517 57.3651 144.006C57.6123 143.491 57.956 143.091 58.3964 142.804C58.8395 142.514 59.3566 142.369 59.9475 142.369C60.2884 142.369 60.6251 142.426 60.9574 142.54C61.2898 142.653 61.5924 142.838 61.8651 143.094C62.1378 143.347 62.3552 143.682 62.5171 144.099C62.679 144.517 62.76 145.031 62.76 145.642V146.068H57.7145V145.199H61.7373C61.7373 144.83 61.6634 144.5 61.5157 144.21C61.3708 143.92 61.1634 143.692 60.8935 143.524C60.6265 143.357 60.3111 143.273 59.9475 143.273C59.5469 143.273 59.2003 143.372 58.9077 143.571C58.618 143.767 58.3949 144.023 58.2387 144.338C58.0824 144.653 58.0043 144.991 58.0043 145.352V145.932C58.0043 146.426 58.0895 146.845 58.26 147.189C58.4333 147.53 58.6734 147.79 58.9802 147.969C59.287 148.145 59.6435 148.233 60.0498 148.233C60.314 148.233 60.5526 148.196 60.7657 148.122C60.9816 148.045 61.1677 147.932 61.3239 147.781C61.4802 147.628 61.6009 147.437 61.6861 147.21L62.6577 147.483C62.5555 147.812 62.3836 148.102 62.1421 148.352C61.9006 148.599 61.6023 148.793 61.2472 148.932C60.8921 149.068 60.493 149.136 60.0498 149.136ZM64.0498 151.455V142.455H65.0214V143.494H65.1407C65.2146 143.381 65.3169 143.236 65.4476 143.06C65.5811 142.881 65.7714 142.722 66.0186 142.582C66.2686 142.44 66.6066 142.369 67.0328 142.369C67.5839 142.369 68.0697 142.507 68.4902 142.783C68.9106 143.058 69.2388 143.449 69.4745 143.955C69.7103 144.46 69.8282 145.057 69.8282 145.744C69.8282 146.438 69.7103 147.038 69.4745 147.547C69.2388 148.053 68.912 148.445 68.4944 148.723C68.0768 148.999 67.5953 149.136 67.0498 149.136C66.6294 149.136 66.2927 149.067 66.0399 148.928C65.787 148.786 65.5924 148.625 65.4561 148.446C65.3197 148.264 65.2146 148.114 65.1407 147.994H65.0555V151.455H64.0498ZM65.0385 145.727C65.0385 146.222 65.1109 146.658 65.2558 147.036C65.4007 147.411 65.6123 147.705 65.8907 147.918C66.1691 148.128 66.5101 148.233 66.9135 148.233C67.3339 148.233 67.6848 148.122 67.966 147.901C68.2501 147.676 68.4632 147.375 68.6052 146.997C68.7501 146.616 68.8226 146.193 68.8226 145.727C68.8226 145.267 68.7515 144.852 68.6095 144.483C68.4703 144.111 68.2586 143.817 67.9745 143.601C67.6933 143.382 67.3396 143.273 66.9135 143.273C66.5044 143.273 66.1606 143.376 65.8822 143.584C65.6038 143.788 65.3936 144.075 65.2515 144.445C65.1095 144.811 65.0385 145.239 65.0385 145.727ZM73.7814 149.136C73.1905 149.136 72.672 148.996 72.226 148.714C71.7828 148.433 71.4363 148.04 71.1863 147.534C70.9391 147.028 70.8155 146.437 70.8155 145.761C70.8155 145.08 70.9391 144.484 71.1863 143.976C71.4363 143.467 71.7828 143.072 72.226 142.791C72.672 142.51 73.1905 142.369 73.7814 142.369C74.3723 142.369 74.8894 142.51 75.3326 142.791C75.7786 143.072 76.1252 143.467 76.3723 143.976C76.6223 144.484 76.7473 145.08 76.7473 145.761C76.7473 146.437 76.6223 147.028 76.3723 147.534C76.1252 148.04 75.7786 148.433 75.3326 148.714C74.8894 148.996 74.3723 149.136 73.7814 149.136ZM73.7814 148.233C74.2303 148.233 74.5996 148.118 74.8894 147.888C75.1791 147.658 75.3936 147.355 75.5328 146.98C75.672 146.605 75.7416 146.199 75.7416 145.761C75.7416 145.324 75.672 144.916 75.5328 144.538C75.3936 144.161 75.1791 143.855 74.8894 143.622C74.5996 143.389 74.2303 143.273 73.7814 143.273C73.3326 143.273 72.9632 143.389 72.6735 143.622C72.3837 143.855 72.1692 144.161 72.03 144.538C71.8908 144.916 71.8212 145.324 71.8212 145.761C71.8212 146.199 71.8908 146.605 72.03 146.98C72.1692 147.355 72.3837 147.658 72.6735 147.888C72.9632 148.118 73.3326 148.233 73.7814 148.233ZM82.6789 143.92L81.7754 144.176C81.7186 144.026 81.6348 143.879 81.524 143.737C81.4161 143.592 81.2683 143.473 81.0808 143.379C80.8933 143.286 80.6533 143.239 80.3607 143.239C79.9601 143.239 79.6263 143.331 79.3592 143.516C79.095 143.697 78.9629 143.929 78.9629 144.21C78.9629 144.46 79.0539 144.658 79.2357 144.803C79.4175 144.947 79.7016 145.068 80.0879 145.165L81.0595 145.403C81.6448 145.545 82.0808 145.763 82.3678 146.055C82.6547 146.345 82.7982 146.719 82.7982 147.176C82.7982 147.551 82.6902 147.886 82.4743 148.182C82.2612 148.477 81.9629 148.71 81.5794 148.881C81.1959 149.051 80.7499 149.136 80.2414 149.136C79.5737 149.136 79.0212 148.991 78.5837 148.702C78.1462 148.412 77.8692 147.989 77.7527 147.432L78.7073 147.193C78.7982 147.545 78.97 147.81 79.2229 147.986C79.4786 148.162 79.8124 148.25 80.2243 148.25C80.6931 148.25 81.0652 148.151 81.3408 147.952C81.6192 147.75 81.7584 147.509 81.7584 147.227C81.7584 147 81.6789 146.81 81.5198 146.656C81.3607 146.5 81.1164 146.384 80.7868 146.307L79.6959 146.051C79.0965 145.909 78.6561 145.689 78.3749 145.391C78.0965 145.089 77.9573 144.713 77.9573 144.261C77.9573 143.892 78.061 143.565 78.2683 143.281C78.4786 142.997 78.7641 142.774 79.1249 142.612C79.4885 142.45 79.9004 142.369 80.3607 142.369C81.0084 142.369 81.5169 142.511 81.8862 142.795C82.2584 143.08 82.5226 143.455 82.6789 143.92ZM84.072 149V142.455H85.0777V149H84.072ZM84.5834 141.364C84.3874 141.364 84.2183 141.297 84.0763 141.163C83.9371 141.03 83.8675 140.869 83.8675 140.682C83.8675 140.494 83.9371 140.334 84.0763 140.2C84.2183 140.067 84.3874 140 84.5834 140C84.7794 140 84.947 140.067 85.0862 140.2C85.2283 140.334 85.2993 140.494 85.2993 140.682C85.2993 140.869 85.2283 141.03 85.0862 141.163C84.947 141.297 84.7794 141.364 84.5834 141.364ZM89.5263 142.455V143.307H86.1342V142.455H89.5263ZM87.1229 140.886H88.1285V147.125C88.1285 147.409 88.1697 147.622 88.2521 147.764C88.3373 147.903 88.4453 147.997 88.576 148.045C88.7095 148.091 88.8501 148.114 88.9979 148.114C89.1087 148.114 89.1996 148.108 89.2706 148.097C89.3416 148.082 89.3984 148.071 89.441 148.062L89.6456 148.966C89.5774 148.991 89.4822 149.017 89.3601 149.043C89.2379 149.071 89.0831 149.085 88.8956 149.085C88.6115 149.085 88.3331 149.024 88.0604 148.902C87.7905 148.78 87.566 148.594 87.3871 148.344C87.2109 148.094 87.1229 147.778 87.1229 147.398V140.886Z" fill="#9D0824"/>
<rect x="113" y="129" width="97" height="32" rx="8" fill="white"/>
<path d="M130.202 151.667L135.791 151.667C138.219 151.667 139.667 150.22 139.667 147.793L139.667 142.213C139.667 139.78 138.219 138.333 135.791 138.333L130.209 138.333C127.781 138.333 126.333 139.78 126.333 142.207L126.333 147.793C126.327 150.22 127.774 151.667 130.202 151.667ZM135.351 147.013L133.35 149.013C133.303 149.06 133.25 149.093 133.19 149.12C133.07 149.173 132.93 149.173 132.81 149.12C132.75 149.093 132.697 149.06 132.65 149.013L130.649 147.013C130.455 146.82 130.455 146.5 130.649 146.307C130.749 146.207 130.876 146.16 131.002 146.16C131.129 146.16 131.256 146.207 131.356 146.307L132.503 147.453L132.503 143.327C132.503 143.053 132.73 142.827 133.003 142.827C133.277 142.827 133.504 143.053 133.504 143.327L133.504 147.453L134.651 146.307C134.844 146.113 135.164 146.113 135.358 146.307C135.551 146.5 135.545 146.813 135.351 147.013ZM128.835 141.52C130.175 141.073 131.583 140.847 132.997 140.847C134.411 140.847 135.818 141.073 137.159 141.52C137.419 141.607 137.559 141.893 137.472 142.153C137.386 142.413 137.099 142.56 136.839 142.467C134.357 141.64 131.629 141.64 129.148 142.467C128.888 142.553 128.601 142.413 128.514 142.153C128.434 141.887 128.574 141.607 128.835 141.52Z" fill="#E00C34"/>
<path d="M147.642 149L145.256 140.273H146.33L148.153 147.381H148.239L150.097 140.273H151.29L153.148 147.381H153.233L155.057 140.273H156.131L153.744 149H152.653L150.727 142.045H150.659L148.733 149H147.642ZM157.071 149V142.455H158.077V149H157.071ZM157.582 141.364C157.386 141.364 157.217 141.297 157.075 141.163C156.936 141.03 156.867 140.869 156.867 140.682C156.867 140.494 156.936 140.334 157.075 140.2C157.217 140.067 157.386 140 157.582 140C157.778 140 157.946 140.067 158.085 140.2C158.227 140.334 158.298 140.494 158.298 140.682C158.298 140.869 158.227 141.03 158.085 141.163C157.946 141.297 157.778 141.364 157.582 141.364ZM162.525 142.455V143.307H159.133V142.455H162.525ZM160.122 140.886H161.128V147.125C161.128 147.409 161.169 147.622 161.251 147.764C161.336 147.903 161.444 147.997 161.575 148.045C161.709 148.091 161.849 148.114 161.997 148.114C162.108 148.114 162.199 148.108 162.27 148.097C162.341 148.082 162.397 148.071 162.44 148.062L162.645 148.966C162.576 148.991 162.481 149.017 162.359 149.043C162.237 149.071 162.082 149.085 161.895 149.085C161.611 149.085 161.332 149.024 161.059 148.902C160.79 148.78 160.565 148.594 160.386 148.344C160.21 148.094 160.122 147.778 160.122 147.398V140.886ZM164.944 145.062V149H163.939V140.273H164.944V143.477H165.03C165.183 143.139 165.413 142.871 165.72 142.672C166.03 142.47 166.442 142.369 166.956 142.369C167.402 142.369 167.792 142.459 168.128 142.638C168.463 142.814 168.723 143.085 168.907 143.452C169.095 143.815 169.189 144.278 169.189 144.841V149H168.183V144.909C168.183 144.389 168.048 143.987 167.778 143.703C167.511 143.416 167.14 143.273 166.666 143.273C166.336 143.273 166.041 143.342 165.78 143.482C165.521 143.621 165.317 143.824 165.166 144.091C165.018 144.358 164.944 144.682 164.944 145.062ZM173.26 149.136C172.715 149.136 172.233 148.999 171.816 148.723C171.398 148.445 171.071 148.053 170.835 147.547C170.6 147.038 170.482 146.438 170.482 145.744C170.482 145.057 170.6 144.46 170.835 143.955C171.071 143.449 171.399 143.058 171.82 142.783C172.24 142.507 172.726 142.369 173.277 142.369C173.703 142.369 174.04 142.44 174.287 142.582C174.537 142.722 174.728 142.881 174.858 143.06C174.992 143.236 175.095 143.381 175.169 143.494H175.254V140.273H176.26V149H175.289V147.994H175.169C175.095 148.114 174.99 148.264 174.854 148.446C174.718 148.625 174.523 148.786 174.27 148.928C174.017 149.067 173.681 149.136 173.26 149.136ZM173.397 148.233C173.8 148.233 174.141 148.128 174.419 147.918C174.698 147.705 174.909 147.411 175.054 147.036C175.199 146.658 175.272 146.222 175.272 145.727C175.272 145.239 175.201 144.811 175.058 144.445C174.916 144.075 174.706 143.788 174.428 143.584C174.149 143.376 173.806 143.273 173.397 143.273C172.97 143.273 172.615 143.382 172.331 143.601C172.05 143.817 171.838 144.111 171.696 144.483C171.557 144.852 171.487 145.267 171.487 145.727C171.487 146.193 171.558 146.616 171.701 146.997C171.845 147.375 172.058 147.676 172.34 147.901C172.624 148.122 172.976 148.233 173.397 148.233ZM178.002 149V142.455H178.973V143.443H179.041C179.161 143.119 179.377 142.857 179.689 142.655C180.002 142.453 180.354 142.352 180.746 142.352C180.82 142.352 180.912 142.354 181.023 142.357C181.134 142.359 181.218 142.364 181.274 142.369V143.392C181.24 143.384 181.162 143.371 181.04 143.354C180.921 143.334 180.794 143.324 180.661 143.324C180.343 143.324 180.059 143.391 179.809 143.524C179.561 143.655 179.365 143.837 179.22 144.07C179.078 144.3 179.007 144.562 179.007 144.858V149H178.002ZM184.153 149.153C183.738 149.153 183.361 149.075 183.023 148.919C182.685 148.76 182.417 148.531 182.218 148.233C182.019 147.932 181.92 147.568 181.92 147.142C181.92 146.767 181.994 146.463 182.141 146.23C182.289 145.994 182.486 145.81 182.734 145.676C182.981 145.543 183.254 145.443 183.552 145.378C183.853 145.31 184.156 145.256 184.46 145.216C184.857 145.165 185.18 145.126 185.427 145.101C185.677 145.072 185.859 145.026 185.972 144.96C186.089 144.895 186.147 144.781 186.147 144.619V144.585C186.147 144.165 186.032 143.838 185.802 143.605C185.575 143.372 185.229 143.256 184.766 143.256C184.286 143.256 183.91 143.361 183.637 143.571C183.364 143.781 183.173 144.006 183.062 144.244L182.107 143.903C182.278 143.506 182.505 143.196 182.789 142.974C183.076 142.75 183.388 142.594 183.727 142.506C184.067 142.415 184.403 142.369 184.732 142.369C184.942 142.369 185.184 142.395 185.457 142.446C185.732 142.494 185.998 142.595 186.254 142.749C186.512 142.902 186.727 143.134 186.897 143.443C187.067 143.753 187.153 144.168 187.153 144.688V149H186.147V148.114H186.096C186.028 148.256 185.914 148.408 185.755 148.57C185.596 148.732 185.384 148.869 185.12 148.983C184.856 149.097 184.533 149.153 184.153 149.153ZM184.306 148.25C184.704 148.25 185.039 148.172 185.312 148.016C185.587 147.859 185.795 147.658 185.934 147.411C186.076 147.163 186.147 146.903 186.147 146.631V145.71C186.104 145.761 186.011 145.808 185.866 145.851C185.724 145.891 185.559 145.926 185.371 145.957C185.187 145.986 185.006 146.011 184.83 146.034C184.657 146.054 184.516 146.071 184.408 146.085C184.147 146.119 183.903 146.175 183.675 146.251C183.451 146.325 183.269 146.437 183.13 146.588C182.994 146.736 182.925 146.937 182.925 147.193C182.925 147.543 183.055 147.807 183.313 147.986C183.575 148.162 183.906 148.25 184.306 148.25ZM190.231 149L188.237 142.455H189.294L190.708 147.466H190.777L192.174 142.455H193.248L194.629 147.449H194.697L196.112 142.455H197.169L195.174 149H194.186L192.754 143.972H192.652L191.22 149H190.231Z" fill="#9D0824"/>
</g>
<defs>
<linearGradient id="paint0_linear_106_1305" x1="229.869" y1="141.01" x2="-19.886" y2="72.587" gradientUnits="userSpaceOnUse">
<stop stop-color="#E00C34"/>
<stop offset="1" stop-color="#F20D38"/>
</linearGradient>
<linearGradient id="paint1_linear_106_1305" x1="198.078" y1="54.1624" x2="-27.6262" y2="96.246" gradientUnits="userSpaceOnUse">
<stop stop-color="#F3537A"/>
<stop offset="1" stop-color="#F13664"/>
</linearGradient>
<clipPath id="clip0_106_1305">
<rect width="276" height="177" rx="8" fill="white"/>
</clipPath>
</defs>
</svg>
